# Blender 4.1.1
# www.blender.org
mtllib guardian.mtl
o 球
v 0.000000 1.292492 -0.421740
v 0.000000 1.129967 -0.456488
v 0.000000 0.967443 -0.421740
v 0.000000 0.737598 -0.174690
v 0.062195 1.522336 -0.161393
v 0.114922 1.430274 -0.298215
v 0.150153 1.292492 -0.389637
v 0.162525 1.129967 -0.421740
v 0.150153 0.967443 -0.389637
v 0.114922 0.829661 -0.298215
v 0.062195 0.737598 -0.161393
v 0.114922 1.522336 -0.123525
v 0.212349 1.430274 -0.228244
v 0.277447 1.292492 -0.298215
v 0.300306 1.129967 -0.322786
v 0.277447 0.967443 -0.298215
v 0.212349 0.829661 -0.228244
v 0.114922 0.737598 -0.123525
v 0.150153 1.522336 -0.066851
v 0.277447 1.430274 -0.123525
v 0.362502 1.292492 -0.161393
v 0.392369 1.129967 -0.174690
v 0.362502 0.967443 -0.161393
v 0.277447 0.829661 -0.123525
v 0.150153 0.737598 -0.066851
v 0.162525 1.522336 0.000000
v 0.300306 1.430274 0.000000
v 0.392369 1.292492 0.000000
v 0.424697 1.129967 0.000000
v 0.392369 0.967443 0.000000
v 0.300306 0.829661 0.000000
v 0.162525 0.737598 0.000000
v 0.150153 1.522336 0.066851
v 0.277447 1.430274 0.123525
v 0.362502 1.292492 0.161393
v 0.392369 1.129967 0.174691
v 0.362502 0.967443 0.161393
v 0.277447 0.829661 0.123525
v 0.150153 0.737598 0.066851
v 0.114922 1.522336 0.123525
v 0.212349 1.430274 0.228244
v 0.277447 1.292492 0.298215
v 0.300306 1.129967 0.322786
v 0.277447 0.967443 0.298215
v 0.212349 0.829661 0.228244
v 0.114922 0.737598 0.123525
v 0.062195 1.522336 0.161393
v 0.114922 1.430274 0.298215
v 0.150153 1.292492 0.389637
v 0.162524 1.129967 0.421740
v 0.150153 0.967443 0.389637
v 0.114922 0.829661 0.298215
v 0.062195 0.737598 0.161393
v -0.000000 1.522336 0.174690
v -0.000000 1.430274 0.322786
v -0.000000 1.292492 0.421740
v -0.000000 1.129967 0.456488
v -0.000000 0.967443 0.421740
v -0.000000 0.829661 0.322786
v -0.000000 0.737598 0.174690
v 0.000000 0.705270 0.000000
v 0.000000 1.554664 0.000000
v -0.062196 1.522336 0.161393
v -0.114922 1.430274 0.298215
v -0.150153 1.292492 0.389637
v -0.162525 1.129967 0.421740
v -0.150153 0.967443 0.389637
v -0.114922 0.829661 0.298215
v -0.062196 0.737598 0.161393
v -0.114922 1.522336 0.123525
v -0.212349 1.430274 0.228244
v -0.277447 1.292492 0.298215
v -0.300306 1.129967 0.322786
v -0.277447 0.967443 0.298215
v -0.212349 0.829661 0.228244
v -0.114922 0.737598 0.123525
v -0.150153 1.522336 0.066851
v -0.277447 1.430274 0.123525
v -0.362502 1.292492 0.161393
v -0.392369 1.129967 0.174690
v -0.362502 0.967443 0.161393
v -0.277447 0.829661 0.123525
v -0.150153 0.737598 0.066851
v -0.162525 1.522336 -0.000000
v -0.300306 1.430274 -0.000000
v -0.392369 1.292492 -0.000000
v -0.424697 1.129967 -0.000000
v -0.392369 0.967443 -0.000000
v -0.300306 0.829661 -0.000000
v -0.162525 0.737598 -0.000000
v -0.150153 1.522336 -0.066851
v -0.277447 1.430274 -0.123525
v -0.362502 1.292492 -0.161393
v -0.392369 1.129967 -0.174691
v -0.362502 0.967443 -0.161393
v -0.277447 0.829661 -0.123525
v -0.150153 0.737598 -0.066851
v -0.114922 1.522336 -0.123525
v -0.212348 1.430274 -0.228244
v -0.277447 1.292492 -0.298215
v -0.300306 1.129967 -0.322786
v -0.277447 0.967443 -0.298215
v -0.212348 0.829661 -0.228244
v -0.114922 0.737598 -0.123525
v -0.062195 1.522336 -0.161393
v -0.114922 1.430274 -0.298215
v -0.150153 1.292492 -0.389637
v -0.162524 1.129967 -0.421740
v -0.150153 0.967443 -0.389637
v -0.114922 0.829661 -0.298215
v -0.062195 0.737598 -0.161393
v 0.000000 1.522336 -0.174690
v 0.000000 1.430274 -0.322786
v 0.000000 0.829661 -0.322786
v -0.646273 1.129967 -0.421000
v -1.233793 1.129967 -0.063150
v -0.646273 1.245417 -0.402296
v -1.233793 1.147285 -0.060344
v -0.646273 1.350609 -0.347846
v -1.233793 1.163063 -0.052177
v -0.646273 1.436195 -0.262489
v -1.233793 1.175901 -0.039373
v -0.646273 1.494572 -0.153809
v -1.233793 1.184658 -0.023071
v -0.646273 1.520552 -0.031461
v -1.233793 1.188555 -0.004719
v -0.646273 1.511827 0.093681
v -1.233793 1.187246 0.014052
v -0.646273 1.469172 0.210500
v -1.233793 1.180848 0.031575
v -0.646273 1.396378 0.308615
v -1.233793 1.169929 0.046292
v -0.646273 1.299911 0.379308
v -1.233793 1.155459 0.056896
v -0.646273 1.188344 0.416298
v -1.233793 1.138724 0.062445
v -0.646273 1.071590 0.416298
v -1.233793 1.121211 0.062445
v -0.646273 0.960023 0.379308
v -1.233793 1.104476 0.056896
v -0.646273 0.863557 0.308615
v -1.233793 1.090006 0.046292
v -0.646273 0.790762 0.210500
v -1.233793 1.079086 0.031575
v -0.646273 0.748107 0.093681
v -1.233793 1.072688 0.014052
v -0.646273 0.739382 -0.031461
v -1.233793 1.071379 -0.004719
v -0.646273 0.765362 -0.153809
v -1.233793 1.075276 -0.023071
v -0.646273 0.823739 -0.262489
v -1.233793 1.084033 -0.039373
v -0.646273 0.909326 -0.347846
v -1.233793 1.096871 -0.052177
v -0.646273 1.014517 -0.402296
v -1.233793 1.112650 -0.060344
v 0.000000 1.776240 -0.421000
v 0.000000 2.363760 -0.063150
v 0.115450 1.776240 -0.402296
v 0.017317 2.363760 -0.060344
v 0.220641 1.776240 -0.347846
v 0.033096 2.363760 -0.052177
v 0.306228 1.776240 -0.262489
v 0.045934 2.363760 -0.039373
v 0.364605 1.776240 -0.153809
v 0.054691 2.363760 -0.023071
v 0.390585 1.776240 -0.031461
v 0.058588 2.363760 -0.004719
v 0.381860 1.776240 0.093681
v 0.057279 2.363760 0.014052
v 0.339205 1.776240 0.210500
v 0.050881 2.363760 0.031575
v 0.266410 1.776240 0.308615
v 0.039962 2.363760 0.046292
v 0.169944 1.776240 0.379308
v 0.025492 2.363760 0.056896
v 0.058377 1.776240 0.416298
v 0.008757 2.363760 0.062445
v -0.058377 1.776240 0.416298
v -0.008757 2.363760 0.062445
v -0.169944 1.776240 0.379308
v -0.025492 2.363760 0.056896
v -0.266410 1.776240 0.308615
v -0.039962 2.363760 0.046292
v -0.339205 1.776240 0.210500
v -0.050881 2.363760 0.031575
v -0.381860 1.776240 0.093681
v -0.057279 2.363760 0.014052
v -0.390585 1.776240 -0.031461
v -0.058588 2.363760 -0.004719
v -0.364605 1.776240 -0.153809
v -0.054691 2.363760 -0.023071
v -0.306228 1.776240 -0.262489
v -0.045934 2.363760 -0.039373
v -0.220641 1.776240 -0.347846
v -0.033096 2.363760 -0.052177
v -0.115450 1.776240 -0.402296
v -0.017317 2.363760 -0.060344
v -0.000000 0.483695 -0.421000
v 0.000000 -0.103826 -0.063150
v -0.115450 0.483695 -0.402296
v -0.017317 -0.103826 -0.060344
v -0.220642 0.483695 -0.347846
v -0.033096 -0.103826 -0.052177
v -0.306228 0.483694 -0.262489
v -0.045934 -0.103826 -0.039373
v -0.364605 0.483694 -0.153809
v -0.054691 -0.103826 -0.023071
v -0.390585 0.483694 -0.031461
v -0.058588 -0.103826 -0.004719
v -0.381860 0.483694 0.093681
v -0.057279 -0.103826 0.014052
v -0.339205 0.483694 0.210500
v -0.050881 -0.103826 0.031575
v -0.266411 0.483694 0.308615
v -0.039961 -0.103826 0.046292
v -0.169944 0.483695 0.379308
v -0.025491 -0.103826 0.056896
v -0.058377 0.483695 0.416298
v -0.008756 -0.103826 0.062445
v 0.058377 0.483695 0.416298
v 0.008757 -0.103826 0.062445
v 0.169944 0.483695 0.379308
v 0.025492 -0.103826 0.056896
v 0.266410 0.483695 0.308615
v 0.039962 -0.103826 0.046292
v 0.339205 0.483695 0.210500
v 0.050881 -0.103826 0.031575
v 0.381860 0.483695 0.093681
v 0.057279 -0.103826 0.014052
v 0.390585 0.483695 -0.031461
v 0.058588 -0.103826 -0.004719
v 0.364605 0.483695 -0.153809
v 0.054691 -0.103826 -0.023071
v 0.306228 0.483695 -0.262489
v 0.045934 -0.103826 -0.039373
v 0.220641 0.483695 -0.347846
v 0.033096 -0.103826 -0.052177
v 0.115450 0.483695 -0.402296
v 0.017318 -0.103826 -0.060344
v 0.646273 1.129967 -0.421000
v 1.233793 1.129967 -0.063150
v 0.646273 1.014517 -0.402296
v 1.233793 1.112650 -0.060344
v 0.646273 0.909326 -0.347846
v 1.233793 1.096871 -0.052177
v 0.646273 0.823739 -0.262489
v 1.233793 1.084033 -0.039373
v 0.646273 0.765362 -0.153809
v 1.233793 1.075276 -0.023071
v 0.646273 0.739382 -0.031461
v 1.233793 1.071379 -0.004719
v 0.646273 0.748107 0.093681
v 1.233793 1.072688 0.014052
v 0.646273 0.790762 0.210500
v 1.233793 1.079086 0.031575
v 0.646273 0.863557 0.308615
v 1.233793 1.090006 0.046292
v 0.646273 0.960023 0.379308
v 1.233793 1.104476 0.056896
v 0.646273 1.071590 0.416298
v 1.233793 1.121211 0.062445
v 0.646273 1.188344 0.416298
v 1.233793 1.138724 0.062445
v 0.646273 1.299911 0.379308
v 1.233793 1.155459 0.056896
v 0.646273 1.396378 0.308615
v 1.233793 1.169929 0.046292
v 0.646273 1.469172 0.210500
v 1.233793 1.180848 0.031575
v 0.646273 1.511827 0.093681
v 1.233793 1.187246 0.014052
v 0.646273 1.520552 -0.031461
v 1.233793 1.188555 -0.004719
v 0.646273 1.494572 -0.153809
v 1.233793 1.184658 -0.023071
v 0.646273 1.436195 -0.262489
v 1.233793 1.175901 -0.039373
v 0.646273 1.350609 -0.347846
v 1.233793 1.163063 -0.052177
v 0.646273 1.245417 -0.402296
v 1.233793 1.147285 -0.060344
v -0.080736 1.476490 0.086779
v -0.080736 1.967418 0.086779
v -0.080736 1.476490 -0.086779
v -0.080736 1.967418 -0.086779
v 0.080736 1.476490 0.086779
v 0.080736 1.967418 0.086779
v 0.080736 1.476490 -0.086779
v 0.080736 1.967418 -0.086779
v 0.290703 1.212067 0.086779
v 0.781631 1.212067 0.086779
v 0.290703 1.212067 -0.086779
v 0.781631 1.212067 -0.086779
v 0.290703 1.050595 0.086779
v 0.781631 1.050595 0.086779
v 0.290703 1.050595 -0.086779
v 0.781631 1.050595 -0.086779
v -0.080736 0.353198 0.086779
v -0.080736 0.844127 0.086779
v -0.080736 0.353198 -0.086779
v -0.080736 0.844127 -0.086779
v 0.080736 0.353198 0.086779
v 0.080736 0.844127 0.086779
v 0.080736 0.353198 -0.086779
v 0.080736 0.844127 -0.086779
v -0.830374 1.212067 0.086779
v -0.339445 1.212067 0.086779
v -0.830374 1.212067 -0.086779
v -0.339445 1.212067 -0.086779
v -0.830374 1.050595 0.086779
v -0.339445 1.050595 0.086779
v -0.830374 1.050595 -0.086779
v -0.339445 1.050595 -0.086779
v 0.677724 1.445258 0.052315
v 0.330585 1.792397 0.052315
v 0.677724 1.445258 -0.052315
v 0.330585 1.792397 -0.052315
v 0.703760 1.471295 0.052315
v 0.356621 1.818434 0.052315
v 0.703760 1.471295 -0.052315
v 0.356621 1.818434 -0.052315
v -0.355632 0.439790 0.052315
v -0.702771 0.786929 0.052315
v -0.355632 0.439790 -0.052315
v -0.702771 0.786929 -0.052315
v -0.329596 0.465826 0.052315
v -0.676735 0.812965 0.052315
v -0.329596 0.465826 -0.052315
v -0.676735 0.812965 -0.052315
v 0.331308 0.465826 0.052315
v 0.678447 0.812965 0.052315
v 0.331308 0.465826 -0.052315
v 0.678447 0.812965 -0.052315
v 0.357344 0.439790 0.052315
v 0.704483 0.786929 0.052315
v 0.357344 0.439790 -0.052315
v 0.704483 0.786929 -0.052315
v -0.707699 1.475775 0.052315
v -0.360560 1.822914 0.052315
v -0.707699 1.475775 -0.052315
v -0.360560 1.822914 -0.052315
v -0.681663 1.449739 0.052315
v -0.334524 1.796878 0.052315
v -0.681663 1.449739 -0.052315
v -0.334524 1.796878 -0.052315
vn 0.1122 -0.8439 -0.5246
vn 0.2047 -0.2047 -0.9572
vn 0.1711 0.5747 -0.8003
vn 0.0389 0.9826 -0.1818
vn 0.0389 -0.9826 -0.1818
vn 0.1711 -0.5747 -0.8003
vn 0.2047 0.2047 -0.9572
vn 0.1122 0.8439 -0.5246
vn 0.1106 -0.9819 -0.1540
vn 0.4806 -0.5669 -0.6691
vn 0.5715 0.2007 -0.7957
vn 0.3175 0.8389 -0.4421
vn 0.3175 -0.8389 -0.4421
vn 0.5715 -0.2007 -0.7957
vn 0.4806 0.5669 -0.6691
vn 0.1106 0.9819 -0.1540
vn 0.8329 0.1954 -0.5178
vn 0.4712 0.8319 -0.2929
vn 0.4712 -0.8319 -0.2929
vn 0.8329 -0.1954 -0.5178
vn 0.7058 0.5563 -0.4387
vn 0.1654 0.9809 -0.1028
vn 0.1654 -0.9809 -0.1028
vn 0.7058 -0.5563 -0.4387
vn 0.5527 -0.8271 -0.1023
vn 0.9650 -0.1920 -0.1786
vn 0.8218 0.5491 -0.1521
vn 0.1950 0.9801 -0.0361
vn 0.1950 -0.9801 -0.0361
vn 0.8218 -0.5491 -0.1521
vn 0.9650 0.1920 -0.1786
vn 0.5527 0.8271 -0.1023
vn 0.8218 0.5491 0.1521
vn 0.1950 0.9801 0.0361
vn 0.1950 -0.9801 0.0361
vn 0.8218 -0.5491 0.1521
vn 0.9650 0.1920 0.1786
vn 0.5527 0.8271 0.1023
vn 0.5527 -0.8271 0.1023
vn 0.9650 -0.1920 0.1786
vn 0.1654 -0.9809 0.1028
vn 0.7058 -0.5563 0.4387
vn 0.8329 0.1954 0.5178
vn 0.4712 0.8319 0.2929
vn 0.4712 -0.8319 0.2930
vn 0.8329 -0.1954 0.5178
vn 0.7058 0.5563 0.4387
vn 0.1654 0.9809 0.1028
vn 0.3175 0.8389 0.4421
vn 0.3175 -0.8389 0.4421
vn 0.5715 -0.2007 0.7957
vn 0.4806 0.5669 0.6691
vn 0.1106 0.9819 0.1540
vn 0.1106 -0.9819 0.1540
vn 0.4806 -0.5669 0.6691
vn 0.5715 0.2007 0.7957
vn 0.1122 -0.8439 0.5246
vn 0.2047 -0.2047 0.9572
vn 0.1711 0.5747 0.8003
vn 0.0389 0.9826 0.1818
vn 0.0389 -0.9826 0.1818
vn 0.1711 -0.5747 0.8003
vn 0.2047 0.2047 0.9572
vn 0.1122 0.8439 0.5246
vn -0.0389 0.9826 0.1818
vn -0.0389 -0.9826 0.1818
vn -0.1711 -0.5747 0.8003
vn -0.2047 0.2047 0.9572
vn -0.1122 0.8439 0.5246
vn -0.1122 -0.8439 0.5246
vn -0.2047 -0.2047 0.9572
vn -0.1711 0.5747 0.8003
vn -0.4806 -0.5669 0.6691
vn -0.5715 0.2007 0.7957
vn -0.3175 0.8389 0.4421
vn -0.3175 -0.8389 0.4421
vn -0.5715 -0.2007 0.7957
vn -0.4806 0.5669 0.6691
vn -0.1106 0.9819 0.1540
vn -0.1106 -0.9819 0.1540
vn -0.4713 -0.8319 0.2929
vn -0.8329 -0.1954 0.5178
vn -0.7058 0.5563 0.4387
vn -0.1654 0.9809 0.1028
vn -0.1654 -0.9809 0.1028
vn -0.7058 -0.5563 0.4387
vn -0.8329 0.1954 0.5178
vn -0.4712 0.8319 0.2929
vn -0.9650 -0.1920 0.1786
vn -0.8218 0.5491 0.1521
vn -0.1950 0.9801 0.0361
vn -0.1950 -0.9801 0.0361
vn -0.8218 -0.5491 0.1521
vn -0.9650 0.1920 0.1786
vn -0.5527 0.8271 0.1023
vn -0.5527 -0.8271 0.1023
vn -0.1950 -0.9801 -0.0361
vn -0.8218 -0.5491 -0.1521
vn -0.9650 0.1920 -0.1786
vn -0.5527 0.8271 -0.1023
vn -0.5527 -0.8271 -0.1023
vn -0.9650 -0.1920 -0.1786
vn -0.8218 0.5491 -0.1521
vn -0.1950 0.9801 -0.0361
vn -0.8329 0.1954 -0.5178
vn -0.4712 0.8319 -0.2930
vn -0.4712 -0.8319 -0.2930
vn -0.8329 -0.1954 -0.5178
vn -0.7058 0.5563 -0.4387
vn -0.1654 0.9809 -0.1028
vn -0.1654 -0.9809 -0.1028
vn -0.7058 -0.5563 -0.4387
vn -0.3175 -0.8389 -0.4421
vn -0.5715 -0.2007 -0.7957
vn -0.4806 0.5669 -0.6691
vn -0.1106 0.9819 -0.1540
vn -0.1106 -0.9819 -0.1540
vn -0.4806 -0.5669 -0.6691
vn -0.5715 0.2007 -0.7957
vn -0.3175 0.8389 -0.4421
vn -0.1711 0.5747 -0.8003
vn -0.0389 0.9826 -0.1818
vn -0.0389 -0.9826 -0.1818
vn -0.1711 -0.5747 -0.8003
vn -0.2047 0.2047 -0.9572
vn -0.1122 0.8439 -0.5246
vn -0.1122 -0.8439 -0.5246
vn -0.2047 -0.2047 -0.9572
vn -0.5153 0.1371 -0.8460
vn -0.5105 0.3953 -0.7636
vn -0.5028 0.6104 -0.6120
vn -0.4952 0.7654 -0.4111
vn -0.4901 0.8527 -0.1811
vn -0.4890 0.8702 0.0607
vn -0.4922 0.8177 0.2986
vn -0.4988 0.6960 0.5164
vn -0.5068 0.5095 0.6953
vn -0.5134 0.2701 0.8145
vn -0.5159 -0.0000 0.8566
vn -0.5134 -0.2701 0.8145
vn -0.5068 -0.5095 0.6953
vn -0.4988 -0.6960 0.5164
vn -0.4922 -0.8177 0.2986
vn -0.4890 -0.8702 0.0607
vn -0.4901 -0.8527 -0.1811
vn -0.4952 -0.7654 -0.4111
vn -0.5028 -0.6104 -0.6120
vn -1.0000 -0.0000 -0.0000
vn -0.5105 -0.3953 -0.7636
vn -0.5153 -0.1371 -0.8460
vn 1.0000 -0.0000 -0.0000
vn 0.1371 0.5153 -0.8460
vn 0.3953 0.5105 -0.7636
vn 0.6104 0.5028 -0.6120
vn 0.7654 0.4952 -0.4111
vn 0.8527 0.4901 -0.1811
vn 0.8702 0.4890 0.0607
vn 0.8177 0.4922 0.2986
vn 0.6960 0.4988 0.5164
vn 0.5095 0.5068 0.6953
vn 0.2701 0.5134 0.8145
vn -0.0000 0.5159 0.8566
vn -0.2701 0.5134 0.8145
vn -0.5095 0.5068 0.6953
vn -0.6960 0.4988 0.5164
vn -0.8177 0.4922 0.2986
vn -0.8702 0.4890 0.0607
vn -0.8527 0.4901 -0.1811
vn -0.7654 0.4952 -0.4111
vn -0.6104 0.5028 -0.6120
vn -0.0000 1.0000 -0.0000
vn -0.3953 0.5105 -0.7636
vn -0.1371 0.5153 -0.8460
vn -0.0000 -1.0000 -0.0000
vn -0.1371 -0.5153 -0.8460
vn -0.3953 -0.5105 -0.7636
vn -0.6104 -0.5028 -0.6120
vn -0.7654 -0.4952 -0.4111
vn -0.8527 -0.4901 -0.1811
vn -0.8702 -0.4890 0.0607
vn -0.8177 -0.4922 0.2986
vn -0.6960 -0.4988 0.5164
vn -0.5095 -0.5068 0.6953
vn -0.2701 -0.5134 0.8145
vn -0.0000 -0.5159 0.8566
vn 0.2701 -0.5134 0.8145
vn 0.5095 -0.5068 0.6953
vn 0.6960 -0.4988 0.5164
vn 0.8177 -0.4922 0.2986
vn 0.8702 -0.4890 0.0607
vn 0.8527 -0.4901 -0.1811
vn 0.7654 -0.4952 -0.4111
vn 0.6104 -0.5028 -0.6120
vn 0.3953 -0.5105 -0.7636
vn 0.1371 -0.5153 -0.8460
vn 0.5153 -0.1371 -0.8460
vn 0.5105 -0.3953 -0.7636
vn 0.5028 -0.6104 -0.6120
vn 0.4952 -0.7654 -0.4111
vn 0.4901 -0.8527 -0.1811
vn 0.4890 -0.8702 0.0607
vn 0.4922 -0.8177 0.2986
vn 0.4988 -0.6960 0.5164
vn 0.5068 -0.5095 0.6953
vn 0.5134 -0.2701 0.8145
vn 0.5159 -0.0000 0.8566
vn 0.5134 0.2701 0.8145
vn 0.5068 0.5095 0.6953
vn 0.4988 0.6960 0.5164
vn 0.4922 0.8177 0.2986
vn 0.4890 0.8702 0.0607
vn 0.4901 0.8527 -0.1811
vn 0.4952 0.7654 -0.4111
vn 0.5028 0.6104 -0.6120
vn 0.5105 0.3953 -0.7636
vn 0.5153 0.1371 -0.8460
vn -0.0000 -0.0000 -1.0000
vn -0.0000 -0.0000 1.0000
vn -0.7071 -0.7071 -0.0000
vn 0.7071 0.7071 -0.0000
vn 0.7071 -0.7071 -0.0000
vn -0.7071 0.7071 -0.0000
vn 0.4712 0.8319 0.2930
vn 0.4712 -0.8319 0.2929
vn -0.4712 -0.8319 0.2929
vn -0.4713 0.8319 0.2929
vn -1.0000 -0.0000 0.0001
vn 1.0000 -0.0000 0.0001
vt 0.212415 0.275954
vt 0.241681 0.262103
vt 0.240922 0.274393
vt 0.173889 0.276979
vt 0.191854 0.259033
vt 0.191966 0.276581
vt 0.135374 0.278058
vt 0.154936 0.260110
vt 0.155854 0.277397
vt 0.107534 0.279005
vt 0.047097 0.279337
vt 0.105762 0.266950
vt 0.302655 0.274007
vt 0.212547 0.259912
vt 0.173214 0.259293
vt 0.134232 0.262276
vt 0.244559 0.249657
vt 0.214574 0.243267
vt 0.153116 0.242153
vt 0.172659 0.240518
vt 0.131346 0.245927
vt 0.192397 0.240872
vt 0.102680 0.254838
vt 0.150172 0.222435
vt 0.171961 0.220467
vt 0.126426 0.228587
vt 0.218461 0.225453
vt 0.249875 0.237017
vt 0.193936 0.220905
vt 0.097179 0.242635
vt 0.258226 0.224240
vt 0.196788 0.198430
vt 0.145511 0.200201
vt 0.088741 0.230458
vt 0.225016 0.205785
vt 0.171066 0.196677
vt 0.118677 0.209705
vt 0.138070 0.174251
vt 0.075742 0.219152
vt 0.270585 0.211630
vt 0.201534 0.171135
vt 0.235721 0.182995
vt 0.169412 0.167747
vt 0.107109 0.189268
vt 0.288388 0.200173
vt 0.210818 0.135248
vt 0.252304 0.156952
vt 0.125502 0.140180
vt 0.167458 0.130155
vt 0.058601 0.208995
vt 0.087894 0.165073
vt 0.057011 0.137707
vt 0.313904 0.191692
vt 0.225988 0.087660
vt 0.105717 0.096847
vt 0.034031 0.202864
vt 0.281400 0.125190
vt 0.164105 0.078577
vt 0.332704 0.087630
vt 0.349797 0.191100
vt 0.256127 0.016145
vt 0.063045 0.029020
vt 0.001556 0.204825
vt 0.158666 0.000296
vt 0.007457 0.111314
vt 0.000296 0.358415
vt 0.034814 0.358861
vt 0.348662 0.350388
vt 0.315852 0.352889
vt 0.349797 0.450640
vt 0.240649 0.462865
vt 0.291835 0.418932
vt 0.180114 0.568168
vt 0.115801 0.466136
vt 0.178487 0.477607
vt 0.012462 0.458021
vt 0.064128 0.424852
vt 0.279635 0.530148
vt 0.080208 0.532588
vt 0.220145 0.415716
vt 0.259627 0.390431
vt 0.134787 0.417320
vt 0.177470 0.423221
vt 0.059817 0.351524
vt 0.092866 0.395770
vt 0.291170 0.346070
vt 0.272519 0.335878
vt 0.208721 0.381521
vt 0.144326 0.383035
vt 0.077757 0.340716
vt 0.241377 0.366556
vt 0.176602 0.385871
vt 0.110709 0.369923
vt 0.201765 0.354427
vt 0.150001 0.355585
vt 0.089516 0.328365
vt 0.259905 0.323831
vt 0.229262 0.344940
vt 0.175936 0.357139
vt 0.122180 0.347274
vt 0.251202 0.311393
vt 0.197366 0.331863
vt 0.221517 0.325809
vt 0.153343 0.332875
vt 0.175391 0.333591
vt 0.128951 0.327931
vt 0.098028 0.315885
vt 0.155187 0.313028
vt 0.174922 0.313188
vt 0.133006 0.310337
vt 0.245480 0.298967
vt 0.194568 0.312099
vt 0.103493 0.303471
vt 0.216610 0.308352
vt 0.213718 0.291923
vt 0.242158 0.286647
vt 0.192863 0.293972
vt 0.155972 0.294831
vt 0.106541 0.291192
vt 0.174525 0.294629
vt 0.135043 0.293884
vt 0.868705 0.255446
vt 0.863511 0.317010
vt 0.840391 0.269239
vt 0.866889 0.343395
vt 0.848129 0.367856
vt 0.834894 0.420102
vt 0.848695 0.381210
vt 0.821588 0.472894
vt 0.821516 0.414152
vt 0.808663 0.522946
vt 0.792680 0.445346
vt 0.770549 0.491620
vt 0.723173 0.482550
vt 0.731290 0.462454
vt 0.689085 0.432926
vt 0.696028 0.487261
vt 0.642070 0.402864
vt 0.668706 0.490845
vt 0.630308 0.349998
vt 0.654553 0.489921
vt 0.611024 0.294877
vt 0.616323 0.101575
vt 0.628056 0.235933
vt 0.637769 0.098796
vt 0.641267 0.178744
vt 0.664142 0.125765
vt 0.666683 0.098796
vt 0.680193 0.076421
vt 0.695576 0.100150
vt 0.693283 0.000296
vt 0.732149 0.105733
vt 0.739889 0.083238
vt 0.780730 0.117826
vt 0.768909 0.127002
vt 0.812222 0.145403
vt 0.800175 0.169773
vt 0.589178 0.579827
vt 0.573631 0.588803
vt 0.558887 0.572913
vt 0.836860 0.179103
vt 0.818982 0.220025
vt 0.609691 0.263241
vt 0.603542 0.315931
vt 0.580950 0.268077
vt 0.610432 0.308024
vt 0.590527 0.367179
vt 0.583985 0.387923
vt 0.576213 0.419101
vt 0.561692 0.471436
vt 0.557081 0.421148
vt 0.550617 0.524058
vt 0.520880 0.449022
vt 0.511584 0.491958
vt 0.483146 0.474601
vt 0.471580 0.461966
vt 0.424704 0.490375
vt 0.428736 0.431470
vt 0.381501 0.402966
vt 0.401921 0.488805
vt 0.369700 0.349116
vt 0.387833 0.487756
vt 0.350390 0.293047
vt 0.350390 0.101439
vt 0.367231 0.233753
vt 0.385535 0.096979
vt 0.380348 0.177024
vt 0.403105 0.124236
vt 0.414888 0.097193
vt 0.418861 0.075201
vt 0.444256 0.098784
vt 0.431195 0.000296
vt 0.481549 0.104592
vt 0.479507 0.080446
vt 0.519814 0.125377
vt 0.506670 0.127310
vt 0.557158 0.148346
vt 0.538474 0.169859
vt 0.297623 0.589347
vt 0.268040 0.591564
vt 0.288218 0.569817
vt 0.582710 0.182785
vt 0.560029 0.218720
vt 0.600347 0.221361
vt 0.016135 0.825415
vt 0.012570 0.759628
vt 0.046329 0.793690
vt 0.007659 0.745077
vt 0.011178 0.711789
vt 0.007428 0.663212
vt 0.035245 0.668311
vt 0.007252 0.616354
vt 0.000296 0.568760
vt 0.100668 0.608096
vt 0.040934 0.582695
vt 0.083612 0.596880
vt 0.134317 0.591310
vt 0.128081 0.611184
vt 0.200077 0.581045
vt 0.174574 0.623383
vt 0.191636 0.669248
vt 0.226448 0.581887
vt 0.214168 0.716936
vt 0.260024 0.586135
vt 0.239150 0.766897
vt 0.266048 0.586579
vt 0.266048 0.819505
vt 0.196155 0.945052
vt 0.254063 0.868747
vt 0.183911 0.944155
vt 0.249803 0.916285
vt 0.128738 0.942667
vt 0.256871 0.984433
vt 0.189249 0.927807
vt 0.072080 0.915102
vt 0.150572 0.895134
vt 0.109769 0.867161
vt 0.309037 0.599483
vt 0.298924 0.584650
vt 0.313668 0.568760
vt 0.032085 0.857429
vt 0.076140 0.831148
vt 0.666909 0.537470
vt 0.663564 0.648612
vt 0.640825 0.698693
vt 0.715169 0.543069
vt 0.710344 0.616321
vt 0.745518 0.554573
vt 0.755503 0.585057
vt 0.798323 0.553788
vt 0.778892 0.573392
vt 0.833624 0.523539
vt 0.838755 0.626510
vt 0.847704 0.569176
vt 0.858609 0.618044
vt 0.864594 0.660687
vt 0.872695 0.665401
vt 0.874713 0.701848
vt 0.888822 0.711343
vt 0.875789 0.746273
vt 0.858579 0.752336
vt 0.868606 0.786740
vt 0.829597 0.796056
vt 0.853665 0.822974
vt 0.796935 0.838468
vt 0.813278 0.889337
vt 0.763422 0.879918
vt 0.722171 0.913186
vt 0.780213 0.908355
vt 0.680563 0.945365
vt 0.746510 0.925624
vt 0.625393 0.999704
vt 0.708983 0.934712
vt 0.630226 0.909135
vt 0.665292 0.932237
vt 0.627025 0.859496
vt 0.644299 0.929180
vt 0.617444 0.805336
vt 0.587809 0.549517
vt 0.558887 0.542916
vt 0.584578 0.528083
vt 0.623572 0.925404
vt 0.611024 0.750036
vt 0.419494 0.524651
vt 0.384942 0.559203
vt 0.384942 0.524651
vt 0.419494 0.559203
vt 0.384942 0.593755
vt 0.419494 0.593755
vt 0.384942 0.628307
vt 0.419494 0.628307
vt 0.384942 0.662859
vt 0.350390 0.628307
vt 0.350390 0.593755
vt 0.454046 0.593755
vt 0.523742 0.524651
vt 0.489190 0.559203
vt 0.489190 0.524651
vt 0.523742 0.559203
vt 0.489190 0.593755
vt 0.523742 0.593755
vt 0.489190 0.628307
vt 0.523742 0.628307
vt 0.489190 0.662859
vt 0.454638 0.628307
vt 0.454638 0.593755
vt 0.558294 0.593755
vt 0.419494 0.663451
vt 0.384942 0.698003
vt 0.384942 0.663451
vt 0.419494 0.698003
vt 0.384942 0.732555
vt 0.419494 0.732555
vt 0.384942 0.767107
vt 0.419494 0.767107
vt 0.384942 0.801659
vt 0.350390 0.767107
vt 0.350390 0.732555
vt 0.454046 0.732555
vt 0.523742 0.663451
vt 0.489190 0.698003
vt 0.489190 0.663451
vt 0.523742 0.698003
vt 0.489190 0.732555
vt 0.523742 0.732555
vt 0.489190 0.767107
vt 0.523742 0.767107
vt 0.489190 0.801659
vt 0.454638 0.767107
vt 0.454638 0.732555
vt 0.558294 0.732555
vt 0.419494 0.802252
vt 0.384942 0.836804
vt 0.384942 0.802252
vt 0.419494 0.836804
vt 0.384942 0.871356
vt 0.419494 0.871356
vt 0.384942 0.905908
vt 0.419494 0.905908
vt 0.384942 0.940460
vt 0.350390 0.905908
vt 0.350390 0.871356
vt 0.454046 0.871356
vt 0.523742 0.802252
vt 0.489190 0.836804
vt 0.489190 0.802252
vt 0.523742 0.836804
vt 0.489190 0.871356
vt 0.523742 0.871356
vt 0.489190 0.905908
vt 0.523742 0.905908
vt 0.489190 0.940460
vt 0.454638 0.905908
vt 0.454638 0.871356
vt 0.558294 0.871356
vt 0.938615 0.000296
vt 0.904063 0.034848
vt 0.904063 0.000296
vt 0.938615 0.034848
vt 0.904063 0.069400
vt 0.938615 0.069400
vt 0.904063 0.103952
vt 0.938615 0.103952
vt 0.904063 0.138504
vt 0.869511 0.103952
vt 0.869511 0.069400
vt 0.973167 0.069400
vt 0.938615 0.139097
vt 0.904063 0.173649
vt 0.904063 0.139097
vt 0.938615 0.173649
vt 0.904063 0.208201
vt 0.938615 0.208201
vt 0.904063 0.242753
vt 0.938615 0.242753
vt 0.904063 0.277305
vt 0.869511 0.242753
vt 0.869511 0.208201
vt 0.973167 0.208201
vt 0.868919 0.299489
vt 0.754426 0.471090
vt 0.649419 0.490541
vt 0.611332 0.101934
vt 0.561656 0.581889
vt 0.559595 0.577610
vt 0.559595 0.568216
vt 0.561656 0.563937
vt 0.564886 0.560455
vt 0.569000 0.558080
vt 0.573631 0.557023
vt 0.586502 0.562075
vt 0.578367 0.557378
vt 0.582789 0.559113
vt 0.589178 0.565999
vt 0.590578 0.570538
vt 0.590578 0.575288
vt 0.586502 0.583751
vt 0.582789 0.586713
vt 0.578367 0.588448
vt 0.569000 0.587746
vt 0.564886 0.585371
vt 0.859914 0.214083
vt 0.601788 0.349905
vt 0.451966 0.485848
vt 0.382724 0.488220
vt 0.363878 0.099537
vt 0.297623 0.579953
vt 0.298331 0.584650
vt 0.295563 0.593626
vt 0.283588 0.600540
vt 0.292332 0.597108
vt 0.288218 0.599483
vt 0.278851 0.600185
vt 0.274430 0.598450
vt 0.270716 0.595488
vt 0.266640 0.587025
vt 0.266640 0.582275
vt 0.268040 0.577736
vt 0.270716 0.573812
vt 0.274430 0.570850
vt 0.278851 0.569115
vt 0.283588 0.568760
vt 0.292332 0.572192
vt 0.295563 0.575674
vt 0.010864 0.785290
vt 0.020428 0.706228
vt 0.067394 0.633475
vt 0.167605 0.582433
vt 0.246585 0.584047
vt 0.162657 0.943558
vt 0.100282 0.929611
vt 0.049443 0.888719
vt 0.304923 0.572192
vt 0.309037 0.569817
vt 0.318404 0.569115
vt 0.322826 0.570850
vt 0.326539 0.573812
vt 0.329215 0.577736
vt 0.330615 0.582275
vt 0.326539 0.595488
vt 0.330615 0.587025
vt 0.329215 0.591564
vt 0.322826 0.598450
vt 0.318404 0.600185
vt 0.313668 0.600540
vt 0.304923 0.597108
vt 0.301693 0.593626
vt 0.299632 0.589347
vt 0.299632 0.579953
vt 0.301693 0.575674
vt 0.688620 0.537742
vt 0.811148 0.594007
vt 0.836995 0.858531
vt 0.590578 0.540541
vt 0.589870 0.545238
vt 0.584578 0.552999
vt 0.580465 0.555374
vt 0.575834 0.556431
vt 0.571098 0.556076
vt 0.566676 0.554340
vt 0.562963 0.551379
vt 0.560287 0.547454
vt 0.558887 0.538166
vt 0.560287 0.533627
vt 0.562963 0.529703
vt 0.566676 0.526741
vt 0.571098 0.525006
vt 0.575834 0.524651
vt 0.580465 0.525708
vt 0.587809 0.531565
vt 0.589870 0.535844
vt 0.611024 0.922447
vt 0.653058 0.537063
vt 0.419494 0.662859
vt 0.454046 0.628307
vt 0.523742 0.662859
vt 0.558294 0.628307
vt 0.419494 0.801659
vt 0.454046 0.767107
vt 0.523742 0.801659
vt 0.558294 0.767107
vt 0.419494 0.940460
vt 0.454046 0.905908
vt 0.523742 0.940460
vt 0.558294 0.905908
vt 0.938615 0.138504
vt 0.973167 0.103952
vt 0.938615 0.277305
vt 0.973167 0.242753
s 0
usemtl マテリアル
f 114/1/1 11/2/1 4/3/1
f 2/4/2 9/5/2 3/6/2
f 113/7/3 7/8/3 1/9/3
f 112/10/4 62/11/4 5/12/4
f 61/13/5 4/3/5 11/2/5
f 114/1/6 9/5/6 10/14/6
f 1/9/7 8/15/7 2/4/7
f 113/7/8 5/12/8 6/16/8
f 61/13/9 11/2/9 18/17/9
f 9/5/10 17/18/10 10/14/10
f 8/15/11 14/19/11 15/20/11
f 5/12/12 13/21/12 6/16/12
f 11/2/13 17/18/13 18/17/13
f 8/15/14 16/22/14 9/5/14
f 7/8/15 13/21/15 14/19/15
f 5/12/16 62/11/16 12/23/16
f 15/20/17 21/24/17 22/25/17
f 12/23/18 20/26/18 13/21/18
f 18/17/19 24/27/19 25/28/19
f 15/20/20 23/29/20 16/22/20
f 13/21/21 21/24/21 14/19/21
f 12/23/22 62/11/22 19/30/22
f 61/13/23 18/17/23 25/28/23
f 16/22/24 24/27/24 17/18/24
f 24/27/25 32/31/25 25/28/25
f 22/25/26 30/32/26 23/29/26
f 20/26/27 28/33/27 21/24/27
f 19/30/28 62/11/28 26/34/28
f 61/13/29 25/28/29 32/31/29
f 23/29/30 31/35/30 24/27/30
f 22/25/31 28/33/31 29/36/31
f 19/30/32 27/37/32 20/26/32
f 27/37/33 35/38/33 28/33/33
f 26/34/34 62/11/34 33/39/34
f 61/13/35 32/31/35 39/40/35
f 31/35/36 37/41/36 38/42/36
f 29/36/37 35/38/37 36/43/37
f 26/34/38 34/44/38 27/37/38
f 31/35/39 39/40/39 32/31/39
f 29/36/40 37/41/40 30/32/40
f 61/13/41 39/40/41 46/45/41
f 38/42/42 44/46/42 45/47/42
f 36/43/43 42/48/43 43/49/43
f 34/44/44 40/50/44 41/51/44
f 38/42/45 46/45/45 39/40/45
f 36/43/46 44/46/46 37/41/46
f 34/44/47 42/48/47 35/38/47
f 33/39/48 62/11/48 40/50/48
f 40/50/49 48/52/49 41/51/49
f 45/47/50 53/53/50 46/45/50
f 43/49/51 51/54/51 44/46/51
f 41/51/52 49/55/52 42/48/52
f 40/50/53 62/11/53 47/56/53
f 61/13/54 46/45/54 53/53/54
f 45/47/55 51/54/55 52/57/55
f 43/49/56 49/55/56 50/58/56
f 53/53/57 59/59/57 60/60/57
f 50/58/58 58/61/58 51/54/58
f 48/52/59 56/62/59 49/55/59
f 47/56/60 62/11/60 54/63/60
f 61/13/61 53/53/61 60/60/61
f 52/57/62 58/61/62 59/59/62
f 50/58/63 56/62/63 57/64/63
f 47/56/64 55/65/64 48/52/64
f 54/66/65 62/11/65 63/67/65
f 61/13/66 60/68/66 69/69/66
f 59/70/67 67/71/67 68/72/67
f 57/73/68 65/74/68 66/75/68
f 55/76/69 63/67/69 64/77/69
f 59/70/70 69/69/70 60/68/70
f 57/73/71 67/71/71 58/78/71
f 55/76/72 65/74/72 56/79/72
f 68/72/73 74/80/73 75/81/73
f 66/75/74 72/82/74 73/83/74
f 64/77/75 70/84/75 71/85/75
f 68/72/76 76/86/76 69/69/76
f 66/75/77 74/80/77 67/71/77
f 64/77/78 72/82/78 65/74/78
f 63/67/79 62/11/79 70/84/79
f 61/13/80 69/69/80 76/86/80
f 75/81/81 83/87/81 76/86/81
f 73/83/82 81/88/82 74/80/82
f 71/85/83 79/89/83 72/82/83
f 70/84/84 62/11/84 77/90/84
f 61/13/85 76/86/85 83/87/85
f 75/81/86 81/88/86 82/91/86
f 73/83/87 79/89/87 80/92/87
f 70/84/88 78/93/88 71/85/88
f 80/92/89 88/94/89 81/88/89
f 78/93/90 86/95/90 79/89/90
f 77/90/91 62/11/91 84/96/91
f 61/13/92 83/87/92 90/97/92
f 82/91/93 88/94/93 89/98/93
f 80/92/94 86/95/94 87/99/94
f 77/90/95 85/100/95 78/93/95
f 83/87/96 89/98/96 90/97/96
f 61/13/97 90/97/97 97/101/97
f 89/98/98 95/102/98 96/103/98
f 87/99/99 93/104/99 94/105/99
f 84/96/100 92/106/100 85/100/100
f 89/98/101 97/101/101 90/97/101
f 87/99/102 95/102/102 88/94/102
f 85/100/103 93/104/103 86/95/103
f 84/96/104 62/11/104 91/107/104
f 94/105/105 100/108/105 101/109/105
f 91/107/106 99/110/106 92/106/106
f 96/103/107 104/111/107 97/101/107
f 94/105/108 102/112/108 95/102/108
f 92/106/109 100/108/109 93/104/109
f 91/107/110 62/11/110 98/113/110
f 61/13/111 97/101/111 104/111/111
f 96/103/112 102/112/112 103/114/112
f 104/111/113 110/115/113 111/116/113
f 101/109/114 109/117/114 102/112/114
f 99/110/115 107/118/115 100/108/115
f 98/113/116 62/11/116 105/119/116
f 61/13/117 104/111/117 111/116/117
f 103/114/118 109/117/118 110/115/118
f 101/109/119 107/118/119 108/120/119
f 98/113/120 106/121/120 99/110/120
f 106/121/121 1/9/121 107/118/121
f 105/119/122 62/11/122 112/10/122
f 61/13/123 111/116/123 4/3/123
f 110/115/124 3/6/124 114/1/124
f 108/120/125 1/9/125 2/4/125
f 105/119/126 113/7/126 106/121/126
f 110/115/127 4/3/127 111/116/127
f 108/120/128 3/6/128 109/117/128
f 116/122/129 117/123/129 115/124/129
f 117/123/130 120/125/130 119/126/130
f 120/125/131 121/127/131 119/126/131
f 122/128/132 123/129/132 121/127/132
f 124/130/133 125/131/133 123/129/133
f 126/132/134 127/133/134 125/131/134
f 127/133/135 130/134/135 129/135/135
f 130/134/136 131/136/136 129/135/136
f 132/137/137 133/138/137 131/136/137
f 134/139/138 135/140/138 133/138/138
f 136/141/139 137/142/139 135/140/139
f 137/142/140 140/143/140 139/144/140
f 139/144/141 142/145/141 141/146/141
f 142/145/142 143/147/142 141/146/142
f 144/148/143 145/149/143 143/147/143
f 146/150/144 147/151/144 145/149/144
f 148/152/145 149/153/145 147/151/145
f 150/154/146 151/155/146 149/153/146
f 152/156/147 153/157/147 151/155/147
f 134/158/148 126/159/148 116/160/148
f 154/161/149 155/162/149 153/157/149
f 155/162/150 116/122/150 115/124/150
f 125/131/151 133/138/151 149/153/151
f 158/163/152 159/164/152 157/165/152
f 160/166/153 161/167/153 159/164/153
f 161/167/154 164/168/154 163/169/154
f 164/168/155 165/170/155 163/169/155
f 166/171/156 167/172/156 165/170/156
f 168/173/157 169/174/157 167/172/157
f 170/175/158 171/176/158 169/174/158
f 171/176/159 174/177/159 173/178/159
f 174/177/160 175/179/160 173/178/160
f 176/180/161 177/181/161 175/179/161
f 178/182/162 179/183/162 177/181/162
f 180/184/163 181/185/163 179/183/163
f 181/185/164 184/186/164 183/187/164
f 184/186/165 185/188/165 183/187/165
f 186/189/166 187/190/166 185/188/166
f 188/191/167 189/192/167 187/190/167
f 190/193/168 191/194/168 189/192/168
f 192/195/169 193/196/169 191/194/169
f 194/197/170 195/198/170 193/196/170
f 158/199/171 184/200/171 168/201/171
f 196/202/172 197/203/172 195/198/172
f 198/204/173 157/165/173 197/203/173
f 167/172/174 175/179/174 191/194/174
f 200/205/175 201/206/175 199/207/175
f 201/206/176 204/208/176 203/209/176
f 204/208/177 205/210/177 203/209/177
f 205/210/178 208/211/178 207/212/178
f 208/211/179 209/213/179 207/212/179
f 209/213/180 212/214/180 211/215/180
f 212/214/181 213/216/181 211/215/181
f 214/217/182 215/218/182 213/216/182
f 215/218/183 218/219/183 217/220/183
f 218/219/184 219/221/184 217/220/184
f 220/222/185 221/223/185 219/221/185
f 221/223/186 224/224/186 223/225/186
f 223/225/187 226/226/187 225/227/187
f 226/228/188 227/229/188 225/227/188
f 228/230/189 229/231/189 227/229/189
f 229/231/190 232/232/190 231/233/190
f 232/232/191 233/234/191 231/233/191
f 233/234/192 236/235/192 235/236/192
f 236/235/193 237/237/193 235/236/193
f 218/238/174 210/239/174 200/240/174
f 237/237/194 240/241/194 239/242/194
f 240/241/195 199/207/195 239/242/195
f 209/213/171 217/220/171 233/234/171
f 242/243/196 243/244/196 241/245/196
f 243/244/197 246/246/197 245/247/197
f 245/247/198 248/248/198 247/249/198
f 248/248/199 249/250/199 247/249/199
f 250/251/200 251/252/200 249/250/200
f 251/252/201 254/253/201 253/254/201
f 254/253/202 255/255/202 253/254/202
f 256/256/203 257/257/203 255/255/203
f 258/258/204 259/259/204 257/257/204
f 260/260/205 261/261/205 259/259/205
f 262/262/206 263/263/206 261/261/206
f 264/264/207 265/265/207 263/263/207
f 265/265/208 268/266/208 267/267/208
f 268/266/209 269/268/209 267/267/209
f 270/269/210 271/270/210 269/268/210
f 272/271/211 273/272/211 271/270/211
f 274/273/212 275/274/212 273/272/212
f 276/275/213 277/276/213 275/274/213
f 278/277/214 279/278/214 277/276/214
f 242/279/151 268/280/151 252/281/151
f 280/282/215 281/283/215 279/278/215
f 281/283/216 242/243/216 241/245/216
f 251/252/148 259/259/148 275/274/148
f 284/284/148 285/285/148 283/286/148
f 286/287/217 289/288/217 285/285/217
f 290/289/151 287/290/151 289/288/151
f 288/291/218 283/292/218 287/290/218
f 289/288/174 283/293/174 285/294/174
f 286/295/171 288/291/171 290/289/171
f 292/296/171 293/297/171 291/298/171
f 294/299/217 297/300/217 293/297/217
f 298/301/174 295/302/174 297/300/174
f 296/303/218 291/304/218 295/302/218
f 297/300/148 291/305/148 293/306/148
f 294/307/151 296/303/151 298/301/151
f 300/308/148 301/309/148 299/310/148
f 302/311/217 305/312/217 301/309/217
f 306/313/151 303/314/151 305/312/151
f 304/315/218 299/316/218 303/314/218
f 305/312/174 299/317/174 301/318/174
f 302/319/171 304/315/171 306/313/171
f 308/320/171 309/321/171 307/322/171
f 310/323/217 313/324/217 309/321/217
f 314/325/174 311/326/174 313/324/174
f 312/327/218 307/328/218 311/326/218
f 313/324/148 307/329/148 309/330/148
f 310/331/151 312/327/151 314/325/151
f 316/332/219 317/333/219 315/334/219
f 318/335/217 321/336/217 317/333/217
f 322/337/220 319/338/220 321/336/220
f 320/339/218 315/340/218 319/338/218
f 321/336/221 315/341/221 317/342/221
f 318/343/222 320/339/222 322/337/222
f 324/344/219 325/345/219 323/346/219
f 326/347/217 329/348/217 325/345/217
f 330/349/220 327/350/220 329/348/220
f 328/351/218 323/352/218 327/350/218
f 329/348/221 323/353/221 325/354/221
f 326/355/222 328/351/222 330/349/222
f 332/356/222 333/357/222 331/358/222
f 334/359/217 337/360/217 333/357/217
f 338/361/221 335/362/221 337/360/221
f 336/363/218 331/364/218 335/362/218
f 337/360/219 331/365/219 333/366/219
f 334/367/220 336/363/220 338/361/220
f 340/368/222 341/369/222 339/370/222
f 342/371/217 345/372/217 341/369/217
f 346/373/221 343/374/221 345/372/221
f 344/375/218 339/376/218 343/374/218
f 345/372/219 339/377/219 341/378/219
f 342/379/220 344/375/220 346/373/220
f 114/1/1 10/14/1 11/2/1
f 2/4/2 8/15/2 9/5/2
f 113/7/3 6/16/3 7/8/3
f 114/1/6 3/6/6 9/5/6
f 1/9/7 7/8/7 8/15/7
f 113/7/8 112/10/8 5/12/8
f 9/5/10 16/22/10 17/18/10
f 8/15/11 7/8/11 14/19/11
f 5/12/12 12/23/12 13/21/12
f 11/2/13 10/14/13 17/18/13
f 8/15/14 15/20/14 16/22/14
f 7/8/15 6/16/15 13/21/15
f 15/20/17 14/19/17 21/24/17
f 12/23/18 19/30/18 20/26/18
f 18/17/19 17/18/19 24/27/19
f 15/20/20 22/25/20 23/29/20
f 13/21/21 20/26/21 21/24/21
f 16/22/24 23/29/24 24/27/24
f 24/27/25 31/35/25 32/31/25
f 22/25/26 29/36/26 30/32/26
f 20/26/27 27/37/27 28/33/27
f 23/29/30 30/32/30 31/35/30
f 22/25/31 21/24/31 28/33/31
f 19/30/32 26/34/32 27/37/32
f 27/37/33 34/44/33 35/38/33
f 31/35/36 30/32/36 37/41/36
f 29/36/37 28/33/37 35/38/37
f 26/34/38 33/39/38 34/44/38
f 31/35/39 38/42/39 39/40/39
f 29/36/40 36/43/40 37/41/40
f 38/42/42 37/41/42 44/46/42
f 36/43/43 35/38/43 42/48/43
f 34/44/223 33/39/223 40/50/223
f 38/42/224 45/47/224 46/45/224
f 36/43/46 43/49/46 44/46/46
f 34/44/47 41/51/47 42/48/47
f 40/50/49 47/56/49 48/52/49
f 45/47/50 52/57/50 53/53/50
f 43/49/51 50/58/51 51/54/51
f 41/51/52 48/52/52 49/55/52
f 45/47/55 44/46/55 51/54/55
f 43/49/56 42/48/56 49/55/56
f 53/53/57 52/57/57 59/59/57
f 50/58/58 57/64/58 58/61/58
f 48/52/59 55/65/59 56/62/59
f 52/57/62 51/54/62 58/61/62
f 50/58/63 49/55/63 56/62/63
f 47/56/64 54/63/64 55/65/64
f 59/70/67 58/78/67 67/71/67
f 57/73/68 56/79/68 65/74/68
f 55/76/69 54/66/69 63/67/69
f 59/70/70 68/72/70 69/69/70
f 57/73/71 66/75/71 67/71/71
f 55/76/72 64/77/72 65/74/72
f 68/72/73 67/71/73 74/80/73
f 66/75/74 65/74/74 72/82/74
f 64/77/75 63/67/75 70/84/75
f 68/72/76 75/81/76 76/86/76
f 66/75/77 73/83/77 74/80/77
f 64/77/78 71/85/78 72/82/78
f 75/81/225 82/91/225 83/87/225
f 73/83/82 80/92/82 81/88/82
f 71/85/83 78/93/83 79/89/83
f 75/81/86 74/80/86 81/88/86
f 73/83/87 72/82/87 79/89/87
f 70/84/226 77/90/226 78/93/226
f 80/92/89 87/99/89 88/94/89
f 78/93/90 85/100/90 86/95/90
f 82/91/93 81/88/93 88/94/93
f 80/92/94 79/89/94 86/95/94
f 77/90/95 84/96/95 85/100/95
f 83/87/96 82/91/96 89/98/96
f 89/98/98 88/94/98 95/102/98
f 87/99/99 86/95/99 93/104/99
f 84/96/100 91/107/100 92/106/100
f 89/98/101 96/103/101 97/101/101
f 87/99/102 94/105/102 95/102/102
f 85/100/103 92/106/103 93/104/103
f 94/105/105 93/104/105 100/108/105
f 91/107/106 98/113/106 99/110/106
f 96/103/107 103/114/107 104/111/107
f 94/105/108 101/109/108 102/112/108
f 92/106/109 99/110/109 100/108/109
f 96/103/112 95/102/112 102/112/112
f 104/111/113 103/114/113 110/115/113
f 101/109/114 108/120/114 109/117/114
f 99/110/115 106/121/115 107/118/115
f 103/114/118 102/112/118 109/117/118
f 101/109/119 100/108/119 107/118/119
f 98/113/120 105/119/120 106/121/120
f 106/121/121 113/7/121 1/9/121
f 110/115/124 109/117/124 3/6/124
f 108/120/125 107/118/125 1/9/125
f 105/119/126 112/10/126 113/7/126
f 110/115/127 114/1/127 4/3/127
f 108/120/128 2/4/128 3/6/128
f 116/122/129 118/380/129 117/123/129
f 117/123/130 118/380/130 120/125/130
f 120/125/131 122/128/131 121/127/131
f 122/128/132 124/130/132 123/129/132
f 124/130/133 126/132/133 125/131/133
f 126/132/134 128/381/134 127/133/134
f 127/133/135 128/381/135 130/134/135
f 130/134/136 132/137/136 131/136/136
f 132/137/137 134/139/137 133/138/137
f 134/139/138 136/141/138 135/140/138
f 136/141/139 138/382/139 137/142/139
f 137/142/140 138/383/140 140/143/140
f 139/144/141 140/143/141 142/145/141
f 142/145/142 144/148/142 143/147/142
f 144/148/143 146/150/143 145/149/143
f 146/150/144 148/152/144 147/151/144
f 148/152/145 150/154/145 149/153/145
f 150/154/146 152/156/146 151/155/146
f 152/156/147 154/161/147 153/157/147
f 120/384/148 118/385/148 116/160/148
f 116/160/148 156/386/148 154/387/148
f 154/387/148 152/388/148 150/389/148
f 150/389/148 148/390/148 142/391/148
f 148/390/148 146/392/148 142/391/148
f 146/392/148 144/393/148 142/391/148
f 142/391/148 140/394/148 138/395/148
f 138/395/227 136/396/227 134/158/227
f 134/158/148 132/397/148 130/398/148
f 130/398/148 128/399/148 126/159/148
f 126/159/148 124/400/148 122/401/148
f 122/401/148 120/384/148 126/159/148
f 120/384/148 116/160/148 126/159/148
f 116/160/148 154/387/148 142/391/148
f 154/387/148 150/389/148 142/391/148
f 142/391/148 138/395/148 134/158/148
f 134/158/148 130/398/148 126/159/148
f 142/391/148 134/158/148 116/160/148
f 154/161/149 156/402/149 155/162/149
f 155/162/150 156/402/150 116/122/150
f 155/162/151 115/124/151 117/123/151
f 117/123/151 119/126/151 125/131/151
f 119/126/151 121/127/151 125/131/151
f 121/127/151 123/129/151 125/131/151
f 125/131/151 127/133/151 133/138/151
f 127/133/151 129/135/151 133/138/151
f 129/135/151 131/136/151 133/138/151
f 133/138/151 135/140/151 137/142/151
f 137/142/151 139/144/151 133/138/151
f 139/144/151 141/146/151 133/138/151
f 141/146/151 143/147/151 145/149/151
f 145/149/151 147/151/151 149/153/151
f 149/153/151 151/155/151 153/157/151
f 153/157/151 155/162/151 117/123/151
f 141/146/151 145/149/151 133/138/151
f 145/149/151 149/153/151 133/138/151
f 149/153/151 153/157/151 117/123/151
f 117/123/151 125/131/151 149/153/151
f 158/163/152 160/166/152 159/164/152
f 160/166/153 162/403/153 161/167/153
f 161/167/154 162/403/154 164/168/154
f 164/168/155 166/171/155 165/170/155
f 166/171/156 168/173/156 167/172/156
f 168/173/157 170/175/157 169/174/157
f 170/175/158 172/404/158 171/176/158
f 171/176/159 172/404/159 174/177/159
f 174/177/160 176/180/160 175/179/160
f 176/180/161 178/182/161 177/181/161
f 178/182/162 180/405/162 179/183/162
f 180/184/163 182/406/163 181/185/163
f 181/185/164 182/406/164 184/186/164
f 184/186/165 186/189/165 185/188/165
f 186/189/166 188/191/166 187/190/166
f 188/191/167 190/193/167 189/192/167
f 190/193/168 192/195/168 191/194/168
f 192/195/169 194/197/169 193/196/169
f 194/197/170 196/202/170 195/198/170
f 162/407/171 160/408/171 158/199/171
f 158/199/171 198/409/171 192/410/171
f 198/409/171 196/411/171 192/410/171
f 196/411/171 194/412/171 192/410/171
f 192/410/171 190/413/171 184/200/171
f 190/413/171 188/414/171 184/200/171
f 188/414/171 186/415/171 184/200/171
f 184/200/171 182/416/171 180/417/171
f 180/417/171 178/418/171 176/419/171
f 176/419/171 174/420/171 172/421/171
f 172/421/171 170/422/171 168/201/171
f 168/201/171 166/423/171 164/424/171
f 164/424/171 162/407/171 168/201/171
f 162/407/171 158/199/171 168/201/171
f 184/200/171 180/417/171 176/419/171
f 176/419/171 172/421/171 184/200/171
f 172/421/171 168/201/171 184/200/171
f 158/199/171 192/410/171 184/200/171
f 196/202/172 198/204/172 197/203/172
f 198/204/173 158/163/173 157/165/173
f 197/203/174 157/165/174 159/164/174
f 159/164/174 161/167/174 167/172/174
f 161/167/174 163/169/174 167/172/174
f 163/169/174 165/170/174 167/172/174
f 167/172/174 169/174/174 175/179/174
f 169/174/174 171/176/174 175/179/174
f 171/176/174 173/178/174 175/179/174
f 175/179/174 177/181/174 179/183/174
f 179/183/174 181/185/174 175/179/174
f 181/185/174 183/187/174 175/179/174
f 183/187/174 185/188/174 187/190/174
f 187/190/174 189/192/174 191/194/174
f 191/194/174 193/196/174 195/198/174
f 195/198/174 197/203/174 159/164/174
f 183/187/174 187/190/174 175/179/174
f 187/190/174 191/194/174 175/179/174
f 191/194/174 195/198/174 159/164/174
f 159/164/174 167/172/174 191/194/174
f 200/205/175 202/425/175 201/206/175
f 201/206/176 202/425/176 204/208/176
f 204/208/177 206/426/177 205/210/177
f 205/210/178 206/426/178 208/211/178
f 208/211/179 210/427/179 209/213/179
f 209/213/180 210/427/180 212/214/180
f 212/214/181 214/217/181 213/216/181
f 214/217/182 216/428/182 215/218/182
f 215/218/183 216/428/183 218/219/183
f 218/219/184 220/222/184 219/221/184
f 220/222/185 222/429/185 221/223/185
f 221/223/186 222/429/186 224/224/186
f 223/225/187 224/224/187 226/226/187
f 226/228/188 228/230/188 227/229/188
f 228/230/189 230/430/189 229/231/189
f 229/231/190 230/430/190 232/232/190
f 232/232/191 234/431/191 233/234/191
f 233/234/192 234/431/192 236/235/192
f 236/235/193 238/432/193 237/237/193
f 204/433/174 202/434/174 200/240/174
f 200/240/174 240/435/174 238/436/174
f 238/436/174 236/437/174 234/438/174
f 234/438/174 232/439/174 226/440/174
f 232/439/174 230/441/174 226/440/174
f 230/441/174 228/442/174 226/440/174
f 226/440/174 224/443/174 222/444/174
f 222/444/174 220/445/174 218/238/174
f 218/238/174 216/446/174 214/447/174
f 214/447/174 212/448/174 210/239/174
f 210/239/174 208/449/174 206/450/174
f 206/450/174 204/433/174 210/239/174
f 204/433/174 200/240/174 210/239/174
f 200/240/174 238/436/174 234/438/174
f 226/440/174 222/444/174 218/238/174
f 218/238/174 214/447/174 210/239/174
f 200/240/174 234/438/174 226/440/174
f 226/440/174 218/238/174 200/240/174
f 237/237/194 238/432/194 240/241/194
f 240/241/195 200/205/195 199/207/195
f 239/242/171 199/207/171 201/206/171
f 201/206/171 203/209/171 209/213/171
f 203/209/171 205/210/171 209/213/171
f 205/210/171 207/212/171 209/213/171
f 209/213/171 211/215/171 217/220/171
f 211/215/171 213/216/171 217/220/171
f 213/216/171 215/218/171 217/220/171
f 217/220/171 219/221/171 221/223/171
f 221/223/171 223/225/171 217/220/171
f 223/225/171 225/227/171 217/220/171
f 225/227/171 227/229/171 229/231/171
f 229/231/171 231/233/171 233/234/171
f 233/234/171 235/236/171 237/237/171
f 237/237/171 239/242/171 201/206/171
f 225/227/171 229/231/171 217/220/171
f 229/231/171 233/234/171 217/220/171
f 233/234/171 237/237/171 201/206/171
f 201/206/171 209/213/171 233/234/171
f 242/243/196 244/451/196 243/244/196
f 243/244/197 244/451/197 246/246/197
f 245/247/198 246/246/198 248/248/198
f 248/248/199 250/251/199 249/250/199
f 250/251/200 252/452/200 251/252/200
f 251/252/201 252/452/201 254/253/201
f 254/253/202 256/256/202 255/255/202
f 256/256/203 258/258/203 257/257/203
f 258/258/204 260/260/204 259/259/204
f 260/260/205 262/262/205 261/261/205
f 262/262/206 264/264/206 263/263/206
f 264/264/207 266/453/207 265/265/207
f 265/265/208 266/453/208 268/266/208
f 268/266/209 270/269/209 269/268/209
f 270/269/210 272/271/210 271/270/210
f 272/271/211 274/273/211 273/272/211
f 274/273/212 276/275/212 275/274/212
f 276/275/213 278/277/213 277/276/213
f 278/277/214 280/282/214 279/278/214
f 246/454/151 244/455/151 242/279/151
f 242/279/151 282/456/151 280/457/151
f 280/457/151 278/458/151 242/279/151
f 278/458/151 276/459/151 242/279/151
f 276/459/151 274/460/151 268/280/151
f 274/460/151 272/461/151 268/280/151
f 272/461/151 270/462/151 268/280/151
f 268/280/151 266/463/151 264/464/151
f 264/464/228 262/465/228 260/466/228
f 260/466/151 258/467/151 256/468/151
f 256/468/151 254/469/151 252/281/151
f 252/281/151 250/470/151 248/471/151
f 248/471/151 246/454/151 252/281/151
f 246/454/151 242/279/151 252/281/151
f 268/280/151 264/464/151 252/281/151
f 264/464/151 260/466/151 252/281/151
f 260/466/151 256/468/151 252/281/151
f 242/279/151 276/459/151 268/280/151
f 280/282/215 282/472/215 281/283/215
f 281/283/216 282/473/216 242/243/216
f 281/283/148 241/245/148 243/244/148
f 243/244/148 245/247/148 251/252/148
f 245/247/148 247/249/148 251/252/148
f 247/249/148 249/250/148 251/252/148
f 251/252/148 253/254/148 259/259/148
f 253/254/148 255/255/148 259/259/148
f 255/255/148 257/257/148 259/259/148
f 259/259/148 261/261/148 263/263/148
f 263/263/148 265/265/148 259/259/148
f 265/265/148 267/267/148 259/259/148
f 267/267/148 269/268/148 271/270/148
f 271/270/148 273/272/148 275/274/148
f 275/274/148 277/276/148 279/278/148
f 279/278/148 281/283/148 243/244/148
f 267/267/148 271/270/148 259/259/148
f 271/270/148 275/274/148 259/259/148
f 275/274/148 279/278/148 243/244/148
f 243/244/148 251/252/148 275/274/148
f 284/284/148 286/287/148 285/285/148
f 286/287/217 290/289/217 289/288/217
f 290/289/151 288/291/151 287/290/151
f 288/291/218 284/474/218 283/292/218
f 289/288/174 287/290/174 283/293/174
f 286/295/171 284/475/171 288/291/171
f 292/296/171 294/299/171 293/297/171
f 294/299/217 298/301/217 297/300/217
f 298/301/174 296/303/174 295/302/174
f 296/303/218 292/476/218 291/304/218
f 297/300/148 295/302/148 291/305/148
f 294/307/151 292/477/151 296/303/151
f 300/308/148 302/311/148 301/309/148
f 302/311/217 306/313/217 305/312/217
f 306/313/151 304/315/151 303/314/151
f 304/315/218 300/478/218 299/316/218
f 305/312/174 303/314/174 299/317/174
f 302/319/171 300/479/171 304/315/171
f 308/320/171 310/323/171 309/321/171
f 310/323/217 314/325/217 313/324/217
f 314/325/174 312/327/174 311/326/174
f 312/327/218 308/480/218 307/328/218
f 313/324/148 311/326/148 307/329/148
f 310/331/151 308/481/151 312/327/151
f 316/332/219 318/335/219 317/333/219
f 318/335/217 322/337/217 321/336/217
f 322/337/220 320/339/220 319/338/220
f 320/339/218 316/482/218 315/340/218
f 321/336/221 319/338/221 315/341/221
f 318/343/222 316/483/222 320/339/222
f 324/344/219 326/347/219 325/345/219
f 326/347/217 330/349/217 329/348/217
f 330/349/220 328/351/220 327/350/220
f 328/351/218 324/484/218 323/352/218
f 329/348/221 327/350/221 323/353/221
f 326/355/222 324/485/222 328/351/222
f 332/356/222 334/359/222 333/357/222
f 334/359/217 338/361/217 337/360/217
f 338/361/221 336/363/221 335/362/221
f 336/363/218 332/486/218 331/364/218
f 337/360/219 335/362/219 331/365/219
f 334/367/220 332/487/220 336/363/220
f 340/368/222 342/371/222 341/369/222
f 342/371/217 346/373/217 345/372/217
f 346/373/221 344/375/221 343/374/221
f 344/375/218 340/488/218 339/376/218
f 345/372/219 343/374/219 339/377/219
f 342/379/220 340/489/220 344/375/220
