# Blender 4.1.1
# www.blender.org
mtllib trapEnemy.mtl
o 立方体
v -0.608068 1.180529 0.608068
v -0.608068 2.396665 0.608068
v -0.608068 1.180529 -0.608068
v -0.608068 2.396665 -0.608068
v 0.608068 1.180529 0.608068
v 0.608068 2.396665 0.608068
v 0.608068 1.180529 -0.608068
v 0.608068 2.396665 -0.608068
v -0.904058 1.788597 0.904058
v -0.904058 1.788597 -0.904058
v 0.904058 1.788597 -0.904058
v 0.904058 1.788597 0.904058
v 0.000000 0.877688 -0.910909
v 0.000000 2.699506 -0.910909
v 0.000000 0.877688 0.910909
v 0.000000 2.699506 0.910909
v 0.000000 1.788597 1.816362
v 0.000000 1.788597 -1.816362
v -0.910909 0.877688 0.000000
v -0.910909 2.699506 0.000000
v 0.910909 0.877688 0.000000
v 0.910909 2.699506 0.000000
v 1.834295 1.788597 0.000000
v -1.834295 1.788597 0.000000
v 0.000000 3.603553 0.000000
v 0.000000 -0.026360 0.000000
v -0.756063 2.092631 0.756063
v -0.756063 2.092631 -0.756063
v 0.756063 2.092631 -0.756063
v 0.756063 2.092631 0.756063
v 0.000000 2.244051 1.363636
v 0.000000 2.244051 -1.363636
v 1.372602 2.244051 0.000000
v -1.372602 2.244051 0.000000
v -0.904522 1.586180 -0.914492
v 0.894552 1.596150 -0.904522
v 0.904522 1.586180 0.904522
v -0.904522 1.596150 0.904522
v 0.000000 1.590453 -1.807123
v 0.000000 1.600423 1.817093
v -1.846040 1.589901 0.000000
v 1.828648 1.600423 0.000000
v -0.890495 1.935584 -0.910435
v 0.900465 1.935584 -0.900465
v 0.900465 1.935584 0.900465
v 0.000000 1.931622 1.801252
v 0.000000 1.941592 -1.801252
v 1.826459 1.961532 0.000000
v -1.831452 1.951562 0.000000
v -0.910435 1.935584 0.900465
v 1.364342 3.539553 -0.241577
v 1.364342 3.259372 -0.241577
v 1.434388 3.642107 -0.120255
v 1.485664 3.539553 -0.209069
v 1.504433 3.399463 -0.241577
v 1.485664 3.259372 -0.209069
v 1.434388 3.156819 -0.120255
v 1.485664 3.642107 -0.068978
v 1.574479 3.539553 -0.120255
v 1.606987 3.399463 -0.139023
v 1.574479 3.259372 -0.120255
v 1.485664 3.156819 -0.068978
v 1.504433 3.642107 0.001067
v 1.606987 3.539553 0.001067
v 1.644524 3.399463 0.001067
v 1.606987 3.259372 0.001067
v 1.504433 3.156819 0.001067
v 1.485664 3.642107 0.071113
v 1.574479 3.539553 0.122389
v 1.606987 3.399463 0.141158
v 1.574479 3.259372 0.122389
v 1.485664 3.156819 0.071113
v 1.434388 3.642107 0.122389
v 1.485664 3.539553 0.211203
v 1.504433 3.399463 0.243711
v 1.485664 3.259372 0.211203
v 1.434388 3.156819 0.122389
v 1.364342 3.642107 0.141158
v 1.364342 3.539553 0.243711
v 1.364342 3.399463 0.281249
v 1.364342 3.259372 0.243711
v 1.364342 3.156819 0.141158
v 1.364342 3.679644 0.001067
v 1.294297 3.642107 0.122389
v 1.243020 3.539553 0.211203
v 1.224252 3.399463 0.243711
v 1.243020 3.259372 0.211203
v 1.294297 3.156819 0.122389
v 1.364342 3.119281 0.001067
v 1.243020 3.642107 0.071113
v 1.154207 3.539553 0.122389
v 1.121698 3.399463 0.141158
v 1.154207 3.259372 0.122389
v 1.243020 3.156819 0.071113
v 1.224252 3.642107 0.001067
v 1.121698 3.539553 0.001067
v 1.084161 3.399463 0.001067
v 1.121698 3.259372 0.001067
v 1.224252 3.156819 0.001067
v 1.243020 3.642107 -0.068978
v 1.154207 3.539553 -0.120255
v 1.121698 3.399463 -0.139023
v 1.154207 3.259372 -0.120255
v 1.243020 3.156819 -0.068978
v 1.294297 3.642107 -0.120255
v 1.243020 3.539553 -0.209069
v 1.224252 3.399463 -0.241577
v 1.243020 3.259372 -0.209069
v 1.294297 3.156819 -0.120255
v 1.364342 3.642107 -0.139023
v 1.364342 3.399463 -0.279114
v 1.364342 3.156819 -0.139023
v -1.369670 3.539553 -0.241577
v -1.369670 3.259372 -0.241577
v -1.299625 3.642107 -0.120255
v -1.248348 3.539553 -0.209069
v -1.229579 3.399463 -0.241577
v -1.248348 3.259372 -0.209069
v -1.299625 3.156819 -0.120255
v -1.248348 3.642107 -0.068978
v -1.159534 3.539553 -0.120255
v -1.127026 3.399463 -0.139023
v -1.159534 3.259372 -0.120255
v -1.248348 3.156819 -0.068978
v -1.229579 3.642107 0.001067
v -1.127026 3.539553 0.001067
v -1.089489 3.399463 0.001067
v -1.127026 3.259372 0.001067
v -1.229579 3.156819 0.001067
v -1.248348 3.642107 0.071113
v -1.159534 3.539553 0.122389
v -1.127026 3.399463 0.141158
v -1.159534 3.259372 0.122389
v -1.248348 3.156819 0.071113
v -1.299625 3.642107 0.122389
v -1.248348 3.539553 0.211203
v -1.229579 3.399463 0.243711
v -1.248348 3.259372 0.211203
v -1.299625 3.156819 0.122389
v -1.369670 3.642107 0.141158
v -1.369670 3.539553 0.243711
v -1.369670 3.399463 0.281249
v -1.369670 3.259372 0.243711
v -1.369670 3.156819 0.141158
v -1.369670 3.679644 0.001067
v -1.439715 3.642107 0.122389
v -1.490992 3.539553 0.211203
v -1.509761 3.399463 0.243711
v -1.490992 3.259372 0.211203
v -1.439715 3.156819 0.122389
v -1.369670 3.119281 0.001067
v -1.490992 3.642107 0.071113
v -1.579806 3.539553 0.122389
v -1.612314 3.399463 0.141158
v -1.579806 3.259372 0.122389
v -1.490992 3.156819 0.071113
v -1.509761 3.642107 0.001067
v -1.612314 3.539553 0.001067
v -1.649851 3.399463 0.001067
v -1.612314 3.259372 0.001067
v -1.509761 3.156819 0.001067
v -1.490992 3.642107 -0.068978
v -1.579806 3.539553 -0.120255
v -1.612314 3.399463 -0.139023
v -1.579806 3.259372 -0.120255
v -1.490992 3.156819 -0.068978
v -1.439715 3.642107 -0.120255
v -1.490992 3.539553 -0.209069
v -1.509761 3.399463 -0.241577
v -1.490992 3.259372 -0.209069
v -1.439715 3.156819 -0.120255
v -1.369670 3.642107 -0.139023
v -1.369670 3.399463 -0.279114
v -1.369670 3.156819 -0.139023
vn -0.5712 0.5790 -0.5818
vn 0.5795 0.5745 -0.5780
vn 0.5712 0.5790 0.5818
vn -0.5795 0.5745 0.5780
vn 0.5759 -0.5803 0.5759
vn -0.5759 0.5803 0.5759
vn -0.7102 0.0034 0.7040
vn 0.6995 0.0032 0.7147
vn 0.7100 -0.0328 -0.7034
vn -0.6961 0.0411 -0.7168
vn -0.7020 0.0383 -0.7112
vn 0.7103 0.0032 0.7039
vn 0.5758 0.5804 0.5758
vn -0.5758 -0.5804 0.5758
vn 0.5795 0.5745 0.5780
vn -0.5795 0.5745 -0.5780
vn -0.5758 -0.5804 -0.5758
vn 0.5758 0.5804 -0.5758
vn -0.6924 0.0409 0.7204
vn 0.6953 -0.0326 -0.7179
vn -0.5759 0.5803 -0.5759
vn 0.5759 -0.5803 -0.5759
vn 0.5712 0.5790 -0.5818
vn -0.5712 0.5790 0.5818
vn -0.4680 0.7342 0.4918
vn 0.4595 0.7382 -0.4938
vn -0.4980 0.7134 -0.4930
vn 0.5002 0.7047 0.5031
vn -0.4961 0.7067 0.5045
vn 0.4595 0.7382 0.4938
vn 0.4980 0.7134 -0.4931
vn -0.4669 0.7325 -0.4954
vn 0.4333 -0.7019 -0.5654
vn -0.4265 -0.7068 0.5644
vn 0.5628 -0.7147 0.4152
vn -0.5618 -0.7193 -0.4087
vn -0.4063 -0.7210 -0.5614
vn 0.5656 -0.7004 -0.4353
vn 0.4152 -0.7147 0.5628
vn -0.5644 -0.7068 0.4265
vn -0.6969 0.0122 -0.7171
vn 0.7086 0.0693 -0.7022
vn 0.6966 0.0316 0.7168
vn -0.7084 0.0742 0.7020
vn 0.7084 0.0742 0.7020
vn -0.7099 0.0350 -0.7035
vn 0.6966 0.0316 -0.7168
vn -0.6969 -0.0127 0.7171
vn 0.1862 -0.6947 -0.6947
vn 0.2506 0.2506 -0.9351
vn 0.0692 0.9636 -0.2582
vn 0.0692 -0.9636 -0.2582
vn 0.2506 -0.2506 -0.9351
vn 0.1862 0.6947 -0.6947
vn 0.6846 0.2506 -0.6845
vn 0.1890 0.9636 -0.1890
vn 0.1890 -0.9636 -0.1890
vn 0.6846 -0.2506 -0.6845
vn 0.5086 0.6947 -0.5086
vn 0.5086 -0.6947 -0.5086
vn 0.2582 0.9636 -0.0692
vn 0.2582 -0.9636 -0.0692
vn 0.9351 -0.2506 -0.2506
vn 0.6947 0.6947 -0.1862
vn 0.6947 -0.6947 -0.1862
vn 0.9351 0.2506 -0.2506
vn 0.2582 -0.9636 0.0692
vn 0.9351 -0.2506 0.2506
vn 0.6947 0.6947 0.1862
vn 0.6947 -0.6947 0.1862
vn 0.9351 0.2506 0.2506
vn 0.2582 0.9636 0.0692
vn 0.1890 -0.9636 0.1890
vn 0.6846 -0.2506 0.6845
vn 0.5086 0.6947 0.5086
vn 0.5086 -0.6947 0.5086
vn 0.6846 0.2506 0.6845
vn 0.1890 0.9636 0.1890
vn 0.0692 -0.9636 0.2582
vn 0.2506 -0.2506 0.9351
vn 0.1862 0.6947 0.6947
vn 0.1862 -0.6947 0.6947
vn 0.2506 0.2506 0.9351
vn 0.0692 0.9636 0.2582
vn -0.2506 -0.2506 0.9351
vn -0.1862 0.6947 0.6947
vn -0.1862 -0.6947 0.6947
vn -0.2506 0.2506 0.9351
vn -0.0692 0.9636 0.2582
vn -0.0692 -0.9636 0.2582
vn -0.5086 0.6947 0.5086
vn -0.5086 -0.6947 0.5086
vn -0.6845 0.2506 0.6846
vn -0.1890 0.9636 0.1890
vn -0.1890 -0.9636 0.1890
vn -0.6846 -0.2506 0.6845
vn -0.6947 -0.6947 0.1862
vn -0.9351 0.2506 0.2506
vn -0.2582 0.9636 0.0692
vn -0.2582 -0.9636 0.0692
vn -0.9351 -0.2506 0.2506
vn -0.6947 0.6947 0.1862
vn -0.6947 -0.6947 -0.1862
vn -0.9351 0.2506 -0.2506
vn -0.2582 0.9636 -0.0692
vn -0.2582 -0.9636 -0.0692
vn -0.9351 -0.2506 -0.2506
vn -0.6947 0.6947 -0.1862
vn -0.5086 -0.6947 -0.5086
vn -0.6845 0.2506 -0.6846
vn -0.1890 0.9636 -0.1890
vn -0.1890 -0.9636 -0.1890
vn -0.6846 -0.2506 -0.6845
vn -0.5086 0.6947 -0.5086
vn -0.1862 -0.6947 -0.6947
vn -0.2506 0.2506 -0.9351
vn -0.0692 0.9636 -0.2582
vn -0.0692 -0.9636 -0.2582
vn -0.2506 -0.2506 -0.9351
vn -0.1862 0.6947 -0.6947
vn 0.6846 0.2506 -0.6846
vn 0.6845 0.2506 0.6846
vn -0.6846 0.2506 0.6846
vn -0.6846 0.2506 -0.6846
vn -0.5891 0.5670 -0.5758
vn 0.5758 0.5670 -0.5891
vn 0.5891 0.5670 0.5758
vn -0.5758 0.5670 0.5891
vn 0.5758 -0.5804 0.5758
vn -0.5758 0.5804 0.5758
vn -0.7103 0.0027 0.7039
vn 0.6968 -0.0209 0.7170
vn 0.7099 -0.0334 -0.7035
vn -0.6964 0.0385 -0.7166
vn -0.7099 -0.0328 -0.7035
vn 0.7103 0.0027 0.7039
vn 0.5759 0.5803 0.5759
vn -0.5759 -0.5803 0.5759
vn 0.5758 0.5670 0.5891
vn -0.5758 0.5670 -0.5891
vn -0.5759 -0.5803 -0.5759
vn 0.5759 0.5803 -0.5759
vn -0.6969 0.0034 0.7171
vn 0.6968 -0.0209 -0.7170
vn -0.5758 0.5804 -0.5758
vn 0.5758 -0.5804 -0.5758
vn 0.5891 0.5670 -0.5758
vn -0.5891 0.5670 0.5758
vn -0.3766 0.7999 0.4673
vn 0.3867 0.7912 -0.4738
vn -0.4727 0.7895 -0.3915
vn 0.4713 0.7914 0.3893
vn -0.4634 0.8020 0.3768
vn 0.3867 0.7912 0.4738
vn 0.4713 0.7914 -0.3893
vn -0.3843 0.7932 -0.4723
vn 0.5222 -0.6632 -0.5362
vn -0.5112 -0.6712 0.5368
vn 0.5250 -0.6654 0.5307
vn -0.5211 -0.6680 -0.5313
vn -0.5148 -0.6760 -0.5273
vn 0.5349 -0.6613 -0.5259
vn 0.5259 -0.6678 0.5268
vn -0.5302 -0.6628 0.5287
vn -0.6947 0.0329 -0.7186
vn 0.7069 0.0346 -0.7064
vn 0.6962 0.0345 0.7170
vn -0.7033 -0.0131 0.7108
vn 0.7067 0.0346 0.7066
vn -0.7058 0.0696 -0.7050
vn 0.6962 0.0345 -0.7170
vn -0.6989 0.0122 0.7151
vn -0.6846 0.2506 0.6845
vn -0.6846 -0.2506 0.6846
vn -0.6845 -0.2506 -0.6846
vn 0.6845 -0.2506 -0.6846
vn 0.6846 -0.2506 0.6846
vn -0.6846 0.2506 -0.6845
vn -0.6846 -0.2506 -0.6846
vt 0.750000 0.062607
vt 0.718768 0.125072
vt 0.718768 0.062607
vt 0.750000 0.187536
vt 0.718768 0.250000
vt 0.718768 0.187536
vt 0.750000 0.312464
vt 0.718768 0.374928
vt 0.718768 0.312464
vt 0.750000 0.437393
vt 0.718768 0.499857
vt 0.718768 0.437393
vt 0.625072 0.312464
vt 0.562607 0.374928
vt 0.562607 0.312464
vt 0.874928 0.312464
vt 0.812464 0.374928
vt 0.812464 0.312464
vt 0.656304 0.437393
vt 0.687536 0.499857
vt 0.656304 0.499857
vt 0.656304 0.312464
vt 0.687536 0.374928
vt 0.656304 0.374928
vt 0.687536 0.187536
vt 0.656304 0.250000
vt 0.656304 0.187536
vt 0.687536 0.062607
vt 0.656304 0.125072
vt 0.656304 0.062607
vt 0.687536 0.125072
vt 0.750000 0.374928
vt 0.500143 0.312464
vt 0.500143 0.374928
vt 0.562607 0.250000
vt 0.500143 0.250000
vt 0.812464 0.250000
vt 0.750000 0.250000
vt 0.656304 0.000143
vt 0.687536 0.250000
vt 0.718768 0.000143
vt 0.703152 0.000143
vt 0.703152 0.062607
vt 0.703152 0.250000
vt 0.703152 0.312464
vt 0.703152 0.125072
vt 0.703152 0.187536
vt 0.703152 0.374928
vt 0.703152 0.437393
vt 0.703152 0.499857
vt 0.625072 0.250000
vt 0.625072 0.062607
vt 0.625072 0.000143
vt 0.625072 0.437393
vt 0.625072 0.374928
vt 0.625072 0.187536
vt 0.625072 0.125072
vt 0.625072 0.499857
vt 0.687536 0.312464
vt 0.687536 0.437393
vt 0.687536 0.000143
vt 0.083429 0.125072
vt 0.166714 0.166714
vt 0.083429 0.166714
vt 0.333286 0.125072
vt 0.250000 0.166714
vt 0.250000 0.125072
vt 0.416571 0.125072
vt 0.499857 0.145893
vt 0.416571 0.166714
vt 0.000143 0.145893
vt 0.166714 0.125072
vt 0.333286 0.166714
vt 0.250000 0.208357
vt 0.499857 0.187536
vt 0.416571 0.208357
vt 0.000143 0.187536
vt 0.083429 0.208357
vt 0.166714 0.208357
vt 0.333286 0.208357
vt 0.499857 0.229179
vt 0.416571 0.250000
vt 0.000143 0.229179
vt 0.083429 0.250000
vt 0.166714 0.250000
vt 0.333286 0.250000
vt 0.250000 0.250000
vt 0.000143 0.270821
vt 0.083429 0.291643
vt 0.250000 0.291643
vt 0.166714 0.291643
vt 0.416571 0.291643
vt 0.333286 0.291643
vt 0.499857 0.270821
vt 0.000143 0.312464
vt 0.083429 0.333286
vt 0.166714 0.333286
vt 0.416571 0.333286
vt 0.333286 0.333286
vt 0.250000 0.333286
vt 0.499857 0.312464
vt 0.000143 0.354107
vt 0.083429 0.374928
vt 0.166714 0.374928
vt 0.416571 0.374928
vt 0.333286 0.374928
vt 0.250000 0.374928
vt 0.499857 0.354107
vt 0.250000 0.416571
vt 0.166714 0.416571
vt 0.333286 0.416571
vt 0.083429 0.416571
vt 0.499857 0.395750
vt 0.416571 0.416571
vt 0.000143 0.395750
vt 0.333286 0.458214
vt 0.166714 0.458214
vt 0.083429 0.458214
vt 0.250000 0.458214
vt 0.499857 0.437393
vt 0.416571 0.458214
vt 0.000143 0.437393
vt 0.166714 0.499857
vt 0.083429 0.499857
vt 0.250000 0.499857
vt 0.499857 0.479035
vt 0.416571 0.499857
vt 0.000143 0.479035
vt 0.333286 0.499857
vt 0.166714 0.000143
vt 0.083429 0.041786
vt 0.083429 0.000143
vt 0.333286 0.000143
vt 0.250000 0.041786
vt 0.250000 0.000143
vt 0.416571 0.000143
vt 0.499857 0.020965
vt 0.416571 0.041786
vt 0.000143 0.020965
vt 0.166714 0.041786
vt 0.333286 0.041786
vt 0.083429 0.083429
vt 0.250000 0.083429
vt 0.499857 0.062607
vt 0.416571 0.083429
vt 0.000143 0.062607
vt 0.166714 0.083429
vt 0.333286 0.083429
vt 0.499857 0.104250
vt 0.000143 0.104250
vt 0.083429 0.625072
vt 0.166714 0.666714
vt 0.083429 0.666714
vt 0.333286 0.625072
vt 0.250000 0.666714
vt 0.250000 0.625072
vt 0.416571 0.625072
vt 0.499857 0.645893
vt 0.416571 0.666714
vt 0.000143 0.645893
vt 0.166714 0.625072
vt 0.333286 0.666714
vt 0.250000 0.708357
vt 0.499857 0.687536
vt 0.416571 0.708357
vt 0.000143 0.687536
vt 0.083429 0.708357
vt 0.166714 0.708357
vt 0.333286 0.708357
vt 0.499857 0.729179
vt 0.416571 0.750000
vt 0.000143 0.729179
vt 0.083429 0.750000
vt 0.166714 0.750000
vt 0.333286 0.750000
vt 0.250000 0.750000
vt 0.000143 0.770821
vt 0.083429 0.791643
vt 0.250000 0.791643
vt 0.166714 0.791643
vt 0.416571 0.791643
vt 0.333286 0.791643
vt 0.499857 0.770821
vt 0.000143 0.812464
vt 0.083429 0.833286
vt 0.250000 0.833286
vt 0.166714 0.833286
vt 0.416571 0.833286
vt 0.333286 0.833286
vt 0.499857 0.812464
vt 0.000143 0.854107
vt 0.083429 0.874928
vt 0.166714 0.874928
vt 0.416571 0.874928
vt 0.333286 0.874928
vt 0.250000 0.874928
vt 0.499857 0.854107
vt 0.250000 0.916571
vt 0.166714 0.916571
vt 0.333286 0.916571
vt 0.083429 0.916571
vt 0.499857 0.895750
vt 0.416571 0.916571
vt 0.000143 0.895750
vt 0.333286 0.958214
vt 0.166714 0.958214
vt 0.083429 0.958214
vt 0.250000 0.958214
vt 0.499857 0.937393
vt 0.416571 0.958214
vt 0.000143 0.937393
vt 0.166714 0.999857
vt 0.083429 0.999857
vt 0.250000 0.999857
vt 0.499857 0.979035
vt 0.416571 0.999857
vt 0.000143 0.979035
vt 0.333286 0.999857
vt 0.166714 0.500143
vt 0.083429 0.541786
vt 0.083429 0.500143
vt 0.333286 0.500143
vt 0.250000 0.541786
vt 0.250000 0.500143
vt 0.416571 0.500143
vt 0.499857 0.520965
vt 0.416571 0.541786
vt 0.000143 0.520965
vt 0.166714 0.541786
vt 0.333286 0.541786
vt 0.083429 0.583429
vt 0.333286 0.583429
vt 0.250000 0.583429
vt 0.499857 0.562607
vt 0.416571 0.583429
vt 0.000143 0.562607
vt 0.166714 0.583429
vt 0.499857 0.604250
vt 0.000143 0.604250
vt 0.750000 0.125072
vt 0.750000 0.499857
vt 0.874928 0.374928
vt 0.874928 0.250000
vt 0.750000 0.000143
s 0
usemtl マテリアル
f 20/1/1 28/2/1 34/3/1
f 14/4/2 29/5/2 32/6/2
f 22/7/3 30/8/3 33/9/3
f 16/10/4 27/11/4 31/12/4
f 21/13/5 15/14/5 26/15/5
f 20/16/6 16/17/6 25/18/6
f 40/19/7 9/20/7 38/21/7
f 42/22/8 12/23/8 37/24/8
f 18/25/9 36/26/9 39/27/9
f 24/28/10 35/29/10 41/30/10
f 10/31/11 39/27/11 35/29/11
f 12/23/12 40/19/12 37/24/12
f 22/7/13 16/17/13 6/32/13
f 19/33/14 15/14/14 1/34/14
f 30/8/15 16/10/15 31/12/15
f 28/2/16 14/4/16 32/6/16
f 13/35/17 19/33/17 3/36/17
f 14/37/18 22/7/18 8/38/18
f 38/39/19 24/28/19 41/30/19
f 11/40/20 42/22/20 36/26/20
f 14/37/21 20/16/21 25/18/21
f 13/35/22 21/13/22 26/15/22
f 29/5/23 22/7/23 33/9/23
f 27/41/24 20/1/24 34/3/24
f 50/42/25 34/3/25 49/43/25
f 44/44/26 33/9/26 48/45/26
f 43/46/27 32/6/27 47/47/27
f 45/48/28 31/12/28 46/49/28
f 31/12/29 50/50/29 46/49/29
f 33/9/30 45/48/30 48/45/30
f 32/6/31 44/44/31 47/47/31
f 34/3/32 43/46/32 49/43/32
f 36/26/33 21/13/33 7/51/33
f 38/39/34 19/52/34 1/53/34
f 37/24/35 15/54/35 5/55/35
f 35/29/36 13/56/36 3/57/36
f 19/52/37 35/29/37 3/57/37
f 13/56/38 36/26/38 7/51/38
f 21/13/39 37/24/39 5/55/39
f 15/54/40 38/21/40 1/58/40
f 49/43/41 10/31/41 24/28/41
f 47/47/42 11/40/42 18/25/42
f 48/45/43 12/23/43 23/59/43
f 46/49/44 9/20/44 17/60/44
f 12/23/45 46/49/45 17/60/45
f 43/46/46 18/25/46 10/31/46
f 11/40/47 48/45/47 23/59/47
f 50/42/48 24/28/48 9/61/48
f 112/62/49 56/63/49 57/64/49
f 51/65/50 55/66/50 111/67/50
f 110/68/51 83/69/51 53/70/51
f 89/71/52 112/62/52 57/64/52
f 52/72/53 55/66/53 56/63/53
f 110/68/54 54/73/54 51/65/54
f 54/73/55 60/74/55 55/66/55
f 53/70/56 83/75/56 58/76/56
f 89/77/57 57/64/57 62/78/57
f 56/63/58 60/74/58 61/79/58
f 53/70/59 59/80/59 54/73/59
f 57/64/60 61/79/60 62/78/60
f 58/76/61 83/81/61 63/82/61
f 89/83/62 62/78/62 67/84/62
f 60/74/63 66/85/63 61/79/63
f 58/76/64 64/86/64 59/80/64
f 62/78/65 66/85/65 67/84/65
f 60/74/66 64/86/66 65/87/66
f 89/88/67 67/84/67 72/89/67
f 66/85/68 70/90/68 71/91/68
f 64/86/69 68/92/69 69/93/69
f 66/85/70 72/89/70 67/84/70
f 64/86/71 70/90/71 65/87/71
f 63/82/72 83/94/72 68/92/72
f 89/95/73 72/89/73 77/96/73
f 70/90/74 76/97/74 71/91/74
f 69/93/75 73/98/75 74/99/75
f 71/91/76 77/96/76 72/89/76
f 70/90/77 74/99/77 75/100/77
f 68/92/78 83/101/78 73/98/78
f 89/102/79 77/96/79 82/103/79
f 75/100/80 81/104/80 76/97/80
f 74/99/81 78/105/81 79/106/81
f 76/97/82 82/103/82 77/96/82
f 75/100/83 79/106/83 80/107/83
f 73/98/84 83/108/84 78/105/84
f 81/104/85 86/109/85 87/110/85
f 78/105/86 85/111/86 79/106/86
f 82/103/87 87/110/87 88/112/87
f 79/106/88 86/109/88 80/107/88
f 78/105/89 83/113/89 84/114/89
f 89/115/90 82/103/90 88/112/90
f 84/114/91 91/116/91 85/111/91
f 88/112/92 93/117/92 94/118/92
f 85/111/93 92/119/93 86/109/93
f 84/114/94 83/120/94 90/121/94
f 89/122/95 88/112/95 94/118/95
f 87/110/96 92/119/96 93/117/96
f 94/118/97 98/123/97 99/124/97
f 91/116/98 97/125/98 92/119/98
f 90/121/99 83/126/99 95/127/99
f 89/128/100 94/118/100 99/124/100
f 93/117/101 97/125/101 98/123/101
f 90/121/102 96/129/102 91/116/102
f 98/130/103 104/131/103 99/132/103
f 96/133/104 102/134/104 97/135/104
f 95/136/105 83/137/105 100/138/105
f 89/139/106 99/132/106 104/131/106
f 98/130/107 102/134/107 103/140/107
f 96/133/108 100/138/108 101/141/108
f 103/140/109 109/142/109 104/131/109
f 101/141/110 107/143/110 102/134/110
f 100/138/111 83/144/111 105/145/111
f 89/146/112 104/131/112 109/142/112
f 103/140/113 107/143/113 108/147/113
f 101/141/114 105/145/114 106/148/114
f 108/147/115 112/62/115 109/142/115
f 107/143/116 51/65/116 111/67/116
f 105/145/117 83/149/117 110/68/117
f 89/150/118 109/142/118 112/62/118
f 107/143/119 52/72/119 108/147/119
f 106/148/120 110/68/120 51/65/120
f 174/151/49 118/152/49 119/153/49
f 113/154/50 117/155/50 173/156/50
f 172/157/51 145/158/51 115/159/51
f 151/160/52 174/151/52 119/153/52
f 114/161/53 117/155/53 118/152/53
f 172/157/54 116/162/54 113/154/54
f 116/162/121 122/163/121 117/155/121
f 115/159/56 145/164/56 120/165/56
f 151/166/57 119/153/57 124/167/57
f 117/155/58 123/168/58 118/152/58
f 115/159/59 121/169/59 116/162/59
f 119/153/60 123/168/60 124/167/60
f 120/165/61 145/170/61 125/171/61
f 151/172/62 124/167/62 129/173/62
f 122/163/63 128/174/63 123/168/63
f 120/165/64 126/175/64 121/169/64
f 124/167/65 128/174/65 129/173/65
f 122/163/66 126/175/66 127/176/66
f 151/177/67 129/173/67 134/178/67
f 128/174/68 132/179/68 133/180/68
f 126/175/69 130/181/69 131/182/69
f 128/174/70 134/178/70 129/173/70
f 126/175/71 132/179/71 127/176/71
f 125/171/72 145/183/72 130/181/72
f 151/184/73 134/178/73 139/185/73
f 133/180/74 137/186/74 138/187/74
f 131/182/75 135/188/75 136/189/75
f 133/180/76 139/185/76 134/178/76
f 131/182/122 137/186/122 132/179/122
f 130/181/78 145/190/78 135/188/78
f 151/191/79 139/185/79 144/192/79
f 137/186/80 143/193/80 138/187/80
f 136/189/81 140/194/81 141/195/81
f 138/187/82 144/192/82 139/185/82
f 137/186/83 141/195/83 142/196/83
f 135/188/84 145/197/84 140/194/84
f 143/193/85 148/198/85 149/199/85
f 140/194/86 147/200/86 141/195/86
f 144/192/87 149/199/87 150/201/87
f 141/195/88 148/198/88 142/196/88
f 140/194/89 145/202/89 146/203/89
f 151/204/90 144/192/90 150/201/90
f 146/203/91 153/205/91 147/200/91
f 150/201/92 155/206/92 156/207/92
f 147/200/123 154/208/123 148/198/123
f 146/203/94 145/209/94 152/210/94
f 151/211/95 150/201/95 156/207/95
f 149/199/96 154/208/96 155/206/96
f 156/207/97 160/212/97 161/213/97
f 153/205/98 159/214/98 154/208/98
f 152/210/99 145/215/99 157/216/99
f 151/217/100 156/207/100 161/213/100
f 155/206/101 159/214/101 160/212/101
f 152/210/102 158/218/102 153/205/102
f 160/219/103 166/220/103 161/221/103
f 158/222/104 164/223/104 159/224/104
f 157/225/105 145/226/105 162/227/105
f 151/228/106 161/221/106 166/220/106
f 160/219/107 164/223/107 165/229/107
f 158/222/108 162/227/108 163/230/108
f 165/229/109 171/231/109 166/220/109
f 164/223/124 168/232/124 169/233/124
f 162/227/111 145/234/111 167/235/111
f 151/236/112 166/220/112 171/231/112
f 164/223/113 170/237/113 165/229/113
f 163/230/114 167/235/114 168/232/114
f 170/237/115 174/151/115 171/231/115
f 169/233/116 113/154/116 173/156/116
f 167/235/117 145/238/117 172/157/117
f 151/239/118 171/231/118 174/151/118
f 169/233/119 114/161/119 170/237/119
f 168/232/120 172/157/120 113/154/120
f 20/1/125 4/240/125 28/2/125
f 14/4/126 8/38/126 29/5/126
f 22/7/127 6/32/127 30/8/127
f 16/10/128 2/241/128 27/11/128
f 21/13/129 5/55/129 15/14/129
f 20/16/130 2/242/130 16/17/130
f 40/19/131 17/60/131 9/20/131
f 42/22/132 23/59/132 12/23/132
f 18/25/133 11/40/133 36/26/133
f 24/28/134 10/31/134 35/29/134
f 10/31/135 18/25/135 39/27/135
f 12/23/136 17/60/136 40/19/136
f 22/7/137 25/18/137 16/17/137
f 19/33/138 26/15/138 15/14/138
f 30/8/139 6/32/139 16/10/139
f 28/2/140 4/240/140 14/4/140
f 13/35/141 26/15/141 19/33/141
f 14/37/142 25/18/142 22/7/142
f 38/39/143 9/61/143 24/28/143
f 11/40/144 23/59/144 42/22/144
f 14/37/145 4/243/145 20/16/145
f 13/35/146 7/51/146 21/13/146
f 29/5/147 8/38/147 22/7/147
f 27/41/148 2/244/148 20/1/148
f 50/42/149 27/41/149 34/3/149
f 44/44/150 29/5/150 33/9/150
f 43/46/151 28/2/151 32/6/151
f 45/48/152 30/8/152 31/12/152
f 31/12/153 27/11/153 50/50/153
f 33/9/154 30/8/154 45/48/154
f 32/6/155 29/5/155 44/44/155
f 34/3/156 28/2/156 43/46/156
f 36/26/157 42/22/157 21/13/157
f 38/39/158 41/30/158 19/52/158
f 37/24/159 40/19/159 15/54/159
f 35/29/160 39/27/160 13/56/160
f 19/52/161 41/30/161 35/29/161
f 13/56/162 39/27/162 36/26/162
f 21/13/163 42/22/163 37/24/163
f 15/54/164 40/19/164 38/21/164
f 49/43/165 43/46/165 10/31/165
f 47/47/166 44/44/166 11/40/166
f 48/45/167 45/48/167 12/23/167
f 46/49/168 50/50/168 9/20/168
f 12/23/169 45/48/169 46/49/169
f 43/46/170 47/47/170 18/25/170
f 11/40/171 44/44/171 48/45/171
f 50/42/172 49/43/172 24/28/172
f 112/62/49 52/72/49 56/63/49
f 51/65/50 54/73/50 55/66/50
f 52/72/53 111/67/53 55/66/53
f 110/68/54 53/70/54 54/73/54
f 54/73/55 59/80/55 60/74/55
f 56/63/58 55/66/58 60/74/58
f 53/70/59 58/76/59 59/80/59
f 57/64/60 56/63/60 61/79/60
f 60/74/63 65/87/63 66/85/63
f 58/76/64 63/82/64 64/86/64
f 62/78/65 61/79/65 66/85/65
f 60/74/66 59/80/66 64/86/66
f 66/85/68 65/87/68 70/90/68
f 64/86/69 63/82/69 68/92/69
f 66/85/70 71/91/70 72/89/70
f 64/86/71 69/93/71 70/90/71
f 70/90/74 75/100/74 76/97/74
f 69/93/75 68/92/75 73/98/75
f 71/91/76 76/97/76 77/96/76
f 70/90/77 69/93/77 74/99/77
f 75/100/80 80/107/80 81/104/80
f 74/99/81 73/98/81 78/105/81
f 76/97/82 81/104/82 82/103/82
f 75/100/83 74/99/83 79/106/83
f 81/104/85 80/107/85 86/109/85
f 78/105/86 84/114/86 85/111/86
f 82/103/87 81/104/87 87/110/87
f 79/106/88 85/111/88 86/109/88
f 84/114/91 90/121/91 91/116/91
f 88/112/92 87/110/92 93/117/92
f 85/111/173 91/116/173 92/119/173
f 87/110/174 86/109/174 92/119/174
f 94/118/97 93/117/97 98/123/97
f 91/116/98 96/129/98 97/125/98
f 93/117/101 92/119/101 97/125/101
f 90/121/102 95/127/102 96/129/102
f 98/130/103 103/140/103 104/131/103
f 96/133/104 101/141/104 102/134/104
f 98/130/107 97/135/107 102/134/107
f 96/133/108 95/136/108 100/138/108
f 103/140/109 108/147/109 109/142/109
f 101/141/110 106/148/110 107/143/110
f 103/140/175 102/134/175 107/143/175
f 101/141/114 100/138/114 105/145/114
f 108/147/115 52/72/115 112/62/115
f 107/143/116 106/148/116 51/65/116
f 107/143/119 111/67/119 52/72/119
f 106/148/120 105/145/120 110/68/120
f 174/151/49 114/161/49 118/152/49
f 113/154/50 116/162/50 117/155/50
f 114/161/53 173/156/53 117/155/53
f 172/157/54 115/159/54 116/162/54
f 116/162/121 121/169/121 122/163/121
f 117/155/176 122/163/176 123/168/176
f 115/159/59 120/165/59 121/169/59
f 119/153/60 118/152/60 123/168/60
f 122/163/63 127/176/63 128/174/63
f 120/165/64 125/171/64 126/175/64
f 124/167/65 123/168/65 128/174/65
f 122/163/66 121/169/66 126/175/66
f 128/174/68 127/176/68 132/179/68
f 126/175/69 125/171/69 130/181/69
f 128/174/70 133/180/70 134/178/70
f 126/175/71 131/182/71 132/179/71
f 133/180/177 132/179/177 137/186/177
f 131/182/75 130/181/75 135/188/75
f 133/180/76 138/187/76 139/185/76
f 131/182/77 136/189/77 137/186/77
f 137/186/80 142/196/80 143/193/80
f 136/189/81 135/188/81 140/194/81
f 138/187/82 143/193/82 144/192/82
f 137/186/83 136/189/83 141/195/83
f 143/193/85 142/196/85 148/198/85
f 140/194/86 146/203/86 147/200/86
f 144/192/87 143/193/87 149/199/87
f 141/195/88 147/200/88 148/198/88
f 146/203/91 152/210/91 153/205/91
f 150/201/92 149/199/92 155/206/92
f 147/200/173 153/205/173 154/208/173
f 149/199/96 148/198/96 154/208/96
f 156/207/97 155/206/97 160/212/97
f 153/205/98 158/218/98 159/214/98
f 155/206/101 154/208/101 159/214/101
f 152/210/102 157/216/102 158/218/102
f 160/219/103 165/229/103 166/220/103
f 158/222/104 163/230/104 164/223/104
f 160/219/107 159/224/107 164/223/107
f 158/222/108 157/225/108 162/227/108
f 165/229/109 170/237/109 171/231/109
f 164/223/178 163/230/178 168/232/178
f 164/223/179 169/233/179 170/237/179
f 163/230/114 162/227/114 167/235/114
f 170/237/115 114/161/115 174/151/115
f 169/233/116 168/232/116 113/154/116
f 169/233/119 173/156/119 114/161/119
f 168/232/120 167/235/120 172/157/120
