# Blender 4.1.1
# www.blender.org
mtllib bomb.mtl
o 球
v 0.000000 1.110763 -0.785550
v 0.000000 0.785377 -0.850273
v 0.000000 0.459992 -0.785550
v 0.000000 -0.000172 -0.325385
v 0.124520 1.570927 -0.300617
v 0.230082 1.386611 -0.555468
v 0.300617 1.110763 -0.725753
v 0.325385 0.785377 -0.785550
v 0.300617 0.459992 -0.725753
v 0.230082 0.184144 -0.555468
v 0.124520 -0.000172 -0.300617
v 0.230082 1.570927 -0.230082
v 0.425137 1.386611 -0.425136
v 0.555468 1.110763 -0.555468
v 0.601234 0.785377 -0.601234
v 0.555468 0.459992 -0.555468
v 0.425137 0.184144 -0.425136
v 0.230082 -0.000172 -0.230082
v 0.300617 1.570927 -0.124520
v 0.555468 1.386611 -0.230082
v 0.725753 1.110763 -0.300617
v 0.785550 0.785377 -0.325385
v 0.725753 0.459992 -0.300617
v 0.555468 0.184144 -0.230082
v 0.300617 -0.000172 -0.124520
v 0.325385 1.570927 0.000000
v 0.601234 1.386611 0.000000
v 0.785550 1.110763 0.000000
v 0.850273 0.785377 0.000000
v 0.785550 0.459992 0.000000
v 0.601234 0.184144 0.000000
v 0.325385 -0.000172 0.000000
v 0.300617 1.570927 0.124520
v 0.555467 1.386611 0.230082
v 0.725753 1.110763 0.300617
v 0.785550 0.785377 0.325386
v 0.725753 0.459992 0.300617
v 0.555467 0.184144 0.230082
v 0.300617 -0.000172 0.124520
v 0.230082 1.570927 0.230082
v 0.425136 1.386611 0.425137
v 0.555467 1.110763 0.555468
v 0.601234 0.785377 0.601234
v 0.555467 0.459992 0.555468
v 0.425136 0.184144 0.425137
v 0.230082 -0.000172 0.230082
v 0.124520 1.570927 0.300617
v 0.230082 1.386611 0.555468
v 0.300617 1.110763 0.725753
v 0.325385 0.785377 0.785550
v 0.300617 0.459992 0.725753
v 0.230082 0.184144 0.555468
v 0.124520 -0.000172 0.300617
v -0.000000 1.570927 0.325385
v -0.000000 1.386611 0.601234
v -0.000000 1.110763 0.785550
v -0.000000 0.785377 0.850273
v -0.000000 0.459992 0.785550
v -0.000000 0.184144 0.601234
v -0.000000 -0.000172 0.325385
v 0.000000 -0.064896 0.000000
v 0.000000 1.635650 0.000000
v -0.124520 1.570927 0.300617
v -0.230082 1.386611 0.555467
v -0.300617 1.110763 0.725753
v -0.325386 0.785377 0.785550
v -0.300617 0.459992 0.725753
v -0.230082 0.184144 0.555467
v -0.124520 -0.000172 0.300617
v -0.230082 1.570927 0.230082
v -0.425137 1.386611 0.425136
v -0.555468 1.110763 0.555467
v -0.601234 0.785377 0.601234
v -0.555468 0.459992 0.555467
v -0.425137 0.184144 0.425136
v -0.230082 -0.000172 0.230082
v -0.300617 1.570927 0.124519
v -0.555468 1.386611 0.230082
v -0.725753 1.110763 0.300617
v -0.785550 0.785377 0.325385
v -0.725753 0.459992 0.300617
v -0.555468 0.184144 0.230082
v -0.300617 -0.000172 0.124519
v -0.325385 1.570927 -0.000000
v -0.601234 1.386611 -0.000000
v -0.785550 1.110763 -0.000000
v -0.850273 0.785377 -0.000000
v -0.785550 0.459992 -0.000000
v -0.601234 0.184144 -0.000000
v -0.325385 -0.000172 -0.000000
v -0.300617 1.570927 -0.124520
v -0.555467 1.386611 -0.230082
v -0.725753 1.110763 -0.300617
v -0.785550 0.785377 -0.325386
v -0.725753 0.459992 -0.300617
v -0.555467 0.184144 -0.230082
v -0.300617 -0.000172 -0.124520
v -0.230082 1.570927 -0.230082
v -0.425136 1.386611 -0.425137
v -0.555467 1.110763 -0.555468
v -0.601233 0.785377 -0.601234
v -0.555467 0.459992 -0.555468
v -0.425136 0.184144 -0.425137
v -0.230082 -0.000172 -0.230082
v -0.124519 1.570927 -0.300617
v -0.230082 1.386611 -0.555468
v -0.300617 1.110763 -0.725753
v -0.325385 0.785377 -0.785550
v -0.300617 0.459992 -0.725753
v -0.230082 0.184144 -0.555468
v -0.124519 -0.000172 -0.300617
v 0.000000 1.570927 -0.325385
v 0.000000 1.386611 -0.601234
v 0.000000 0.184144 -0.601234
v 1.250000 0.830420 0.000000
v 1.176777 1.007197 0.000000
v 1.000000 1.080420 0.000000
v 0.823223 1.007197 0.000000
v 0.750000 0.830420 0.000000
v 0.823223 0.653644 0.000000
v 1.000000 0.580420 0.000000
v 1.176777 0.653644 0.000000
v 1.225982 0.830420 -0.243863
v 1.154165 1.007197 -0.229578
v 0.980785 1.080420 -0.195090
v 0.807405 1.007197 -0.160603
v 0.735589 0.830420 -0.146318
v 0.807405 0.653644 -0.160603
v 0.980785 0.580420 -0.195090
v 1.154165 0.653644 -0.229578
v 1.154850 0.830420 -0.478354
v 1.087200 1.007197 -0.450333
v 0.923880 1.080420 -0.382683
v 0.760559 1.007197 -0.315034
v 0.692910 0.830420 -0.287013
v 0.760559 0.653644 -0.315034
v 0.923880 0.580420 -0.382683
v 1.087200 0.653644 -0.450333
v 1.039337 0.830420 -0.694463
v 0.978454 1.007197 -0.653782
v 0.831470 1.080420 -0.555570
v 0.684485 1.007197 -0.457358
v 0.623602 0.830420 -0.416678
v 0.684485 0.653644 -0.457358
v 0.831470 0.580420 -0.555570
v 0.978454 0.653644 -0.653782
v 0.883883 0.830420 -0.883884
v 0.832107 1.007197 -0.832107
v 0.707107 1.080420 -0.707107
v 0.582107 1.007197 -0.582107
v 0.530330 0.830420 -0.530330
v 0.582107 0.653644 -0.582107
v 0.707107 0.580420 -0.707107
v 0.832107 0.653644 -0.832107
v 0.694463 0.830420 -1.039337
v 0.653782 1.007197 -0.978454
v 0.555570 1.080420 -0.831470
v 0.457358 1.007197 -0.684485
v 0.416678 0.830420 -0.623602
v 0.457358 0.653644 -0.684485
v 0.555570 0.580420 -0.831470
v 0.653782 0.653644 -0.978454
v 0.478355 0.830420 -1.154849
v 0.450333 1.007197 -1.087200
v 0.382684 1.080420 -0.923879
v 0.315034 1.007197 -0.760559
v 0.287013 0.830420 -0.692910
v 0.315034 0.653644 -0.760559
v 0.382684 0.580420 -0.923879
v 0.450333 0.653644 -1.087200
v 0.243863 0.830420 -1.225982
v 0.229578 1.007197 -1.154165
v 0.195090 1.080420 -0.980785
v 0.160603 1.007197 -0.807405
v 0.146318 0.830420 -0.735589
v 0.160603 0.653644 -0.807405
v 0.195090 0.580420 -0.980785
v 0.229578 0.653644 -1.154165
v 0.000000 0.830420 -1.250000
v 0.000000 1.007197 -1.176777
v 0.000000 1.080420 -1.000000
v 0.000000 1.007197 -0.823223
v 0.000000 0.830420 -0.750000
v 0.000000 0.653644 -0.823223
v 0.000000 0.580420 -1.000000
v 0.000000 0.653644 -1.176777
v -0.243863 0.830420 -1.225982
v -0.229578 1.007197 -1.154165
v -0.195090 1.080420 -0.980785
v -0.160603 1.007197 -0.807405
v -0.146318 0.830420 -0.735589
v -0.160603 0.653644 -0.807405
v -0.195090 0.580420 -0.980785
v -0.229578 0.653644 -1.154165
v -0.478354 0.830420 -1.154850
v -0.450333 1.007197 -1.087200
v -0.382684 1.080420 -0.923880
v -0.315034 1.007197 -0.760559
v -0.287013 0.830420 -0.692910
v -0.315034 0.653644 -0.760559
v -0.382684 0.580420 -0.923880
v -0.450333 0.653644 -1.087200
v -0.694462 0.830420 -1.039337
v -0.653782 1.007197 -0.978454
v -0.555570 1.080420 -0.831470
v -0.457358 1.007197 -0.684485
v -0.416678 0.830420 -0.623602
v -0.457358 0.653644 -0.684485
v -0.555570 0.580420 -0.831470
v -0.653782 0.653644 -0.978454
v -0.883884 0.830420 -0.883883
v -0.832107 1.007197 -0.832107
v -0.707107 1.080420 -0.707107
v -0.582107 1.007197 -0.582107
v -0.530330 0.830420 -0.530330
v -0.582107 0.653644 -0.582107
v -0.707107 0.580420 -0.707107
v -0.832107 0.653644 -0.832107
v -1.039337 0.830420 -0.694463
v -0.978454 1.007197 -0.653782
v -0.831470 1.080420 -0.555570
v -0.684485 1.007197 -0.457358
v -0.623602 0.830420 -0.416678
v -0.684485 0.653644 -0.457358
v -0.831470 0.580420 -0.555570
v -0.978454 0.653644 -0.653782
v -1.154850 0.830420 -0.478354
v -1.087200 1.007197 -0.450333
v -0.923880 1.080420 -0.382683
v -0.760559 1.007197 -0.315034
v -0.692910 0.830420 -0.287013
v -0.760559 0.653644 -0.315034
v -0.923880 0.580420 -0.382683
v -1.087200 0.653644 -0.450333
v -1.225982 0.830420 -0.243863
v -1.154165 1.007197 -0.229578
v -0.980785 1.080420 -0.195090
v -0.807405 1.007197 -0.160603
v -0.735589 0.830420 -0.146318
v -0.807405 0.653644 -0.160603
v -0.980785 0.580420 -0.195090
v -1.154165 0.653644 -0.229578
v -1.250000 0.830420 -0.000000
v -1.176777 1.007197 -0.000000
v -1.000000 1.080420 -0.000000
v -0.823223 1.007197 -0.000000
v -0.750000 0.830420 -0.000000
v -0.823223 0.653644 -0.000000
v -1.000000 0.580420 -0.000000
v -1.176777 0.653644 -0.000000
v -1.225982 0.830420 0.243863
v -1.154165 1.007197 0.229578
v -0.980785 1.080420 0.195090
v -0.807405 1.007197 0.160603
v -0.735589 0.830420 0.146318
v -0.807405 0.653644 0.160603
v -0.980785 0.580420 0.195090
v -1.154165 0.653644 0.229578
v -1.154850 0.830420 0.478354
v -1.087200 1.007197 0.450332
v -0.923880 1.080420 0.382683
v -0.760559 1.007197 0.315034
v -0.692910 0.830420 0.287012
v -0.760559 0.653644 0.315034
v -0.923880 0.580420 0.382683
v -1.087200 0.653644 0.450332
v -1.039337 0.830420 0.694463
v -0.978454 1.007197 0.653782
v -0.831470 1.080420 0.555570
v -0.684485 1.007197 0.457358
v -0.623602 0.830420 0.416678
v -0.684485 0.653644 0.457358
v -0.831470 0.580420 0.555570
v -0.978454 0.653644 0.653782
v -0.883884 0.830420 0.883883
v -0.832107 1.007197 0.832107
v -0.707107 1.080420 0.707107
v -0.582107 1.007197 0.582107
v -0.530330 0.830420 0.530330
v -0.582107 0.653644 0.582107
v -0.707107 0.580420 0.707107
v -0.832107 0.653644 0.832107
v -0.694463 0.830420 1.039337
v -0.653783 1.007197 0.978454
v -0.555571 1.080420 0.831469
v -0.457359 1.007197 0.684485
v -0.416678 0.830420 0.623602
v -0.457359 0.653644 0.684485
v -0.555571 0.580420 0.831469
v -0.653783 0.653644 0.978454
v -0.478354 0.830420 1.154850
v -0.450333 1.007197 1.087200
v -0.382684 1.080420 0.923880
v -0.315034 1.007197 0.760559
v -0.287013 0.830420 0.692910
v -0.315034 0.653644 0.760559
v -0.382684 0.580420 0.923880
v -0.450333 0.653644 1.087200
v -0.243863 0.830420 1.225981
v -0.229578 1.007197 1.154165
v -0.195091 1.080420 0.980785
v -0.160603 1.007197 0.807405
v -0.146318 0.830420 0.735589
v -0.160603 0.653644 0.807405
v -0.195091 0.580420 0.980785
v -0.229578 0.653644 1.154165
v 0.000000 0.830420 1.250000
v 0.000000 1.007197 1.176777
v 0.000000 1.080420 1.000000
v 0.000000 1.007197 0.823223
v 0.000000 0.830420 0.750000
v 0.000000 0.653644 0.823223
v 0.000000 0.580420 1.000000
v 0.000000 0.653644 1.176777
v 0.243863 0.830420 1.225982
v 0.229577 1.007197 1.154165
v 0.195090 1.080420 0.980785
v 0.160603 1.007197 0.807405
v 0.146318 0.830420 0.735589
v 0.160603 0.653644 0.807405
v 0.195090 0.580420 0.980785
v 0.229577 0.653644 1.154165
v 0.478355 0.830420 1.154849
v 0.450333 1.007197 1.087200
v 0.382684 1.080420 0.923879
v 0.315034 1.007197 0.760559
v 0.287013 0.830420 0.692910
v 0.315034 0.653644 0.760559
v 0.382684 0.580420 0.923879
v 0.450333 0.653644 1.087200
v 0.694463 0.830420 1.039337
v 0.653782 1.007197 0.978454
v 0.555570 1.080420 0.831470
v 0.457358 1.007197 0.684485
v 0.416678 0.830420 0.623602
v 0.457358 0.653644 0.684485
v 0.555570 0.580420 0.831470
v 0.653782 0.653644 0.978454
v 0.883883 0.830420 0.883884
v 0.832106 1.007197 0.832107
v 0.707106 1.080420 0.707107
v 0.582106 1.007197 0.582107
v 0.530330 0.830420 0.530330
v 0.582106 0.653644 0.582107
v 0.707106 0.580420 0.707107
v 0.832106 0.653644 0.832107
v 1.039337 0.830420 0.694463
v 0.978454 1.007197 0.653782
v 0.831470 1.080420 0.555570
v 0.684485 1.007197 0.457358
v 0.623602 0.830420 0.416678
v 0.684485 0.653644 0.457358
v 0.831470 0.580420 0.555570
v 0.978454 0.653644 0.653782
v 1.154849 0.830420 0.478355
v 1.087200 1.007197 0.450333
v 0.923879 1.080420 0.382684
v 0.760559 1.007197 0.315034
v 0.692910 0.830420 0.287013
v 0.760559 0.653644 0.315034
v 0.923879 0.580420 0.382684
v 1.087200 0.653644 0.450333
v 1.225982 0.830420 0.243863
v 1.154165 1.007197 0.229578
v 0.980785 1.080420 0.195090
v 0.807405 1.007197 0.160603
v 0.735589 0.830420 0.146318
v 0.807405 0.653644 0.160603
v 0.980785 0.580420 0.195090
v 1.154165 0.653644 0.229578
v 0.000000 1.595317 -0.075528
v 0.348903 1.976664 -0.075528
v 0.028903 1.595317 -0.069778
v 0.377806 1.976664 -0.069778
v 0.053406 1.595317 -0.053406
v 0.402309 1.976664 -0.053406
v 0.069778 1.595317 -0.028903
v 0.418681 1.976664 -0.028903
v 0.075528 1.595317 0.000000
v 0.424431 1.976664 0.000000
v 0.069778 1.595317 0.028903
v 0.418681 1.976664 0.028903
v 0.053406 1.595317 0.053406
v 0.402309 1.976664 0.053406
v 0.028903 1.595317 0.069778
v 0.377806 1.976664 0.069778
v 0.000000 1.595317 0.075528
v 0.348903 1.976664 0.075528
v -0.028903 1.595317 0.069778
v 0.320000 1.976664 0.069778
v -0.053406 1.595317 0.053406
v 0.295497 1.976664 0.053406
v -0.069778 1.595317 0.028903
v 0.279125 1.976664 0.028903
v -0.075528 1.595317 0.000000
v 0.273375 1.976664 0.000000
v -0.069778 1.595317 -0.028903
v 0.279125 1.976664 -0.028903
v -0.053406 1.595317 -0.053406
v 0.295497 1.976664 -0.053406
v -0.028903 1.595317 -0.069778
v 0.320000 1.976664 -0.069778
v 0.166753 1.826542 -0.075528
v 0.195656 1.826542 -0.069778
v 0.220159 1.826542 -0.053406
v 0.236531 1.826542 -0.028903
v 0.242280 1.826542 0.000000
v 0.236531 1.826542 0.028903
v 0.220159 1.826542 0.053406
v 0.195656 1.826542 0.069778
v 0.166753 1.826542 0.075528
v 0.137850 1.826542 0.069778
v 0.113347 1.826542 0.053406
v 0.096974 1.826542 0.028903
v 0.091225 1.826542 0.000000
v 0.096974 1.826542 -0.028903
v 0.113347 1.826542 -0.053406
v 0.137850 1.826542 -0.069778
v 0.091617 1.743297 -0.069778
v 0.116120 1.743297 -0.053406
v 0.132493 1.743297 -0.028903
v 0.138242 1.743297 0.000000
v 0.132493 1.743297 0.028903
v 0.116120 1.743297 0.053406
v 0.091617 1.743297 0.069778
v 0.062714 1.743297 0.075528
v 0.033811 1.743297 0.069778
v 0.009308 1.743297 0.053406
v -0.007064 1.743297 0.028903
v -0.012813 1.743297 0.000000
v -0.007064 1.743297 -0.028903
v 0.009308 1.743297 -0.053406
v 0.033811 1.743297 -0.069778
v 0.062714 1.743297 -0.075528
v 0.239371 1.896082 -0.075528
v 0.268274 1.896082 -0.069778
v 0.292777 1.896082 -0.053406
v 0.309149 1.896082 -0.028903
v 0.314898 1.896082 0.000000
v 0.309149 1.896082 0.028903
v 0.292777 1.896082 0.053406
v 0.268274 1.896082 0.069778
v 0.239371 1.896082 0.075528
v 0.210467 1.896082 0.069778
v 0.185964 1.896082 0.053406
v 0.169592 1.896082 0.028903
v 0.163843 1.896082 0.000000
v 0.169592 1.896082 -0.028903
v 0.185964 1.896082 -0.053406
v 0.210467 1.896082 -0.069778
vn 0.0388 -0.9800 -0.1949
vn 0.1632 -0.5481 -0.8203
vn 0.1915 0.1915 -0.9626
vn 0.1098 0.8264 -0.5522
vn 0.1098 -0.8264 -0.5522
vn 0.1915 -0.1915 -0.9626
vn 0.1632 0.5481 -0.8203
vn 0.0388 0.9800 -0.1949
vn 0.3128 0.8264 -0.4681
vn 0.3128 -0.8264 -0.4681
vn 0.5453 -0.1915 -0.8161
vn 0.4647 0.5481 -0.6954
vn 0.1104 0.9800 -0.1653
vn 0.1104 -0.9800 -0.1653
vn 0.4647 -0.5481 -0.6954
vn 0.5453 0.1915 -0.8161
vn 0.4681 -0.8264 -0.3128
vn 0.8161 -0.1915 -0.5453
vn 0.6954 0.5481 -0.4647
vn 0.1653 0.9800 -0.1104
vn 0.1653 -0.9800 -0.1104
vn 0.6954 -0.5481 -0.4647
vn 0.8161 0.1915 -0.5453
vn 0.4681 0.8264 -0.3128
vn 0.1949 0.9800 -0.0388
vn 0.1949 -0.9800 -0.0388
vn 0.8203 -0.5481 -0.1632
vn 0.9626 0.1915 -0.1915
vn 0.5522 0.8264 -0.1098
vn 0.5522 -0.8264 -0.1098
vn 0.9626 -0.1915 -0.1915
vn 0.8203 0.5481 -0.1632
vn 0.8203 -0.5481 0.1632
vn 0.9626 0.1915 0.1915
vn 0.5522 0.8264 0.1098
vn 0.5522 -0.8264 0.1098
vn 0.9626 -0.1915 0.1915
vn 0.8203 0.5481 0.1632
vn 0.1949 0.9800 0.0388
vn 0.1949 -0.9800 0.0388
vn 0.4681 -0.8264 0.3128
vn 0.8161 -0.1915 0.5453
vn 0.6954 0.5481 0.4647
vn 0.1653 0.9800 0.1104
vn 0.1653 -0.9800 0.1104
vn 0.6954 -0.5481 0.4647
vn 0.8161 0.1915 0.5453
vn 0.4681 0.8264 0.3128
vn 0.5453 -0.1915 0.8161
vn 0.4647 0.5481 0.6954
vn 0.1104 0.9800 0.1653
vn 0.1104 -0.9800 0.1653
vn 0.4647 -0.5481 0.6954
vn 0.5453 0.1915 0.8161
vn 0.3128 0.8264 0.4681
vn 0.3128 -0.8264 0.4681
vn 0.0388 -0.9800 0.1949
vn 0.1632 -0.5481 0.8203
vn 0.1915 0.1915 0.9626
vn 0.1098 0.8264 0.5522
vn 0.1098 -0.8264 0.5522
vn 0.1915 -0.1915 0.9626
vn 0.1632 0.5481 0.8203
vn 0.0388 0.9800 0.1949
vn -0.1915 0.1915 0.9626
vn -0.1098 0.8264 0.5522
vn -0.1098 -0.8264 0.5522
vn -0.1915 -0.1915 0.9626
vn -0.1632 0.5481 0.8203
vn -0.0388 0.9800 0.1949
vn -0.0388 -0.9800 0.1949
vn -0.1632 -0.5481 0.8203
vn -0.3128 -0.8264 0.4681
vn -0.5453 -0.1915 0.8161
vn -0.4647 0.5481 0.6954
vn -0.1104 0.9800 0.1653
vn -0.1104 -0.9800 0.1653
vn -0.4647 -0.5481 0.6954
vn -0.5453 0.1915 0.8161
vn -0.3128 0.8264 0.4681
vn -0.6954 0.5481 0.4647
vn -0.1653 0.9800 0.1104
vn -0.1653 -0.9800 0.1104
vn -0.6954 -0.5481 0.4647
vn -0.8161 0.1915 0.5453
vn -0.4681 0.8264 0.3128
vn -0.4681 -0.8264 0.3128
vn -0.8161 -0.1915 0.5453
vn -0.1949 -0.9800 0.0388
vn -0.8203 -0.5481 0.1632
vn -0.9626 0.1915 0.1915
vn -0.5522 0.8264 0.1098
vn -0.5522 -0.8264 0.1098
vn -0.9626 -0.1915 0.1915
vn -0.8203 0.5481 0.1632
vn -0.1949 0.9800 0.0388
vn -0.5522 0.8264 -0.1098
vn -0.5522 -0.8264 -0.1098
vn -0.9626 -0.1915 -0.1915
vn -0.8203 0.5481 -0.1632
vn -0.1949 0.9800 -0.0388
vn -0.1949 -0.9800 -0.0388
vn -0.8203 -0.5481 -0.1632
vn -0.9626 0.1915 -0.1915
vn -0.4681 -0.8264 -0.3128
vn -0.8161 -0.1915 -0.5453
vn -0.6954 0.5481 -0.4647
vn -0.1653 0.9800 -0.1104
vn -0.1653 -0.9800 -0.1104
vn -0.6954 -0.5481 -0.4647
vn -0.8161 0.1915 -0.5453
vn -0.4681 0.8264 -0.3128
vn -0.1104 0.9800 -0.1653
vn -0.1104 -0.9800 -0.1653
vn -0.4647 -0.5481 -0.6954
vn -0.5453 0.1915 -0.8161
vn -0.3128 0.8264 -0.4681
vn -0.3128 -0.8264 -0.4681
vn -0.5453 -0.1915 -0.8161
vn -0.4647 0.5481 -0.6954
vn -0.1632 -0.5481 -0.8203
vn -0.1915 0.1915 -0.9626
vn -0.1098 0.8264 -0.5522
vn -0.1098 -0.8264 -0.5522
vn -0.1915 -0.1915 -0.9626
vn -0.1632 0.5481 -0.8203
vn -0.0388 0.9800 -0.1949
vn -0.0388 -0.9800 -0.1949
vn 0.9201 0.3811 -0.0906
vn 0.3824 0.9232 -0.0377
vn -0.3824 0.9232 0.0377
vn -0.9201 0.3811 0.0906
vn -0.9201 -0.3811 0.0906
vn -0.3824 -0.9232 0.0377
vn 0.3824 -0.9232 -0.0377
vn 0.9201 -0.3811 -0.0906
vn 0.8847 0.3811 -0.2684
vn 0.3677 0.9232 -0.1115
vn -0.3677 0.9232 0.1115
vn -0.8847 0.3811 0.2684
vn -0.8847 -0.3811 0.2684
vn -0.3677 -0.9232 0.1115
vn 0.3677 -0.9232 -0.1115
vn 0.8847 -0.3811 -0.2684
vn 0.8154 0.3811 -0.4358
vn 0.3389 0.9232 -0.1811
vn -0.3389 0.9232 0.1811
vn -0.8154 0.3811 0.4358
vn -0.8154 -0.3811 0.4358
vn -0.3389 -0.9232 0.1811
vn 0.3389 -0.9232 -0.1811
vn 0.8154 -0.3811 -0.4358
vn 0.7147 0.3811 -0.5865
vn 0.2970 0.9232 -0.2438
vn -0.2970 0.9232 0.2438
vn -0.7147 0.3811 0.5865
vn -0.7147 -0.3811 0.5865
vn -0.2970 -0.9232 0.2438
vn 0.2970 -0.9232 -0.2438
vn 0.7147 -0.3811 -0.5865
vn 0.5865 0.3811 -0.7147
vn 0.2438 0.9232 -0.2970
vn -0.2438 0.9232 0.2970
vn -0.5865 0.3811 0.7147
vn -0.5865 -0.3811 0.7147
vn -0.2438 -0.9232 0.2970
vn 0.2438 -0.9232 -0.2970
vn 0.5865 -0.3811 -0.7147
vn 0.4358 0.3811 -0.8154
vn 0.1811 0.9232 -0.3389
vn -0.1811 0.9232 0.3389
vn -0.4358 0.3811 0.8154
vn -0.4358 -0.3811 0.8154
vn -0.1811 -0.9232 0.3389
vn 0.1811 -0.9232 -0.3389
vn 0.4358 -0.3811 -0.8154
vn 0.2684 0.3811 -0.8847
vn 0.1115 0.9232 -0.3677
vn -0.1115 0.9232 0.3677
vn -0.2684 0.3811 0.8847
vn -0.2684 -0.3811 0.8847
vn -0.1115 -0.9232 0.3677
vn 0.1115 -0.9232 -0.3677
vn 0.2684 -0.3811 -0.8847
vn 0.0906 0.3811 -0.9201
vn 0.0377 0.9232 -0.3824
vn -0.0377 0.9232 0.3824
vn -0.0906 0.3811 0.9201
vn -0.0906 -0.3811 0.9201
vn -0.0377 -0.9232 0.3824
vn 0.0377 -0.9232 -0.3824
vn 0.0906 -0.3811 -0.9201
vn -0.0906 0.3811 -0.9201
vn -0.0377 0.9232 -0.3824
vn 0.0377 0.9232 0.3824
vn 0.0906 0.3811 0.9201
vn 0.0906 -0.3811 0.9201
vn 0.0377 -0.9232 0.3824
vn -0.0377 -0.9232 -0.3824
vn -0.0906 -0.3811 -0.9201
vn -0.2684 0.3811 -0.8847
vn -0.1115 0.9232 -0.3677
vn 0.1115 0.9232 0.3677
vn 0.2684 0.3811 0.8847
vn 0.2684 -0.3811 0.8847
vn 0.1115 -0.9232 0.3677
vn -0.1115 -0.9232 -0.3677
vn -0.2684 -0.3811 -0.8847
vn -0.4358 0.3811 -0.8154
vn -0.1811 0.9232 -0.3389
vn 0.1811 0.9232 0.3389
vn 0.4358 0.3811 0.8154
vn 0.4358 -0.3811 0.8154
vn 0.1811 -0.9232 0.3389
vn -0.1811 -0.9232 -0.3389
vn -0.4358 -0.3811 -0.8154
vn -0.5865 0.3811 -0.7147
vn -0.2438 0.9232 -0.2970
vn 0.2438 0.9232 0.2970
vn 0.5865 0.3811 0.7147
vn 0.5865 -0.3811 0.7147
vn 0.2438 -0.9232 0.2970
vn -0.2438 -0.9232 -0.2970
vn -0.5865 -0.3811 -0.7147
vn -0.7147 0.3811 -0.5865
vn -0.2970 0.9232 -0.2438
vn 0.2970 0.9232 0.2438
vn 0.7147 0.3811 0.5865
vn 0.7147 -0.3811 0.5865
vn 0.2970 -0.9232 0.2438
vn -0.2970 -0.9232 -0.2438
vn -0.7147 -0.3811 -0.5865
vn -0.8154 0.3811 -0.4358
vn -0.3389 0.9232 -0.1811
vn 0.3389 0.9232 0.1811
vn 0.8154 0.3811 0.4358
vn 0.8154 -0.3811 0.4358
vn 0.3389 -0.9232 0.1811
vn -0.3389 -0.9232 -0.1811
vn -0.8154 -0.3811 -0.4358
vn -0.8847 0.3811 -0.2684
vn -0.3677 0.9232 -0.1115
vn 0.3677 0.9232 0.1115
vn 0.8847 0.3811 0.2684
vn 0.8847 -0.3811 0.2684
vn 0.3677 -0.9232 0.1115
vn -0.3677 -0.9232 -0.1115
vn -0.8847 -0.3811 -0.2684
vn -0.9201 0.3811 -0.0906
vn -0.3824 0.9232 -0.0377
vn 0.3824 0.9232 0.0377
vn 0.9201 0.3811 0.0906
vn 0.9201 -0.3811 0.0906
vn 0.3824 -0.9232 0.0377
vn -0.3824 -0.9232 -0.0377
vn -0.9201 -0.3811 -0.0906
vn 0.1886 -0.2563 -0.9480
vn 0.4434 -0.6026 -0.6635
vn 0.5510 -0.7489 -0.3682
vn 0.5885 -0.8000 -0.1171
vn 0.5885 -0.8000 0.1171
vn 0.5510 -0.7489 0.3682
vn 0.4434 -0.6026 0.6635
vn 0.1886 -0.2563 0.9480
vn -0.1886 0.2563 0.9480
vn -0.4434 0.6026 0.6635
vn -0.5510 0.7489 0.3682
vn -0.5885 0.8000 0.1171
vn -0.5885 0.8000 -0.1171
vn -0.5510 0.7489 -0.3682
vn -0.0000 1.0000 -0.0000
vn -0.4434 0.6026 -0.6635
vn -0.1886 0.2563 -0.9480
vn -0.0000 -1.0000 -0.0000
vn -0.1895 0.2369 -0.9529
vn -0.4564 0.5703 -0.6830
vn -0.5765 0.7206 -0.3852
vn -0.6200 0.7749 -0.1233
vn -0.6200 0.7749 0.1233
vn -0.5765 0.7206 0.3852
vn -0.4564 0.5703 0.6830
vn -0.1895 0.2369 0.9529
vn 0.1895 -0.2369 0.9529
vn 0.4564 -0.5703 0.6830
vn 0.5765 -0.7206 0.3852
vn 0.6200 -0.7749 0.1233
vn 0.6200 -0.7749 -0.1233
vn 0.5765 -0.7206 -0.3852
vn 0.4564 -0.5703 -0.6830
vn 0.1895 -0.2369 -0.9529
vn 0.1944 -0.0824 -0.9775
vn 0.5408 -0.2292 -0.8093
vn 0.7842 -0.3323 -0.5240
vn 0.9057 -0.3838 -0.1801
vn 0.9057 -0.3838 0.1801
vn 0.7842 -0.3323 0.5240
vn 0.5408 -0.2292 0.8093
vn 0.1944 -0.0824 0.9774
vn -0.1944 0.0824 0.9774
vn -0.5408 0.2292 0.8093
vn -0.7842 0.3323 0.5240
vn -0.9057 0.3838 0.1801
vn -0.9057 0.3838 -0.1801
vn -0.7842 0.3323 -0.5240
vn -0.5408 0.2292 -0.8093
vn -0.1944 0.0824 -0.9775
vn -0.1912 0.1996 -0.9610
vn -0.4806 0.5018 -0.7192
vn -0.6278 0.6556 -0.4195
vn -0.6852 0.7155 -0.1363
vn -0.6852 0.7155 0.1363
vn -0.6278 0.6556 0.4195
vn -0.4806 0.5018 0.7192
vn -0.1912 0.1996 0.9610
vn 0.1912 -0.1996 0.9610
vn 0.4806 -0.5018 0.7192
vn 0.6278 -0.6556 0.4195
vn 0.6852 -0.7155 0.1363
vn 0.6852 -0.7155 -0.1363
vn 0.6278 -0.6556 -0.4195
vn 0.4806 -0.5018 -0.7192
vn 0.1912 -0.1996 -0.9610
vn 0.5510 -0.7489 -0.3681
vn 0.5510 -0.7489 0.3681
vt 0.333381 0.357640
vt 0.405409 0.371609
vt 0.402055 0.386290
vt 0.439681 0.374147
vt 0.463537 0.396806
vt 0.437654 0.393776
vt 0.507872 0.374041
vt 0.487022 0.396836
vt 0.486137 0.375024
vt 0.532403 0.371588
vt 0.569844 0.380381
vt 0.535643 0.390630
vt 0.464324 0.375074
vt 0.509980 0.395230
vt 0.565344 0.366168
vt 0.635218 0.352143
vt 0.541452 0.411090
vt 0.432957 0.414817
vt 0.395808 0.401233
vt 0.461794 0.420107
vt 0.513492 0.418204
vt 0.576208 0.394752
vt 0.487830 0.421203
vt 0.425231 0.438113
vt 0.385964 0.416344
vt 0.458421 0.447109
vt 0.518958 0.444682
vt 0.586094 0.409084
vt 0.488891 0.448216
vt 0.550600 0.433432
vt 0.600478 0.422868
vt 0.371373 0.431254
vt 0.412758 0.464655
vt 0.527627 0.475913
vt 0.490394 0.482548
vt 0.564765 0.458421
vt 0.452663 0.478906
vt 0.442967 0.520032
vt 0.392208 0.496516
vt 0.541868 0.514187
vt 0.493304 0.526937
vt 0.585990 0.485594
vt 0.350273 0.444955
vt 0.621627 0.434369
vt 0.320274 0.454805
vt 0.423367 0.578562
vt 0.567806 0.568618
vt 0.649422 0.441940
vt 0.359242 0.533129
vt 0.497288 0.589193
vt 0.622828 0.517629
vt 0.388040 0.662783
vt 0.613365 0.643970
vt 0.687566 0.439650
vt 0.277950 0.455660
vt 0.298368 0.577198
vt 0.504392 0.680070
vt 0.683966 0.550909
vt 0.279803 0.268131
vt 0.317647 0.265075
vt 0.277950 0.154133
vt 0.404404 0.134651
vt 0.343429 0.186432
vt 0.474663 0.000115
vt 0.554695 0.128383
vt 0.478638 0.114536
vt 0.691572 0.260040
vt 0.617625 0.179224
vt 0.687050 0.137948
vt 0.349580 0.050119
vt 0.599579 0.044145
vt 0.651902 0.257912
vt 0.533054 0.185585
vt 0.480885 0.179483
vt 0.621608 0.266588
vt 0.581581 0.214227
vt 0.346874 0.272611
vt 0.429586 0.189417
vt 0.382408 0.219866
vt 0.367856 0.284956
vt 0.443907 0.230379
vt 0.520548 0.228455
vt 0.600200 0.279211
vt 0.405845 0.248993
vt 0.482129 0.224849
vt 0.560754 0.243923
vt 0.513962 0.260647
vt 0.585089 0.293459
vt 0.383747 0.298675
vt 0.452382 0.262280
vt 0.419769 0.273656
vt 0.483075 0.258936
vt 0.547497 0.270210
vt 0.394061 0.313359
vt 0.457700 0.289008
vt 0.429076 0.296277
vt 0.510001 0.287744
vt 0.483794 0.286900
vt 0.538951 0.293751
vt 0.575706 0.308338
vt 0.534086 0.314603
vt 0.400849 0.328043
vt 0.461069 0.312436
vt 0.507773 0.311327
vt 0.569095 0.322978
vt 0.434945 0.316918
vt 0.484388 0.311132
vt 0.404798 0.342605
vt 0.463108 0.333917
vt 0.506792 0.332882
vt 0.565409 0.337451
vt 0.438378 0.336344
vt 0.484912 0.333179
vt 0.531585 0.334119
vt 0.564218 0.351814
vt 0.406279 0.357089
vt 0.464137 0.354477
vt 0.439891 0.355210
vt 0.506824 0.353518
vt 0.485371 0.354138
vt 0.531054 0.352935
vt 0.062712 0.251736
vt 0.038480 0.217907
vt 0.064393 0.219446
vt 0.036098 0.250547
vt 0.008175 0.215309
vt 0.273705 0.247466
vt 0.233889 0.216114
vt 0.271460 0.212670
vt 0.236750 0.249679
vt 0.193161 0.219062
vt 0.153670 0.253116
vt 0.152683 0.221002
vt 0.118022 0.252882
vt 0.118592 0.221140
vt 0.089103 0.252471
vt 0.089744 0.220518
vt 0.034675 0.283742
vt 0.006420 0.248520
vt 0.237621 0.283635
vt 0.194715 0.251734
vt 0.154333 0.285809
vt 0.088225 0.285150
vt 0.060764 0.318176
vt 0.061370 0.284720
vt 0.002480 0.316688
vt 0.003187 0.282274
vt 0.275768 0.282204
vt 0.238837 0.317674
vt 0.195868 0.284983
vt 0.155049 0.318936
vt 0.118182 0.285562
vt 0.118287 0.318747
vt 0.087615 0.318382
vt 0.059971 0.351715
vt 0.033342 0.317554
vt 0.032459 0.351478
vt 0.276802 0.351771
vt 0.276543 0.317323
vt 0.196894 0.352585
vt 0.196549 0.318557
vt 0.117890 0.352199
vt 0.087593 0.352029
vt 0.059895 0.385640
vt 0.000115 0.385132
vt 0.002082 0.350611
vt 0.240217 0.385842
vt 0.239530 0.351704
vt 0.197125 0.386484
vt 0.154236 0.352359
vt 0.154680 0.386203
vt 0.118152 0.385847
vt 0.059633 0.419848
vt 0.032252 0.385627
vt 0.031952 0.420032
vt 0.277720 0.420122
vt 0.276925 0.385679
vt 0.239584 0.420188
vt 0.154812 0.420071
vt 0.117631 0.419676
vt 0.087274 0.419669
vt 0.087082 0.385774
vt 0.032055 0.454271
vt 0.000425 0.420029
vt 0.277441 0.455172
vt 0.239888 0.454433
vt 0.197043 0.420256
vt 0.155126 0.453952
vt 0.087134 0.453696
vt 0.059474 0.454044
vt 0.032372 0.488406
vt 0.001420 0.488821
vt 0.000840 0.454495
vt 0.239756 0.488515
vt 0.197573 0.453984
vt 0.197176 0.487796
vt 0.155604 0.487603
vt 0.117992 0.453655
vt 0.118365 0.487582
vt 0.087247 0.487739
vt 0.060405 0.521733
vt 0.059875 0.488019
vt 0.033049 0.522396
vt 0.275838 0.522868
vt 0.276673 0.489495
vt 0.239811 0.522357
vt 0.154887 0.521185
vt 0.118239 0.521350
vt 0.087820 0.521588
vt 0.060899 0.555458
vt 0.003287 0.556608
vt 0.002300 0.522924
vt 0.238751 0.555885
vt 0.197261 0.521628
vt 0.197233 0.555245
vt 0.155721 0.554807
vt 0.118722 0.554995
vt 0.060988 0.589085
vt 0.033731 0.556069
vt 0.034266 0.589406
vt 0.275115 0.589984
vt 0.275855 0.556346
vt 0.238887 0.589254
vt 0.155266 0.588231
vt 0.118700 0.588520
vt 0.088125 0.588709
vt 0.087747 0.555223
vt 0.034667 0.622402
vt 0.004197 0.589868
vt 0.274484 0.622477
vt 0.239246 0.622414
vt 0.197240 0.588789
vt 0.154731 0.621771
vt 0.118829 0.621846
vt 0.088484 0.622111
vt 0.061318 0.622369
vt 0.034770 0.655344
vt 0.005584 0.655197
vt 0.004997 0.622723
vt 0.238757 0.655560
vt 0.197052 0.655743
vt 0.197419 0.622333
vt 0.155209 0.655313
vt 0.118578 0.655154
vt 0.088766 0.655344
vt 0.061851 0.655463
vt 0.034672 0.688544
vt 0.275033 0.655005
vt 0.238437 0.688950
vt 0.155708 0.688620
vt 0.088559 0.688632
vt 0.061917 0.722040
vt 0.061748 0.688635
vt 0.003203 0.722078
vt 0.004394 0.688087
vt 0.275616 0.688791
vt 0.239168 0.722513
vt 0.196814 0.688954
vt 0.197174 0.722108
vt 0.154896 0.721998
vt 0.119123 0.688585
vt 0.119090 0.721872
vt 0.088765 0.721991
vt 0.034678 0.755812
vt 0.034753 0.722193
vt 0.275477 0.756092
vt 0.275281 0.722518
vt 0.238440 0.755917
vt 0.155293 0.755371
vt 0.089000 0.755314
vt 0.062094 0.789142
vt 0.061728 0.755662
vt 0.004751 0.789410
vt 0.004057 0.756079
vt 0.238950 0.789257
vt 0.196773 0.755389
vt 0.155757 0.788509
vt 0.118776 0.755146
vt 0.119305 0.788491
vt 0.035146 0.823093
vt 0.034664 0.789364
vt 0.274894 0.789554
vt 0.238036 0.822292
vt 0.197185 0.788699
vt 0.197459 0.821855
vt 0.156416 0.821526
vt 0.089204 0.822228
vt 0.089064 0.788692
vt 0.062904 0.856218
vt 0.062130 0.822556
vt 0.035533 0.856848
vt 0.003793 0.823313
vt 0.273704 0.856643
vt 0.274834 0.823013
vt 0.197014 0.854479
vt 0.119840 0.855191
vt 0.119803 0.821867
vt 0.090022 0.855703
vt 0.063267 0.890031
vt 0.035755 0.890571
vt 0.004963 0.857306
vt 0.272148 0.889269
vt 0.237837 0.855201
vt 0.237440 0.887891
vt 0.156093 0.887062
vt 0.156044 0.854411
vt 0.120963 0.888219
vt 0.090629 0.889156
vt 0.063825 0.924396
vt 0.004626 0.924059
vt 0.005813 0.890517
vt 0.235827 0.919725
vt 0.196631 0.886648
vt 0.196914 0.918137
vt 0.157704 0.919136
vt 0.122475 0.921303
vt 0.035062 0.959798
vt 0.035984 0.924713
vt 0.270721 0.921814
vt 0.233567 0.950273
vt 0.160173 0.950178
vt 0.093817 0.958433
vt 0.091778 0.923157
vt 0.064318 0.960470
vt 0.032204 0.997778
vt 0.000115 0.991140
vt 0.003911 0.957783
vt 0.261195 0.987122
vt 0.267536 0.955009
vt 0.197616 0.975407
vt 0.197257 0.948061
vt 0.131255 0.988411
vt 0.125491 0.954836
vt 0.098557 0.996747
vt 0.120692 0.040385
vt 0.113119 0.032864
vt 0.121525 0.036712
vt 0.125185 0.033256
vt 0.123307 0.004771
vt 0.130069 0.034985
vt 0.138998 0.029850
vt 0.131631 0.039939
vt 0.131078 0.048361
vt 0.129081 0.043545
vt 0.124131 0.049069
vt 0.125270 0.044017
vt 0.118443 0.046642
vt 0.122263 0.042846
vt 0.105266 0.047777
vt 0.114849 0.041529
vt 0.087995 0.012116
vt 0.156923 0.030032
vt 0.137662 0.042322
vt 0.146773 0.048640
vt 0.134199 0.056619
vt 0.122738 0.057482
vt 0.094563 0.060720
vt 0.097778 0.036631
vt 0.063706 0.032143
vt 0.196035 0.014472
vt 0.160923 0.000115
vt 0.157086 0.060786
vt 0.121315 0.070194
vt 0.113310 0.054292
vt 0.067299 0.070978
vt 0.081403 0.050009
vt 0.042139 0.056571
vt 0.194516 0.062711
vt 0.176815 0.042114
vt 0.166975 0.078709
vt 0.137857 0.069259
vt 0.141737 0.086549
vt 0.120062 0.087404
vt 0.107683 0.066911
vt 0.102365 0.084665
vt 0.085806 0.079460
vt 0.057044 0.096584
vt 0.241237 0.073813
vt 0.222832 0.041424
vt 0.208489 0.088937
vt 0.175343 0.101365
vt 0.119325 0.109123
vt 0.097981 0.106886
vt 0.078072 0.102879
vt 0.049579 0.125122
vt 0.030002 0.087360
vt 0.253585 0.107871
vt 0.218543 0.118673
vt 0.147156 0.132544
vt 0.144704 0.107682
vt 0.118992 0.133950
vt 0.094873 0.132253
vt 0.073028 0.129434
vt 0.044663 0.155121
vt 0.016401 0.150815
vt 0.021781 0.118902
vt 0.225411 0.150256
vt 0.181996 0.127638
vt 0.186396 0.156473
vt 0.150142 0.160442
vt 0.118729 0.161180
vt 0.092463 0.159973
vt 0.069013 0.158040
vt 0.040952 0.186035
vt 0.267429 0.177877
vt 0.262089 0.142821
vt 0.230898 0.182828
vt 0.151040 0.189795
vt 0.118376 0.190440
vt 0.091133 0.189779
vt 0.066169 0.188108
vt 0.012720 0.182678
vt 0.190290 0.187227
vt 0.759967 0.081762
vt 0.766717 0.074227
vt 0.771632 0.072669
vt 0.758995 0.080787
vt 0.762947 0.074979
vt 0.758278 0.080475
vt 0.760225 0.075325
vt 0.757981 0.080168
vt 0.758159 0.075513
vt 0.757570 0.079985
vt 0.756313 0.075708
vt 0.757355 0.080028
vt 0.754406 0.075881
vt 0.756974 0.080016
vt 0.752213 0.076018
vt 0.756520 0.080188
vt 0.749683 0.076141
vt 0.755655 0.080538
vt 0.746756 0.076608
vt 0.754819 0.081386
vt 0.743496 0.078046
vt 0.754471 0.082914
vt 0.740347 0.080936
vt 0.754821 0.084835
vt 0.738055 0.085347
vt 0.737501 0.090985
vt 0.756750 0.086133
vt 0.739475 0.096696
vt 0.759666 0.086703
vt 0.743750 0.100894
vt 0.761628 0.085092
vt 0.777131 0.070343
vt 0.719500 0.036280
vt 0.711949 0.035862
vt 0.691802 0.000115
vt 0.773790 0.045171
vt 0.756346 0.020348
vt 0.757333 0.010762
vt 0.715237 0.088015
vt 0.691802 0.064916
vt 0.697327 0.059054
vt 0.717641 0.080404
vt 0.703345 0.055679
vt 0.721598 0.074730
vt 0.708437 0.053832
vt 0.712905 0.052891
vt 0.717003 0.052431
vt 0.726244 0.070902
vt 0.721030 0.052306
vt 0.731202 0.068680
vt 0.725294 0.052445
vt 0.736154 0.067798
vt 0.729953 0.052447
vt 0.740794 0.067790
vt 0.734943 0.051632
vt 0.744990 0.067938
vt 0.739951 0.049591
vt 0.748825 0.067743
vt 0.744664 0.046223
vt 0.752435 0.067081
vt 0.759645 0.064142
vt 0.749048 0.041587
vt 0.763603 0.061295
vt 0.752629 0.035555
vt 0.767385 0.057080
vt 0.755020 0.028376
vt 0.770554 0.051637
vt 0.721353 0.018268
vt 0.713336 0.010131
vt 0.724407 0.023576
vt 0.725020 0.028508
vt 0.724720 0.031653
vt 0.723374 0.034112
vt 0.721615 0.035618
vt 0.717628 0.037271
vt 0.715731 0.037424
vt 0.713803 0.037086
vt 0.709101 0.035036
vt 0.706078 0.032568
vt 0.700824 0.025995
vt 0.715296 0.096686
vt 0.755960 0.065924
vt 0.065187 0.999885
vt 0.230013 0.978659
vt 0.164050 0.979848
vt 0.757771 0.080032
s 0
usemtl マテリアル.001
f 61/1/1 4/2/1 11/3/1
f 114/4/2 9/5/2 10/6/2
f 1/7/3 8/8/3 2/9/3
f 113/10/4 5/11/4 6/12/4
f 114/4/5 11/3/5 4/2/5
f 2/9/6 9/5/6 3/13/6
f 113/10/7 7/14/7 1/7/7
f 112/15/8 62/16/8 5/11/8
f 5/11/9 13/17/9 6/12/9
f 11/3/10 17/18/10 18/19/10
f 8/8/11 16/20/11 9/5/11
f 7/14/12 13/17/12 14/21/12
f 5/11/13 62/16/13 12/22/13
f 61/1/14 11/3/14 18/19/14
f 9/5/15 17/18/15 10/6/15
f 8/8/16 14/21/16 15/23/16
f 18/19/17 24/24/17 25/25/17
f 15/23/18 23/26/18 16/20/18
f 13/17/19 21/27/19 14/21/19
f 12/22/20 62/16/20 19/28/20
f 61/1/21 18/19/21 25/25/21
f 16/20/22 24/24/22 17/18/22
f 15/23/23 21/27/23 22/29/23
f 12/22/24 20/30/24 13/17/24
f 19/28/25 62/16/25 26/31/25
f 61/1/26 25/25/26 32/32/26
f 23/26/27 31/33/27 24/24/27
f 22/29/28 28/34/28 29/35/28
f 19/28/29 27/36/29 20/30/29
f 24/24/30 32/32/30 25/25/30
f 22/29/31 30/37/31 23/26/31
f 20/30/32 28/34/32 21/27/32
f 31/33/33 37/38/33 38/39/33
f 29/35/34 35/40/34 36/41/34
f 26/31/35 34/42/35 27/36/35
f 31/33/36 39/43/36 32/32/36
f 29/35/37 37/38/37 30/37/37
f 27/36/38 35/40/38 28/34/38
f 26/31/39 62/16/39 33/44/39
f 61/1/40 32/32/40 39/43/40
f 38/39/41 46/45/41 39/43/41
f 36/41/42 44/46/42 37/38/42
f 34/42/43 42/47/43 35/40/43
f 33/44/44 62/16/44 40/48/44
f 61/1/45 39/43/45 46/45/45
f 38/39/46 44/46/46 45/49/46
f 36/41/47 42/47/47 43/50/47
f 34/42/48 40/48/48 41/51/48
f 43/50/49 51/52/49 44/46/49
f 41/51/50 49/53/50 42/47/50
f 40/48/51 62/16/51 47/54/51
f 61/1/52 46/45/52 53/55/52
f 45/49/53 51/52/53 52/56/53
f 43/50/54 49/53/54 50/57/54
f 40/48/55 48/58/55 41/51/55
f 45/49/56 53/55/56 46/45/56
f 61/1/57 53/59/57 60/60/57
f 52/61/58 58/62/58 59/63/58
f 50/64/59 56/65/59 57/66/59
f 47/67/60 55/68/60 48/69/60
f 53/59/61 59/63/61 60/60/61
f 50/64/62 58/62/62 51/70/62
f 48/69/63 56/65/63 49/71/63
f 47/67/64 62/16/64 54/72/64
f 57/66/65 65/73/65 66/74/65
f 55/68/66 63/75/66 64/76/66
f 59/63/67 69/77/67 60/60/67
f 57/66/68 67/78/68 58/62/68
f 55/68/69 65/73/69 56/65/69
f 54/72/70 62/16/70 63/75/70
f 61/1/71 60/60/71 69/77/71
f 59/63/72 67/78/72 68/79/72
f 68/79/73 76/80/73 69/77/73
f 66/74/74 74/81/74 67/78/74
f 64/76/75 72/82/75 65/73/75
f 63/75/76 62/16/76 70/83/76
f 61/1/77 69/77/77 76/80/77
f 68/79/78 74/81/78 75/84/78
f 66/74/79 72/82/79 73/85/79
f 64/76/80 70/83/80 71/86/80
f 71/86/81 79/87/81 72/82/81
f 70/83/82 62/16/82 77/88/82
f 61/1/83 76/80/83 83/89/83
f 75/84/84 81/90/84 82/91/84
f 73/85/85 79/87/85 80/92/85
f 70/83/86 78/93/86 71/86/86
f 75/84/87 83/89/87 76/80/87
f 73/85/88 81/90/88 74/81/88
f 61/1/89 83/89/89 90/94/89
f 82/91/90 88/95/90 89/96/90
f 80/92/91 86/97/91 87/98/91
f 77/88/92 85/99/92 78/93/92
f 83/89/93 89/96/93 90/94/93
f 80/92/94 88/95/94 81/90/94
f 78/93/95 86/97/95 79/87/95
f 77/88/96 62/16/96 84/100/96
f 84/100/97 92/101/97 85/99/97
f 89/96/98 97/102/98 90/94/98
f 87/98/99 95/103/99 88/95/99
f 85/99/100 93/104/100 86/97/100
f 84/100/101 62/16/101 91/105/101
f 61/1/102 90/94/102 97/102/102
f 89/96/103 95/103/103 96/106/103
f 87/98/104 93/104/104 94/107/104
f 96/106/105 104/108/105 97/102/105
f 94/107/106 102/109/106 95/103/106
f 92/101/107 100/110/107 93/104/107
f 91/105/108 62/16/108 98/111/108
f 61/1/109 97/102/109 104/108/109
f 96/106/110 102/109/110 103/112/110
f 94/107/111 100/110/111 101/113/111
f 91/105/112 99/114/112 92/101/112
f 98/111/113 62/16/113 105/115/113
f 61/1/114 104/108/114 111/116/114
f 103/112/115 109/117/115 110/118/115
f 101/113/116 107/119/116 108/120/116
f 98/111/117 106/121/117 99/114/117
f 104/108/118 110/118/118 111/116/118
f 101/113/119 109/117/119 102/109/119
f 99/114/120 107/119/120 100/110/120
f 110/118/121 3/13/121 114/4/121
f 108/120/122 1/7/122 2/9/122
f 105/115/123 113/10/123 106/121/123
f 110/118/124 4/2/124 111/116/124
f 108/120/125 3/13/125 109/117/125
f 106/121/126 1/7/126 107/119/126
f 105/115/127 62/16/127 112/15/127
f 61/1/128 111/116/128 4/2/128
f 123/122/129 116/123/129 115/124/129
f 124/125/130 117/126/130 116/123/130
f 125/127/131 118/128/131 117/129/131
f 126/130/132 119/131/132 118/128/132
f 119/131/133 128/132/133 120/133/133
f 120/133/134 129/134/134 121/135/134
f 121/135/135 130/136/135 122/137/135
f 122/137/136 123/122/136 115/124/136
f 123/122/137 132/138/137 124/125/137
f 132/138/138 125/139/138 124/125/138
f 125/127/139 134/140/139 126/130/139
f 134/140/140 127/141/140 126/130/140
f 127/141/141 136/142/141 128/132/141
f 136/142/142 129/134/142 128/132/142
f 129/134/143 138/143/143 130/136/143
f 138/143/144 123/122/144 130/136/144
f 139/144/145 132/138/145 131/145/145
f 132/138/146 141/146/146 133/147/146
f 133/148/147 142/149/147 134/140/147
f 142/149/148 135/150/148 134/140/148
f 135/150/149 144/151/149 136/142/149
f 144/151/150 137/152/150 136/142/150
f 145/153/151 138/143/151 137/152/151
f 146/154/152 131/145/152 138/143/152
f 147/155/153 140/156/153 139/144/153
f 148/157/154 141/146/154 140/156/154
f 149/158/155 142/149/155 141/159/155
f 142/149/156 151/160/156 143/161/156
f 151/160/157 144/151/157 143/161/157
f 144/151/158 153/162/158 145/153/158
f 145/153/159 154/163/159 146/154/159
f 146/154/160 147/155/160 139/144/160
f 155/164/161 148/157/161 147/155/161
f 148/157/162 157/165/162 149/166/162
f 149/158/163 158/167/163 150/168/163
f 150/168/164 159/169/164 151/160/164
f 159/169/165 152/170/165 151/160/165
f 160/171/166 153/162/166 152/170/166
f 161/172/167 154/163/167 153/162/167
f 154/163/168 155/164/168 147/155/168
f 163/173/169 156/174/169 155/164/169
f 164/175/170 157/165/170 156/174/170
f 165/176/171 158/167/171 157/177/171
f 166/178/172 159/169/172 158/167/172
f 159/169/173 168/179/173 160/171/173
f 160/171/174 169/180/174 161/172/174
f 161/172/175 170/181/175 162/182/175
f 162/182/176 163/173/176 155/164/176
f 163/173/177 172/183/177 164/175/177
f 172/183/178 165/184/178 164/175/178
f 173/185/179 166/178/179 165/176/179
f 174/186/180 167/187/180 166/178/180
f 167/187/181 176/188/181 168/179/181
f 176/188/182 169/180/182 168/179/182
f 169/180/183 178/189/183 170/181/183
f 178/189/184 163/173/184 170/181/184
f 171/190/185 180/191/185 172/183/185
f 172/183/186 181/192/186 173/193/186
f 173/185/187 182/194/187 174/186/187
f 182/194/188 175/195/188 174/186/188
f 183/196/189 176/188/189 175/195/189
f 184/197/190 177/198/190 176/188/190
f 185/199/191 178/189/191 177/198/191
f 186/200/192 171/190/192 178/189/192
f 187/201/193 180/191/193 179/202/193
f 188/203/194 181/192/194 180/191/194
f 189/204/195 182/194/195 181/205/195
f 190/206/196 183/196/196 182/194/196
f 183/196/197 192/207/197 184/197/197
f 184/197/198 193/208/198 185/199/198
f 185/199/199 194/209/199 186/200/199
f 186/200/200 187/201/200 179/202/200
f 195/210/201 188/203/201 187/201/201
f 188/203/202 197/211/202 189/212/202
f 189/204/203 198/213/203 190/206/203
f 198/213/204 191/214/204 190/206/204
f 199/215/205 192/207/205 191/214/205
f 200/216/206 193/208/206 192/207/206
f 201/217/207 194/209/207 193/208/207
f 194/209/208 195/210/208 187/201/208
f 203/218/209 196/219/209 195/210/209
f 204/220/210 197/211/210 196/219/210
f 205/221/211 198/213/211 197/222/211
f 206/223/212 199/215/212 198/213/212
f 199/215/213 208/224/213 200/216/213
f 200/216/214 209/225/214 201/217/214
f 201/217/215 210/226/215 202/227/215
f 202/227/216 203/218/216 195/210/216
f 203/218/217 212/228/217 204/220/217
f 212/228/218 205/229/218 204/220/218
f 213/230/219 206/223/219 205/221/219
f 214/231/220 207/232/220 206/223/220
f 207/232/221 216/233/221 208/224/221
f 208/224/222 217/234/222 209/225/222
f 209/225/223 218/235/223 210/226/223
f 218/235/224 203/218/224 210/226/224
f 211/236/225 220/237/225 212/228/225
f 212/228/226 221/238/226 213/239/226
f 213/230/227 222/240/227 214/231/227
f 214/231/228 223/241/228 215/242/228
f 223/241/229 216/233/229 215/242/229
f 224/243/230 217/234/230 216/233/230
f 225/244/231 218/235/231 217/234/231
f 226/245/232 211/236/232 218/235/232
f 219/246/233 228/247/233 220/237/233
f 228/247/234 221/238/234 220/237/234
f 221/248/235 230/249/235 222/240/235
f 230/249/236 223/241/236 222/240/236
f 223/241/237 232/250/237 224/243/237
f 232/250/238 225/244/238 224/243/238
f 225/244/239 234/251/239 226/245/239
f 234/251/240 219/246/240 226/245/240
f 235/252/241 228/247/241 227/253/241
f 228/247/242 237/254/242 229/255/242
f 229/256/243 238/257/243 230/249/243
f 238/257/244 231/258/244 230/249/244
f 239/259/245 232/250/245 231/258/245
f 240/260/246 233/261/246 232/250/246
f 241/262/247 234/251/247 233/261/247
f 242/263/248 227/253/248 234/251/248
f 235/252/249 244/264/249 236/265/249
f 244/264/250 237/254/250 236/265/250
f 245/266/251 238/257/251 237/267/251
f 246/268/252 239/259/252 238/257/252
f 239/259/253 248/269/253 240/260/253
f 248/269/254 241/262/254 240/260/254
f 241/262/255 250/270/255 242/263/255
f 250/270/256 235/252/256 242/263/256
f 251/271/132 244/264/132 243/272/132
f 244/264/131 253/273/131 245/274/131
f 245/266/130 254/275/130 246/268/130
f 254/275/129 247/276/129 246/268/129
f 247/276/136 256/277/136 248/269/136
f 256/277/135 249/278/135 248/269/135
f 257/279/134 250/270/134 249/278/134
f 250/270/133 251/271/133 243/272/133
f 251/271/140 260/280/140 252/281/140
f 260/280/139 253/273/139 252/281/139
f 253/282/138 262/283/138 254/275/138
f 262/283/137 255/284/137 254/275/137
f 263/285/144 256/277/144 255/284/144
f 264/286/143 257/279/143 256/277/143
f 257/279/142 266/287/142 258/288/142
f 266/287/141 251/271/141 258/288/141
f 267/289/148 260/280/148 259/290/148
f 268/291/147 261/292/147 260/280/147
f 269/293/146 262/283/146 261/294/146
f 262/283/145 271/295/145 263/285/145
f 271/295/152 264/286/152 263/285/152
f 264/286/151 273/296/151 265/297/151
f 265/297/150 274/298/150 266/287/150
f 266/287/149 267/289/149 259/290/149
f 275/299/156 268/291/156 267/289/156
f 276/300/155 269/301/155 268/291/155
f 277/302/154 270/303/154 269/293/154
f 278/304/153 271/295/153 270/303/153
f 271/295/160 280/305/160 272/306/160
f 272/306/159 281/307/159 273/296/159
f 273/296/158 282/308/158 274/298/158
f 274/298/157 275/299/157 267/289/157
f 283/309/164 276/300/164 275/299/164
f 276/300/163 285/310/163 277/311/163
f 277/302/162 286/312/162 278/304/162
f 286/312/161 279/313/161 278/304/161
f 287/314/168 280/305/168 279/313/168
f 288/315/167 281/307/167 280/305/167
f 289/316/166 282/308/166 281/307/166
f 282/308/165 283/309/165 275/299/165
f 283/309/172 292/317/172 284/318/172
f 292/317/171 285/310/171 284/318/171
f 285/319/170 294/320/170 286/312/170
f 294/320/169 287/314/169 286/312/169
f 287/314/176 296/321/176 288/315/176
f 296/321/175 289/316/175 288/315/175
f 289/316/174 298/322/174 290/323/174
f 298/322/173 283/309/173 290/323/173
f 291/324/180 300/325/180 292/317/180
f 292/317/179 301/326/179 293/327/179
f 301/328/178 294/320/178 293/329/178
f 294/320/177 303/330/177 295/331/177
f 303/330/184 296/321/184 295/331/184
f 296/321/183 305/332/183 297/333/183
f 305/332/182 298/322/182 297/333/182
f 306/334/181 291/324/181 298/322/181
f 299/335/188 308/336/188 300/337/188
f 308/336/187 301/338/187 300/337/187
f 309/339/186 302/340/186 301/338/186
f 310/341/185 303/342/185 302/340/185
f 303/342/192 312/343/192 304/344/192
f 304/344/191 313/345/191 305/346/191
f 305/346/190 314/347/190 306/348/190
f 314/347/189 299/335/189 306/348/189
f 315/349/196 308/336/196 307/350/196
f 308/336/195 317/351/195 309/339/195
f 309/339/194 318/352/194 310/341/194
f 318/352/193 311/353/193 310/341/193
f 319/354/200 312/343/200 311/353/200
f 320/355/199 313/345/199 312/343/199
f 321/356/198 314/347/198 313/345/198
f 314/347/197 315/349/197 307/350/197
f 323/357/204 316/358/204 315/349/204
f 316/358/203 325/359/203 317/351/203
f 325/360/202 318/352/202 317/361/202
f 318/352/201 327/362/201 319/354/201
f 327/362/208 320/355/208 319/354/208
f 320/355/207 329/363/207 321/356/207
f 329/363/206 322/364/206 321/356/206
f 322/364/205 323/357/205 315/349/205
f 323/357/212 332/365/212 324/366/212
f 324/366/211 333/367/211 325/359/211
f 325/360/210 334/368/210 326/369/210
f 326/369/209 335/370/209 327/362/209
f 335/370/216 328/371/216 327/362/216
f 336/372/215 329/363/215 328/371/215
f 337/373/214 330/374/214 329/363/214
f 338/375/213 323/357/213 330/374/213
f 331/376/220 340/377/220 332/365/220
f 340/377/219 333/367/219 332/365/219
f 341/378/218 334/368/218 333/379/218
f 342/380/217 335/370/217 334/368/217
f 343/381/224 336/372/224 335/370/224
f 336/372/223 345/382/223 337/373/223
f 337/373/222 346/383/222 338/375/222
f 346/383/221 331/376/221 338/375/221
f 339/384/228 348/385/228 340/377/228
f 348/385/227 341/386/227 340/377/227
f 349/387/226 342/380/226 341/378/226
f 350/388/225 343/381/225 342/380/225
f 343/381/232 352/389/232 344/390/232
f 344/390/231 353/391/231 345/382/231
f 353/391/230 346/383/230 345/382/230
f 354/392/229 339/384/229 346/383/229
f 347/393/236 356/394/236 348/385/236
f 348/385/235 357/395/235 349/396/235
f 349/387/234 358/397/234 350/388/234
f 358/397/233 351/398/233 350/388/233
f 359/399/240 352/389/240 351/398/240
f 360/400/239 353/391/239 352/389/239
f 361/401/238 354/392/238 353/391/238
f 362/402/237 347/393/237 354/392/237
f 355/403/244 364/404/244 356/394/244
f 364/404/243 357/395/243 356/394/243
f 365/405/242 358/397/242 357/406/242
f 366/407/241 359/399/241 358/397/241
f 359/399/248 368/408/248 360/400/248
f 360/400/247 369/409/247 361/401/247
f 361/401/246 370/410/246 362/402/246
f 370/410/245 355/403/245 362/402/245
f 363/411/252 116/123/252 364/404/252
f 364/404/251 117/126/251 365/412/251
f 365/405/250 118/128/250 366/407/250
f 118/128/249 367/413/249 366/407/249
f 119/131/256 368/408/256 367/413/256
f 120/133/255 369/409/255 368/408/255
f 121/135/254 370/410/254 369/409/254
f 122/137/253 363/411/253 370/410/253
f 372/414/257 436/415/257 435/416/257
f 374/417/258 437/418/258 436/415/258
f 376/419/259 438/420/259 437/418/259
f 378/421/260 439/422/260 438/420/260
f 439/422/261 382/423/261 440/424/261
f 440/424/262 384/425/262 441/426/262
f 441/426/263 386/427/263 442/428/263
f 442/428/264 388/429/264 443/430/264
f 443/430/265 390/431/265 444/432/265
f 444/432/266 392/433/266 445/434/266
f 445/434/267 394/435/267 446/436/267
f 446/436/268 396/437/268 447/438/268
f 396/437/269 448/439/269 447/438/269
f 398/440/270 449/441/270 448/439/270
f 388/429/271 384/425/271 376/419/271
f 400/442/272 450/443/272 449/441/272
f 402/444/273 435/416/273 450/445/273
f 385/446/274 393/447/274 401/448/274
f 418/449/275 434/450/275 433/451/275
f 417/452/276 433/453/276 432/454/276
f 416/455/277 432/454/277 431/456/277
f 415/457/278 431/456/278 430/458/278
f 429/459/279 415/457/279 430/458/279
f 428/460/280 414/461/280 429/459/280
f 427/462/281 413/463/281 428/460/281
f 426/464/282 412/465/282 427/462/282
f 425/466/283 411/467/283 426/464/283
f 424/468/284 410/469/284 425/466/284
f 423/470/285 409/471/285 424/468/285
f 422/472/286 408/473/286 423/470/286
f 406/474/287 422/472/287 421/475/287
f 405/476/288 421/475/288 420/477/288
f 404/478/289 420/477/289 419/479/289
f 403/480/290 419/479/290 434/450/290
f 434/450/291 373/481/291 371/482/291
f 419/479/292 375/483/292 373/481/292
f 420/477/293 377/484/293 375/483/293
f 421/475/294 379/485/294 377/484/294
f 379/485/295 423/470/295 381/486/295
f 381/486/296 424/468/296 383/487/296
f 383/487/297 425/466/297 385/446/297
f 385/446/298 426/464/298 387/488/298
f 387/488/299 427/462/299 389/489/299
f 389/489/300 428/460/300 391/490/300
f 391/490/301 429/459/301 393/447/301
f 393/447/302 430/458/302 395/491/302
f 430/458/303 397/492/303 395/491/303
f 431/456/304 399/493/304 397/492/304
f 432/454/305 401/448/305 399/493/305
f 433/451/306 371/482/306 401/448/306
f 450/445/307 403/480/307 418/449/307
f 449/441/308 418/494/308 417/452/308
f 448/439/309 417/452/309 416/455/309
f 447/438/310 416/455/310 415/457/310
f 414/461/311 447/438/311 415/457/311
f 413/463/312 446/436/312 414/461/312
f 412/465/313 445/434/313 413/463/313
f 411/467/314 444/432/314 412/465/314
f 410/469/315 443/430/315 411/467/315
f 409/471/316 442/428/316 410/469/316
f 408/473/317 441/426/317 409/471/317
f 407/495/318 440/424/318 408/473/318
f 438/420/319 407/495/319 406/474/319
f 437/418/320 406/474/320 405/476/320
f 436/415/321 405/476/321 404/478/321
f 435/416/322 404/478/322 403/480/322
f 114/4/2 3/13/2 9/5/2
f 1/7/3 7/14/3 8/8/3
f 113/10/4 112/15/4 5/11/4
f 114/4/5 10/6/5 11/3/5
f 2/9/6 8/8/6 9/5/6
f 113/10/7 6/12/7 7/14/7
f 5/11/9 12/22/9 13/17/9
f 11/3/10 10/6/10 17/18/10
f 8/8/11 15/23/11 16/20/11
f 7/14/12 6/12/12 13/17/12
f 9/5/15 16/20/15 17/18/15
f 8/8/16 7/14/16 14/21/16
f 18/19/17 17/18/17 24/24/17
f 15/23/18 22/29/18 23/26/18
f 13/17/19 20/30/19 21/27/19
f 16/20/22 23/26/22 24/24/22
f 15/23/23 14/21/23 21/27/23
f 12/22/24 19/28/24 20/30/24
f 23/26/27 30/37/27 31/33/27
f 22/29/28 21/27/28 28/34/28
f 19/28/29 26/31/29 27/36/29
f 24/24/30 31/33/30 32/32/30
f 22/29/31 29/35/31 30/37/31
f 20/30/32 27/36/32 28/34/32
f 31/33/33 30/37/33 37/38/33
f 29/35/34 28/34/34 35/40/34
f 26/31/35 33/44/35 34/42/35
f 31/33/36 38/39/36 39/43/36
f 29/35/37 36/41/37 37/38/37
f 27/36/38 34/42/38 35/40/38
f 38/39/41 45/49/41 46/45/41
f 36/41/42 43/50/42 44/46/42
f 34/42/43 41/51/43 42/47/43
f 38/39/46 37/38/46 44/46/46
f 36/41/47 35/40/47 42/47/47
f 34/42/48 33/44/48 40/48/48
f 43/50/49 50/57/49 51/52/49
f 41/51/50 48/58/50 49/53/50
f 45/49/53 44/46/53 51/52/53
f 43/50/54 42/47/54 49/53/54
f 40/48/55 47/54/55 48/58/55
f 45/49/56 52/56/56 53/55/56
f 52/61/58 51/70/58 58/62/58
f 50/64/59 49/71/59 56/65/59
f 47/67/60 54/72/60 55/68/60
f 53/59/61 52/61/61 59/63/61
f 50/64/62 57/66/62 58/62/62
f 48/69/63 55/68/63 56/65/63
f 57/66/65 56/65/65 65/73/65
f 55/68/66 54/72/66 63/75/66
f 59/63/67 68/79/67 69/77/67
f 57/66/68 66/74/68 67/78/68
f 55/68/69 64/76/69 65/73/69
f 59/63/72 58/62/72 67/78/72
f 68/79/73 75/84/73 76/80/73
f 66/74/74 73/85/74 74/81/74
f 64/76/75 71/86/75 72/82/75
f 68/79/78 67/78/78 74/81/78
f 66/74/79 65/73/79 72/82/79
f 64/76/80 63/75/80 70/83/80
f 71/86/81 78/93/81 79/87/81
f 75/84/84 74/81/84 81/90/84
f 73/85/85 72/82/85 79/87/85
f 70/83/86 77/88/86 78/93/86
f 75/84/87 82/91/87 83/89/87
f 73/85/88 80/92/88 81/90/88
f 82/91/90 81/90/90 88/95/90
f 80/92/91 79/87/91 86/97/91
f 77/88/92 84/100/92 85/99/92
f 83/89/93 82/91/93 89/96/93
f 80/92/94 87/98/94 88/95/94
f 78/93/95 85/99/95 86/97/95
f 84/100/97 91/105/97 92/101/97
f 89/96/98 96/106/98 97/102/98
f 87/98/99 94/107/99 95/103/99
f 85/99/100 92/101/100 93/104/100
f 89/96/103 88/95/103 95/103/103
f 87/98/104 86/97/104 93/104/104
f 96/106/105 103/112/105 104/108/105
f 94/107/106 101/113/106 102/109/106
f 92/101/107 99/114/107 100/110/107
f 96/106/110 95/103/110 102/109/110
f 94/107/111 93/104/111 100/110/111
f 91/105/112 98/111/112 99/114/112
f 103/112/115 102/109/115 109/117/115
f 101/113/116 100/110/116 107/119/116
f 98/111/117 105/115/117 106/121/117
f 104/108/118 103/112/118 110/118/118
f 101/113/119 108/120/119 109/117/119
f 99/114/120 106/121/120 107/119/120
f 110/118/121 109/117/121 3/13/121
f 108/120/122 107/119/122 1/7/122
f 105/115/123 112/15/123 113/10/123
f 110/118/124 114/4/124 4/2/124
f 108/120/125 2/9/125 3/13/125
f 106/121/126 113/10/126 1/7/126
f 123/122/129 124/125/129 116/123/129
f 124/125/130 125/139/130 117/126/130
f 125/127/131 126/130/131 118/128/131
f 126/130/132 127/141/132 119/131/132
f 119/131/133 127/141/133 128/132/133
f 120/133/134 128/132/134 129/134/134
f 121/135/135 129/134/135 130/136/135
f 122/137/136 130/136/136 123/122/136
f 123/122/137 131/145/137 132/138/137
f 132/138/138 133/147/138 125/139/138
f 125/127/139 133/148/139 134/140/139
f 134/140/140 135/150/140 127/141/140
f 127/141/141 135/150/141 136/142/141
f 136/142/142 137/152/142 129/134/142
f 129/134/143 137/152/143 138/143/143
f 138/143/144 131/145/144 123/122/144
f 139/144/145 140/156/145 132/138/145
f 132/138/146 140/156/146 141/146/146
f 133/148/147 141/159/147 142/149/147
f 142/149/148 143/161/148 135/150/148
f 135/150/149 143/161/149 144/151/149
f 144/151/150 145/153/150 137/152/150
f 145/153/151 146/154/151 138/143/151
f 146/154/152 139/144/152 131/145/152
f 147/155/153 148/157/153 140/156/153
f 148/157/154 149/166/154 141/146/154
f 149/158/155 150/168/155 142/149/155
f 142/149/156 150/168/156 151/160/156
f 151/160/157 152/170/157 144/151/157
f 144/151/158 152/170/158 153/162/158
f 145/153/159 153/162/159 154/163/159
f 146/154/160 154/163/160 147/155/160
f 155/164/161 156/174/161 148/157/161
f 148/157/162 156/174/162 157/165/162
f 149/158/163 157/177/163 158/167/163
f 150/168/164 158/167/164 159/169/164
f 159/169/165 160/171/165 152/170/165
f 160/171/166 161/172/166 153/162/166
f 161/172/167 162/182/167 154/163/167
f 154/163/168 162/182/168 155/164/168
f 163/173/169 164/175/169 156/174/169
f 164/175/170 165/184/170 157/165/170
f 165/176/171 166/178/171 158/167/171
f 166/178/172 167/187/172 159/169/172
f 159/169/173 167/187/173 168/179/173
f 160/171/174 168/179/174 169/180/174
f 161/172/175 169/180/175 170/181/175
f 162/182/176 170/181/176 163/173/176
f 163/173/177 171/190/177 172/183/177
f 172/183/178 173/193/178 165/184/178
f 173/185/179 174/186/179 166/178/179
f 174/186/180 175/195/180 167/187/180
f 167/187/181 175/195/181 176/188/181
f 176/188/182 177/198/182 169/180/182
f 169/180/183 177/198/183 178/189/183
f 178/189/184 171/190/184 163/173/184
f 171/190/185 179/202/185 180/191/185
f 172/183/186 180/191/186 181/192/186
f 173/185/187 181/205/187 182/194/187
f 182/194/188 183/196/188 175/195/188
f 183/196/189 184/197/189 176/188/189
f 184/197/190 185/199/190 177/198/190
f 185/199/191 186/200/191 178/189/191
f 186/200/192 179/202/192 171/190/192
f 187/201/193 188/203/193 180/191/193
f 188/203/194 189/212/194 181/192/194
f 189/204/195 190/206/195 182/194/195
f 190/206/196 191/214/196 183/196/196
f 183/196/197 191/214/197 192/207/197
f 184/197/198 192/207/198 193/208/198
f 185/199/199 193/208/199 194/209/199
f 186/200/200 194/209/200 187/201/200
f 195/210/201 196/219/201 188/203/201
f 188/203/202 196/219/202 197/211/202
f 189/204/203 197/222/203 198/213/203
f 198/213/204 199/215/204 191/214/204
f 199/215/205 200/216/205 192/207/205
f 200/216/206 201/217/206 193/208/206
f 201/217/207 202/227/207 194/209/207
f 194/209/208 202/227/208 195/210/208
f 203/218/209 204/220/209 196/219/209
f 204/220/210 205/229/210 197/211/210
f 205/221/211 206/223/211 198/213/211
f 206/223/212 207/232/212 199/215/212
f 199/215/213 207/232/213 208/224/213
f 200/216/214 208/224/214 209/225/214
f 201/217/215 209/225/215 210/226/215
f 202/227/216 210/226/216 203/218/216
f 203/218/217 211/236/217 212/228/217
f 212/228/218 213/239/218 205/229/218
f 213/230/219 214/231/219 206/223/219
f 214/231/220 215/242/220 207/232/220
f 207/232/221 215/242/221 216/233/221
f 208/224/222 216/233/222 217/234/222
f 209/225/223 217/234/223 218/235/223
f 218/235/224 211/236/224 203/218/224
f 211/236/225 219/246/225 220/237/225
f 212/228/226 220/237/226 221/238/226
f 213/230/227 221/248/227 222/240/227
f 214/231/228 222/240/228 223/241/228
f 223/241/229 224/243/229 216/233/229
f 224/243/230 225/244/230 217/234/230
f 225/244/231 226/245/231 218/235/231
f 226/245/232 219/246/232 211/236/232
f 219/246/233 227/253/233 228/247/233
f 228/247/234 229/255/234 221/238/234
f 221/248/235 229/256/235 230/249/235
f 230/249/236 231/258/236 223/241/236
f 223/241/237 231/258/237 232/250/237
f 232/250/238 233/261/238 225/244/238
f 225/244/239 233/261/239 234/251/239
f 234/251/240 227/253/240 219/246/240
f 235/252/241 236/265/241 228/247/241
f 228/247/242 236/265/242 237/254/242
f 229/256/243 237/267/243 238/257/243
f 238/257/244 239/259/244 231/258/244
f 239/259/245 240/260/245 232/250/245
f 240/260/246 241/262/246 233/261/246
f 241/262/247 242/263/247 234/251/247
f 242/263/248 235/252/248 227/253/248
f 235/252/249 243/272/249 244/264/249
f 244/264/250 245/274/250 237/254/250
f 245/266/251 246/268/251 238/257/251
f 246/268/252 247/276/252 239/259/252
f 239/259/253 247/276/253 248/269/253
f 248/269/254 249/278/254 241/262/254
f 241/262/255 249/278/255 250/270/255
f 250/270/256 243/272/256 235/252/256
f 251/271/132 252/281/132 244/264/132
f 244/264/131 252/281/131 253/273/131
f 245/266/130 253/282/130 254/275/130
f 254/275/129 255/284/129 247/276/129
f 247/276/136 255/284/136 256/277/136
f 256/277/135 257/279/135 249/278/135
f 257/279/134 258/288/134 250/270/134
f 250/270/133 258/288/133 251/271/133
f 251/271/140 259/290/140 260/280/140
f 260/280/139 261/292/139 253/273/139
f 253/282/138 261/294/138 262/283/138
f 262/283/137 263/285/137 255/284/137
f 263/285/144 264/286/144 256/277/144
f 264/286/143 265/297/143 257/279/143
f 257/279/142 265/297/142 266/287/142
f 266/287/141 259/290/141 251/271/141
f 267/289/148 268/291/148 260/280/148
f 268/291/147 269/301/147 261/292/147
f 269/293/146 270/303/146 262/283/146
f 262/283/145 270/303/145 271/295/145
f 271/295/152 272/306/152 264/286/152
f 264/286/151 272/306/151 273/296/151
f 265/297/150 273/296/150 274/298/150
f 266/287/149 274/298/149 267/289/149
f 275/299/156 276/300/156 268/291/156
f 276/300/155 277/311/155 269/301/155
f 277/302/154 278/304/154 270/303/154
f 278/304/153 279/313/153 271/295/153
f 271/295/160 279/313/160 280/305/160
f 272/306/159 280/305/159 281/307/159
f 273/296/158 281/307/158 282/308/158
f 274/298/157 282/308/157 275/299/157
f 283/309/164 284/318/164 276/300/164
f 276/300/163 284/318/163 285/310/163
f 277/302/162 285/319/162 286/312/162
f 286/312/161 287/314/161 279/313/161
f 287/314/168 288/315/168 280/305/168
f 288/315/167 289/316/167 281/307/167
f 289/316/166 290/323/166 282/308/166
f 282/308/165 290/323/165 283/309/165
f 283/309/172 291/324/172 292/317/172
f 292/317/171 293/327/171 285/310/171
f 285/319/170 293/329/170 294/320/170
f 294/320/169 295/331/169 287/314/169
f 287/314/176 295/331/176 296/321/176
f 296/321/175 297/333/175 289/316/175
f 289/316/174 297/333/174 298/322/174
f 298/322/173 291/324/173 283/309/173
f 291/324/180 299/496/180 300/325/180
f 292/317/179 300/325/179 301/326/179
f 301/328/178 302/497/178 294/320/178
f 294/320/177 302/497/177 303/330/177
f 303/330/184 304/498/184 296/321/184
f 296/321/183 304/498/183 305/332/183
f 305/332/182 306/334/182 298/322/182
f 306/334/181 299/496/181 291/324/181
f 299/335/188 307/350/188 308/336/188
f 308/336/187 309/339/187 301/338/187
f 309/339/186 310/341/186 302/340/186
f 310/341/185 311/353/185 303/342/185
f 303/342/192 311/353/192 312/343/192
f 304/344/191 312/343/191 313/345/191
f 305/346/190 313/345/190 314/347/190
f 314/347/189 307/350/189 299/335/189
f 315/349/196 316/358/196 308/336/196
f 308/336/195 316/358/195 317/351/195
f 309/339/194 317/361/194 318/352/194
f 318/352/193 319/354/193 311/353/193
f 319/354/200 320/355/200 312/343/200
f 320/355/199 321/356/199 313/345/199
f 321/356/198 322/364/198 314/347/198
f 314/347/197 322/364/197 315/349/197
f 323/357/204 324/366/204 316/358/204
f 316/358/203 324/366/203 325/359/203
f 325/360/202 326/369/202 318/352/202
f 318/352/201 326/369/201 327/362/201
f 327/362/208 328/371/208 320/355/208
f 320/355/207 328/371/207 329/363/207
f 329/363/206 330/374/206 322/364/206
f 322/364/205 330/374/205 323/357/205
f 323/357/212 331/376/212 332/365/212
f 324/366/211 332/365/211 333/367/211
f 325/360/210 333/379/210 334/368/210
f 326/369/209 334/368/209 335/370/209
f 335/370/216 336/372/216 328/371/216
f 336/372/215 337/373/215 329/363/215
f 337/373/214 338/375/214 330/374/214
f 338/375/213 331/376/213 323/357/213
f 331/376/220 339/384/220 340/377/220
f 340/377/219 341/386/219 333/367/219
f 341/378/218 342/380/218 334/368/218
f 342/380/217 343/381/217 335/370/217
f 343/381/224 344/390/224 336/372/224
f 336/372/223 344/390/223 345/382/223
f 337/373/222 345/382/222 346/383/222
f 346/383/221 339/384/221 331/376/221
f 339/384/228 347/393/228 348/385/228
f 348/385/227 349/396/227 341/386/227
f 349/387/226 350/388/226 342/380/226
f 350/388/225 351/398/225 343/381/225
f 343/381/232 351/398/232 352/389/232
f 344/390/231 352/389/231 353/391/231
f 353/391/230 354/392/230 346/383/230
f 354/392/229 347/393/229 339/384/229
f 347/393/236 355/403/236 356/394/236
f 348/385/235 356/394/235 357/395/235
f 349/387/234 357/406/234 358/397/234
f 358/397/233 359/399/233 351/398/233
f 359/399/240 360/400/240 352/389/240
f 360/400/239 361/401/239 353/391/239
f 361/401/238 362/402/238 354/392/238
f 362/402/237 355/403/237 347/393/237
f 355/403/244 363/411/244 364/404/244
f 364/404/243 365/412/243 357/395/243
f 365/405/242 366/407/242 358/397/242
f 366/407/241 367/413/241 359/399/241
f 359/399/248 367/413/248 368/408/248
f 360/400/247 368/408/247 369/409/247
f 361/401/246 369/409/246 370/410/246
f 370/410/245 363/411/245 355/403/245
f 363/411/252 115/124/252 116/123/252
f 364/404/251 116/123/251 117/126/251
f 365/405/250 117/129/250 118/128/250
f 118/128/249 119/131/249 367/413/249
f 119/131/256 120/133/256 368/408/256
f 120/133/255 121/135/255 369/409/255
f 121/135/254 122/137/254 370/410/254
f 122/137/253 115/124/253 363/411/253
f 372/414/257 374/417/257 436/415/257
f 374/417/258 376/419/258 437/418/258
f 376/419/323 378/421/323 438/420/323
f 378/421/260 380/499/260 439/422/260
f 439/422/261 380/499/261 382/423/261
f 440/424/324 382/423/324 384/425/324
f 441/426/263 384/425/263 386/427/263
f 442/428/264 386/427/264 388/429/264
f 443/430/265 388/429/265 390/431/265
f 444/432/266 390/431/266 392/433/266
f 445/434/267 392/433/267 394/435/267
f 446/436/268 394/435/268 396/437/268
f 396/437/269 398/440/269 448/439/269
f 398/440/270 400/442/270 449/441/270
f 376/419/271 374/417/271 372/414/271
f 372/414/271 402/444/271 376/419/271
f 402/444/271 400/442/271 376/419/271
f 400/442/271 398/440/271 396/437/271
f 396/437/271 394/435/271 392/433/271
f 392/433/271 390/431/271 388/429/271
f 388/429/271 386/427/271 384/425/271
f 384/425/271 382/423/271 380/499/271
f 380/499/271 378/421/271 384/425/271
f 378/421/271 376/419/271 384/425/271
f 400/442/271 396/437/271 376/419/271
f 396/437/271 392/433/271 376/419/271
f 392/433/271 388/429/271 376/419/271
f 400/442/272 402/444/272 450/443/272
f 402/444/273 372/414/273 435/416/273
f 401/448/274 371/482/274 373/481/274
f 373/481/274 375/483/274 377/484/274
f 377/484/274 379/485/274 381/486/274
f 381/486/274 383/487/274 385/446/274
f 385/446/274 387/488/274 389/489/274
f 389/489/274 391/490/274 393/447/274
f 393/447/274 395/491/274 397/492/274
f 397/492/274 399/493/274 401/448/274
f 401/448/274 373/481/274 377/484/274
f 377/484/274 381/486/274 385/446/274
f 385/446/274 389/489/274 393/447/274
f 393/447/274 397/492/274 401/448/274
f 401/448/274 377/484/274 385/446/274
f 418/449/275 403/480/275 434/450/275
f 417/452/276 418/494/276 433/453/276
f 416/455/277 417/452/277 432/454/277
f 415/457/278 416/455/278 431/456/278
f 429/459/279 414/461/279 415/457/279
f 428/460/280 413/463/280 414/461/280
f 427/462/281 412/465/281 413/463/281
f 426/464/282 411/467/282 412/465/282
f 425/466/283 410/469/283 411/467/283
f 424/468/284 409/471/284 410/469/284
f 423/470/285 408/473/285 409/471/285
f 422/472/286 407/495/286 408/473/286
f 406/474/287 407/495/287 422/472/287
f 405/476/288 406/474/288 421/475/288
f 404/478/289 405/476/289 420/477/289
f 403/480/290 404/478/290 419/479/290
f 434/450/291 419/479/291 373/481/291
f 419/479/292 420/477/292 375/483/292
f 420/477/293 421/475/293 377/484/293
f 421/475/294 422/472/294 379/485/294
f 379/485/295 422/472/295 423/470/295
f 381/486/296 423/470/296 424/468/296
f 383/487/297 424/468/297 425/466/297
f 385/446/298 425/466/298 426/464/298
f 387/488/299 426/464/299 427/462/299
f 389/489/300 427/462/300 428/460/300
f 391/490/301 428/460/301 429/459/301
f 393/447/302 429/459/302 430/458/302
f 430/458/303 431/456/303 397/492/303
f 431/456/304 432/454/304 399/493/304
f 432/454/305 433/453/305 401/448/305
f 433/451/306 434/450/306 371/482/306
f 450/445/307 435/416/307 403/480/307
f 449/441/308 450/443/308 418/494/308
f 448/439/309 449/441/309 417/452/309
f 447/438/310 448/439/310 416/455/310
f 414/461/311 446/436/311 447/438/311
f 413/463/312 445/434/312 446/436/312
f 412/465/313 444/432/313 445/434/313
f 411/467/314 443/430/314 444/432/314
f 410/469/315 442/428/315 443/430/315
f 409/471/316 441/426/316 442/428/316
f 408/473/317 440/424/317 441/426/317
f 407/495/318 439/422/318 440/424/318
f 438/420/319 439/422/319 407/495/319
f 437/418/320 438/420/320 406/474/320
f 436/415/321 437/418/321 405/476/321
f 435/416/322 436/415/322 404/478/322
