# Blender 4.1.1
# www.blender.org
mtllib shockWave.mtl
o トーラス
v 1.130000 1.029000 0.000000
v 1.116602 1.079000 0.000000
v 1.080000 1.115602 0.000000
v 1.030000 1.129000 0.000000
v 0.980000 1.115602 0.000000
v 0.943397 1.079000 0.000000
v 0.930000 1.029000 0.000000
v 0.943397 0.979000 0.000000
v 0.980000 0.942398 0.000000
v 1.030000 0.929000 0.000000
v 1.080000 0.942398 0.000000
v 1.116602 0.979000 0.000000
v 1.018095 1.029000 -0.490289
v 1.006024 1.079000 -0.484476
v 0.973046 1.115602 -0.468594
v 0.927998 1.129000 -0.446900
v 0.882950 1.115602 -0.425206
v 0.849972 1.079000 -0.409325
v 0.837901 1.029000 -0.403512
v 0.849972 0.979000 -0.409325
v 0.882950 0.942398 -0.425206
v 0.927998 0.929000 -0.446900
v 0.973046 0.942398 -0.468594
v 1.006024 0.979000 -0.484476
v 0.704543 1.029000 -0.883470
v 0.696190 1.079000 -0.872995
v 0.673369 1.115602 -0.844378
v 0.642194 1.129000 -0.805286
v 0.611020 1.115602 -0.766195
v 0.588199 1.079000 -0.737578
v 0.579845 1.029000 -0.727103
v 0.588199 0.979000 -0.737578
v 0.611020 0.942398 -0.766195
v 0.642194 0.929000 -0.805286
v 0.673369 0.942398 -0.844378
v 0.696190 0.979000 -0.872995
v 0.251449 1.029000 -1.101668
v 0.248468 1.079000 -1.088607
v 0.240323 1.115602 -1.052922
v 0.229197 1.129000 -1.004176
v 0.218071 1.115602 -0.955429
v 0.209926 1.079000 -0.919744
v 0.206945 1.029000 -0.906683
v 0.209926 0.979000 -0.919744
v 0.218071 0.942398 -0.955429
v 0.229197 0.929000 -1.004176
v 0.240323 0.942398 -1.052922
v 0.248468 0.979000 -1.088607
v -0.251449 1.029000 -1.101668
v -0.248467 1.079000 -1.088607
v -0.240323 1.115602 -1.052922
v -0.229197 1.129000 -1.004176
v -0.218071 1.115602 -0.955429
v -0.209926 1.079000 -0.919744
v -0.206944 1.029000 -0.906683
v -0.209926 0.979000 -0.919744
v -0.218071 0.942398 -0.955429
v -0.229197 0.929000 -1.004176
v -0.240323 0.942398 -1.052922
v -0.248467 0.979000 -1.088607
v -0.704544 1.029000 -0.883469
v -0.696190 1.079000 -0.872995
v -0.673369 1.115602 -0.844378
v -0.642195 1.129000 -0.805286
v -0.611020 1.115602 -0.766195
v -0.588199 1.079000 -0.737578
v -0.579846 1.029000 -0.727103
v -0.588199 0.979000 -0.737578
v -0.611020 0.942398 -0.766195
v -0.642195 0.929000 -0.805286
v -0.673369 0.942398 -0.844378
v -0.696190 0.979000 -0.872995
v -1.018095 1.029000 -0.490289
v -1.006024 1.079000 -0.484476
v -0.973046 1.115602 -0.468594
v -0.927998 1.129000 -0.446900
v -0.882949 1.115602 -0.425206
v -0.849972 1.079000 -0.409325
v -0.837901 1.029000 -0.403512
v -0.849972 0.979000 -0.409325
v -0.882949 0.942398 -0.425206
v -0.927998 0.929000 -0.446900
v -0.973046 0.942398 -0.468594
v -1.006024 0.979000 -0.484476
v -1.130000 1.029000 -0.000000
v -1.116602 1.079000 -0.000000
v -1.080000 1.115602 -0.000000
v -1.030000 1.129000 -0.000000
v -0.980000 1.115602 -0.000000
v -0.943397 1.079000 -0.000000
v -0.930000 1.029000 -0.000000
v -0.943397 0.979000 -0.000000
v -0.980000 0.942398 -0.000000
v -1.030000 0.929000 -0.000000
v -1.080000 0.942398 -0.000000
v -1.116602 0.979000 -0.000000
v -1.018095 1.029000 0.490288
v -1.006024 1.079000 0.484475
v -0.973046 1.115602 0.468594
v -0.927998 1.129000 0.446900
v -0.882950 1.115602 0.425206
v -0.849972 1.079000 0.409324
v -0.837901 1.029000 0.403512
v -0.849972 0.979000 0.409324
v -0.882950 0.942398 0.425206
v -0.927998 0.929000 0.446900
v -0.973046 0.942398 0.468594
v -1.006024 0.979000 0.484475
v -0.704544 1.029000 0.883469
v -0.696190 1.079000 0.872995
v -0.673369 1.115602 0.844378
v -0.642195 1.129000 0.805286
v -0.611020 1.115602 0.766195
v -0.588199 1.079000 0.737578
v -0.579846 1.029000 0.727103
v -0.588199 0.979000 0.737578
v -0.611020 0.942398 0.766195
v -0.642195 0.929000 0.805286
v -0.673369 0.942398 0.844378
v -0.696190 0.979000 0.872995
v -0.251449 1.029000 1.101668
v -0.248467 1.079000 1.088607
v -0.240323 1.115602 1.052922
v -0.229197 1.129000 1.004176
v -0.218071 1.115602 0.955429
v -0.209926 1.079000 0.919744
v -0.206944 1.029000 0.906683
v -0.209926 0.979000 0.919744
v -0.218071 0.942398 0.955429
v -0.229197 0.929000 1.004176
v -0.240323 0.942398 1.052922
v -0.248467 0.979000 1.088607
v 0.251449 1.029000 1.101668
v 0.248468 1.079000 1.088607
v 0.240323 1.115602 1.052922
v 0.229197 1.129000 1.004176
v 0.218071 1.115602 0.955429
v 0.209926 1.079000 0.919744
v 0.206945 1.029000 0.906683
v 0.209926 0.979000 0.919744
v 0.218071 0.942398 0.955429
v 0.229197 0.929000 1.004176
v 0.240323 0.942398 1.052922
v 0.248468 0.979000 1.088607
v 0.704543 1.029000 0.883470
v 0.696190 1.079000 0.872995
v 0.673368 1.115602 0.844378
v 0.642194 1.129000 0.805287
v 0.611020 1.115602 0.766195
v 0.588198 1.079000 0.737578
v 0.579845 1.029000 0.727104
v 0.588198 0.979000 0.737578
v 0.611020 0.942398 0.766195
v 0.642194 0.929000 0.805287
v 0.673368 0.942398 0.844378
v 0.696190 0.979000 0.872995
v 1.018095 1.029000 0.490289
v 1.006024 1.079000 0.484476
v 0.973046 1.115602 0.468595
v 0.927998 1.129000 0.446901
v 0.882949 1.115602 0.425206
v 0.849972 1.079000 0.409325
v 0.837901 1.029000 0.403512
v 0.849972 0.979000 0.409325
v 0.882949 0.942398 0.425206
v 0.927998 0.929000 0.446901
v 0.973046 0.942398 0.468595
v 1.006024 0.979000 0.484476
vn 0.9433 0.2527 -0.2153
vn 0.6981 0.6981 -0.1593
vn 0.2584 0.9642 -0.0590
vn -0.2584 0.9642 0.0590
vn -0.6981 0.6981 0.1593
vn -0.9433 0.2527 0.2153
vn -0.9433 -0.2527 0.2153
vn -0.6981 -0.6981 0.1593
vn -0.2584 -0.9642 0.0590
vn 0.2584 -0.9642 -0.0590
vn 0.6981 -0.6981 -0.1593
vn 0.9433 -0.2527 -0.2153
vn 0.7564 0.2527 -0.6032
vn 0.5598 0.6981 -0.4464
vn 0.2072 0.9642 -0.1652
vn -0.2072 0.9642 0.1652
vn -0.5598 0.6981 0.4464
vn -0.7564 0.2527 0.6032
vn -0.7564 -0.2527 0.6032
vn -0.5598 -0.6981 0.4464
vn -0.2072 -0.9642 0.1652
vn 0.2072 -0.9642 -0.1652
vn 0.5598 -0.6981 -0.4464
vn 0.7564 -0.2527 -0.6032
vn 0.4198 0.2528 -0.8717
vn 0.3107 0.6981 -0.6451
vn 0.1150 0.9642 -0.2388
vn -0.1150 0.9642 0.2388
vn -0.3107 0.6981 0.6451
vn -0.4198 0.2527 0.8717
vn -0.4198 -0.2527 0.8717
vn -0.3107 -0.6981 0.6451
vn -0.1150 -0.9642 0.2388
vn 0.1150 -0.9642 -0.2388
vn 0.3107 -0.6981 -0.6451
vn 0.4198 -0.2528 -0.8717
vn -0.0000 0.2527 -0.9675
vn -0.0000 0.6981 -0.7160
vn -0.0000 0.9642 -0.2650
vn -0.0000 0.9642 0.2650
vn -0.0000 0.6981 0.7160
vn -0.0000 0.2528 0.9675
vn -0.0000 -0.2527 0.9675
vn -0.0000 -0.6981 0.7160
vn -0.0000 -0.9642 0.2650
vn -0.0000 -0.9642 -0.2650
vn -0.0000 -0.6981 -0.7160
vn -0.0000 -0.2527 -0.9675
vn -0.4198 0.2527 -0.8717
vn -0.3107 0.6981 -0.6451
vn -0.1150 0.9642 -0.2388
vn 0.1150 0.9642 0.2388
vn 0.3107 0.6981 0.6451
vn 0.4198 0.2527 0.8717
vn 0.4198 -0.2527 0.8717
vn 0.3107 -0.6981 0.6451
vn 0.1150 -0.9642 0.2388
vn -0.1150 -0.9642 -0.2388
vn -0.3107 -0.6981 -0.6451
vn -0.4198 -0.2527 -0.8717
vn -0.7564 0.2527 -0.6032
vn -0.5598 0.6981 -0.4464
vn -0.2072 0.9642 -0.1652
vn 0.2072 0.9642 0.1652
vn 0.5598 0.6981 0.4464
vn 0.7564 0.2527 0.6032
vn 0.7564 -0.2527 0.6032
vn 0.5598 -0.6981 0.4464
vn 0.2072 -0.9642 0.1652
vn -0.2072 -0.9642 -0.1652
vn -0.5598 -0.6981 -0.4464
vn -0.7564 -0.2527 -0.6032
vn -0.9433 0.2527 -0.2153
vn -0.6981 0.6981 -0.1593
vn -0.2584 0.9642 -0.0590
vn 0.2584 0.9642 0.0590
vn 0.6981 0.6981 0.1593
vn 0.9433 0.2527 0.2153
vn 0.9433 -0.2527 0.2153
vn 0.6981 -0.6981 0.1593
vn 0.2584 -0.9642 0.0590
vn -0.2584 -0.9642 -0.0590
vn -0.6981 -0.6981 -0.1593
vn -0.9433 -0.2527 -0.2153
vn 0.4198 0.2527 -0.8717
vn 0.4198 -0.2527 -0.8717
vn -0.0000 0.2527 0.9675
vn -0.0000 0.2528 -0.9675
vn -0.7564 -0.2528 -0.6032
vn 0.9433 0.2528 0.2153
vn 0.9433 -0.2528 0.2153
vn -0.7564 0.2528 0.6032
vn -0.7564 -0.2528 0.6032
vn -0.4198 0.2528 0.8717
vn -0.4198 -0.2528 0.8717
vn -0.0000 -0.2528 0.9675
vn 0.7564 0.2528 0.6032
vn -0.0000 -0.2528 -0.9675
vn 0.7564 -0.2528 0.6032
vt 0.500000 0.500000
vt 0.583317 0.428586
vt 0.583317 0.500000
vt 0.666633 0.500000
vt 0.749950 0.428586
vt 0.749950 0.500000
vt 0.833267 0.500000
vt 0.916583 0.428586
vt 0.916583 0.500000
vt 0.999900 0.500000
vt 0.000100 0.500000
vt 0.083417 0.428586
vt 0.083417 0.500000
vt 0.166733 0.500000
vt 0.250050 0.428586
vt 0.250050 0.500000
vt 0.333367 0.500000
vt 0.333367 0.428586
vt 0.416683 0.500000
vt 0.416683 0.428586
vt 0.500000 0.428586
vt 0.583317 0.357171
vt 0.666633 0.428586
vt 0.749950 0.357171
vt 0.833267 0.428586
vt 0.916583 0.357171
vt 0.999900 0.428586
vt 0.000100 0.357171
vt 0.000100 0.428586
vt 0.083417 0.357171
vt 0.166733 0.428586
vt 0.250050 0.357171
vt 0.416683 0.357171
vt 0.500000 0.285757
vt 0.500000 0.357171
vt 0.666633 0.285757
vt 0.666633 0.357171
vt 0.749950 0.285757
vt 0.833267 0.357171
vt 0.916583 0.285757
vt 0.999900 0.357171
vt 0.000100 0.285757
vt 0.083417 0.285757
vt 0.166733 0.357171
vt 0.166733 0.285757
vt 0.250050 0.285757
vt 0.333367 0.357171
vt 0.333367 0.285757
vt 0.416683 0.285757
vt 0.500000 0.214343
vt 0.583317 0.285757
vt 0.583317 0.214343
vt 0.666633 0.214343
vt 0.749950 0.214343
vt 0.833267 0.285757
vt 0.833267 0.214343
vt 0.916583 0.214343
vt 0.999900 0.285757
vt 0.000100 0.214343
vt 0.166733 0.214343
vt 0.250050 0.214343
vt 0.333367 0.214343
vt 0.416683 0.214343
vt 0.500000 0.142929
vt 0.666633 0.142929
vt 0.749950 0.142929
vt 0.916583 0.142928
vt 0.999900 0.142928
vt 0.999900 0.214343
vt 0.000100 0.142929
vt 0.083417 0.214343
vt 0.083417 0.142929
vt 0.250050 0.142929
vt 0.333367 0.142929
vt 0.416683 0.142929
vt 0.583317 0.071514
vt 0.583317 0.142929
vt 0.666633 0.071514
vt 0.749950 0.071514
vt 0.833267 0.142929
vt 0.833267 0.071514
vt 0.916583 0.071514
vt 0.083417 0.071514
vt 0.166733 0.142929
vt 0.166733 0.071514
vt 0.250050 0.071514
vt 0.416683 0.071514
vt 0.500000 0.071514
vt 0.583317 0.000100
vt 0.666633 0.000100
vt 0.833267 0.000100
vt 0.916583 0.000100
vt 0.999900 0.071514
vt 0.000100 0.071514
vt 0.083417 0.000100
vt 0.166733 0.000100
vt 0.250050 0.000100
vt 0.333367 0.071514
vt 0.416683 0.000100
vt 0.500000 0.999900
vt 0.583317 0.928486
vt 0.583317 0.999900
vt 0.666633 0.999900
vt 0.666633 0.928486
vt 0.749950 0.999900
vt 0.833267 0.928486
vt 0.833267 0.999900
vt 0.916583 0.999900
vt 0.916583 0.928486
vt 0.999900 0.999900
vt 0.000100 0.928486
vt 0.083417 0.999900
vt 0.000100 0.999900
vt 0.083417 0.928486
vt 0.166733 0.999900
vt 0.166733 0.928486
vt 0.250050 0.999900
vt 0.250050 0.928486
vt 0.333367 0.999900
vt 0.333367 0.928486
vt 0.416683 0.999900
vt 0.416683 0.928486
vt 0.500000 0.857071
vt 0.500000 0.928486
vt 0.583317 0.857071
vt 0.666633 0.857071
vt 0.749950 0.928486
vt 0.833267 0.857071
vt 0.999900 0.857071
vt 0.999900 0.928486
vt 0.000100 0.857071
vt 0.166733 0.857071
vt 0.250050 0.857071
vt 0.333367 0.857071
vt 0.416683 0.857071
vt 0.500000 0.785657
vt 0.583317 0.785657
vt 0.666633 0.785657
vt 0.749950 0.857071
vt 0.833267 0.785657
vt 0.916583 0.857071
vt 0.916583 0.785657
vt 0.083417 0.785657
vt 0.083417 0.857071
vt 0.166733 0.785657
vt 0.333367 0.785657
vt 0.416683 0.785657
vt 0.500000 0.714243
vt 0.583317 0.714243
vt 0.666633 0.714243
vt 0.749950 0.785657
vt 0.833267 0.714243
vt 0.916583 0.714243
vt 0.999900 0.785657
vt 0.000100 0.714243
vt 0.000100 0.785657
vt 0.083417 0.714243
vt 0.166733 0.714243
vt 0.250050 0.785657
vt 0.250050 0.714243
vt 0.333367 0.714243
vt 0.416683 0.714243
vt 0.583317 0.642829
vt 0.666633 0.642829
vt 0.749950 0.714243
vt 0.833267 0.642829
vt 0.916583 0.642829
vt 0.999900 0.642829
vt 0.999900 0.714243
vt 0.000100 0.642829
vt 0.083417 0.642829
vt 0.166733 0.642829
vt 0.333367 0.642829
vt 0.416683 0.642829
vt 0.500000 0.642829
vt 0.583317 0.571414
vt 0.666633 0.571414
vt 0.749950 0.642829
vt 0.833267 0.571414
vt 0.916583 0.571414
vt 0.083417 0.571414
vt 0.166733 0.571414
vt 0.250050 0.642829
vt 0.333367 0.571414
vt 0.416683 0.571414
vt 0.500000 0.571414
vt 0.749950 0.571414
vt 0.999900 0.571414
vt 0.000100 0.571414
vt 0.250050 0.571414
vt 0.500000 0.000100
vt 0.749950 0.000100
vt 0.999900 0.000100
vt 0.000100 0.000100
vt 0.333367 0.000100
s 0
usemtl マテリアル
f 1/1/1 14/2/1 2/3/1
f 14/2/2 3/4/2 2/3/2
f 3/4/3 16/5/3 4/6/3
f 16/5/4 5/7/4 4/6/4
f 5/7/5 18/8/5 6/9/5
f 18/8/6 7/10/6 6/9/6
f 7/11/7 20/12/7 8/13/7
f 20/12/8 9/14/8 8/13/8
f 9/14/9 22/15/9 10/16/9
f 22/15/10 11/17/10 10/16/10
f 23/18/11 12/19/11 11/17/11
f 24/20/12 1/1/12 12/19/12
f 13/21/13 26/22/13 14/2/13
f 26/22/14 15/23/14 14/2/14
f 15/23/15 28/24/15 16/5/15
f 28/24/16 17/25/16 16/5/16
f 17/25/17 30/26/17 18/8/17
f 30/26/18 19/27/18 18/8/18
f 31/28/19 20/12/19 19/29/19
f 32/30/20 21/31/20 20/12/20
f 21/31/21 34/32/21 22/15/21
f 34/32/22 23/18/22 22/15/22
f 23/18/23 36/33/23 24/20/23
f 36/33/24 13/21/24 24/20/24
f 37/34/25 26/22/25 25/35/25
f 26/22/26 39/36/26 27/37/26
f 39/36/27 28/24/27 27/37/27
f 40/38/28 29/39/28 28/24/28
f 29/39/29 42/40/29 30/26/29
f 42/40/30 31/41/30 30/26/30
f 43/42/31 32/30/31 31/28/31
f 44/43/32 33/44/32 32/30/32
f 45/45/33 34/32/33 33/44/33
f 46/46/34 35/47/34 34/32/34
f 47/48/35 36/33/35 35/47/35
f 48/49/36 25/35/36 36/33/36
f 49/50/37 38/51/37 37/34/37
f 50/52/38 39/36/38 38/51/38
f 51/53/39 40/38/39 39/36/39
f 52/54/40 41/55/40 40/38/40
f 53/56/41 42/40/41 41/55/41
f 54/57/42 43/58/42 42/40/42
f 55/59/43 44/43/43 43/42/43
f 44/43/44 57/60/44 45/45/44
f 45/45/45 58/61/45 46/46/45
f 58/61/46 47/48/46 46/46/46
f 59/62/47 48/49/47 47/48/47
f 60/63/48 37/34/48 48/49/48
f 61/64/49 50/52/49 49/50/49
f 50/52/50 63/65/50 51/53/50
f 51/53/51 64/66/51 52/54/51
f 64/66/52 53/56/52 52/54/52
f 53/56/53 66/67/53 54/57/53
f 54/57/54 67/68/54 55/69/54
f 67/70/55 56/71/55 55/59/55
f 68/72/56 57/60/56 56/71/56
f 57/60/57 70/73/57 58/61/57
f 70/73/58 59/62/58 58/61/58
f 71/74/59 60/63/59 59/62/59
f 72/75/60 49/50/60 60/63/60
f 61/64/61 74/76/61 62/77/61
f 74/76/62 63/65/62 62/77/62
f 75/78/63 64/66/63 63/65/63
f 76/79/64 65/80/64 64/66/64
f 77/81/65 66/67/65 65/80/65
f 78/82/66 67/68/66 66/67/66
f 67/70/67 80/83/67 68/72/67
f 80/83/68 69/84/68 68/72/68
f 81/85/69 70/73/69 69/84/69
f 82/86/70 71/74/70 70/73/70
f 71/74/71 84/87/71 72/75/71
f 84/87/72 61/64/72 72/75/72
f 73/88/73 86/89/73 74/76/73
f 86/89/74 75/78/74 74/76/74
f 87/90/75 76/79/75 75/78/75
f 76/79/76 89/91/76 77/81/76
f 89/91/77 78/82/77 77/81/77
f 90/92/78 79/93/78 78/82/78
f 79/94/79 92/95/79 80/83/79
f 92/95/80 81/85/80 80/83/80
f 93/96/81 82/86/81 81/85/81
f 94/97/82 83/98/82 82/86/82
f 83/98/83 96/99/83 84/87/83
f 96/99/84 73/88/84 84/87/84
f 85/100/6 98/101/6 86/102/6
f 98/101/5 87/103/5 86/102/5
f 99/104/4 88/105/4 87/103/4
f 88/105/3 101/106/3 89/107/3
f 101/106/2 90/108/2 89/107/2
f 102/109/1 91/110/1 90/108/1
f 103/111/12 92/112/12 91/113/12
f 104/114/11 93/115/11 92/112/11
f 105/116/10 94/117/10 93/115/10
f 106/118/9 95/119/9 94/117/9
f 107/120/8 96/121/8 95/119/8
f 108/122/7 85/100/7 96/121/7
f 109/123/18 98/101/18 97/124/18
f 110/125/17 99/104/17 98/101/17
f 111/126/16 100/127/16 99/104/16
f 100/127/15 113/128/15 101/106/15
f 113/128/14 102/109/14 101/106/14
f 102/109/13 115/129/13 103/130/13
f 115/131/24 104/114/24 103/111/24
f 104/114/23 117/132/23 105/116/23
f 117/132/22 106/118/22 105/116/22
f 118/133/21 107/120/21 106/118/21
f 119/134/20 108/122/20 107/120/20
f 120/135/19 97/124/19 108/122/19
f 121/136/30 110/125/30 109/123/30
f 122/137/29 111/126/29 110/125/29
f 123/138/28 112/139/28 111/126/28
f 112/139/27 125/140/27 113/128/27
f 125/140/26 114/141/26 113/128/26
f 126/142/85 115/129/85 114/141/85
f 115/131/86 128/143/86 116/144/86
f 116/144/35 129/145/35 117/132/35
f 129/145/34 118/133/34 117/132/34
f 118/133/33 131/146/33 119/134/33
f 119/134/32 132/147/32 120/135/32
f 132/147/31 109/123/31 120/135/31
f 133/148/87 122/137/87 121/136/87
f 134/149/41 123/138/41 122/137/41
f 135/150/40 124/151/40 123/138/40
f 124/151/39 137/152/39 125/140/39
f 125/140/38 138/153/38 126/142/38
f 138/153/88 127/154/88 126/142/88
f 139/155/48 128/143/48 127/156/48
f 140/157/47 129/145/47 128/143/47
f 141/158/46 130/159/46 129/145/46
f 142/160/45 131/146/45 130/159/45
f 143/161/44 132/147/44 131/146/44
f 144/162/43 121/136/43 132/147/43
f 133/148/54 146/163/54 134/149/54
f 134/149/53 147/164/53 135/150/53
f 147/164/52 136/165/52 135/150/52
f 136/165/51 149/166/51 137/152/51
f 137/152/50 150/167/50 138/153/50
f 138/153/49 151/168/49 139/169/49
f 151/170/60 140/157/60 139/155/60
f 152/171/59 141/158/59 140/157/59
f 153/172/58 142/160/58 141/158/58
f 142/160/57 155/173/57 143/161/57
f 155/173/56 144/162/56 143/161/56
f 156/174/55 133/148/55 144/162/55
f 145/175/66 158/176/66 146/163/66
f 158/176/65 147/164/65 146/163/65
f 159/177/64 148/178/64 147/164/64
f 148/178/63 161/179/63 149/166/63
f 149/166/62 162/180/62 150/167/62
f 162/180/61 151/168/61 150/167/61
f 151/170/89 164/181/89 152/171/89
f 164/181/71 153/172/71 152/171/71
f 165/182/70 154/183/70 153/172/70
f 154/183/69 167/184/69 155/173/69
f 155/173/68 168/185/68 156/174/68
f 168/185/67 145/175/67 156/174/67
f 157/186/90 2/3/90 158/176/90
f 2/3/77 159/177/77 158/176/77
f 3/4/76 160/187/76 159/177/76
f 160/187/75 5/7/75 161/179/75
f 5/7/74 162/180/74 161/179/74
f 6/9/73 163/188/73 162/180/73
f 163/189/84 8/13/84 164/181/84
f 8/13/83 165/182/83 164/181/83
f 9/14/82 166/190/82 165/182/82
f 10/16/81 167/184/81 166/190/81
f 167/184/80 12/19/80 168/185/80
f 12/19/91 157/186/91 168/185/91
f 1/1/1 13/21/1 14/2/1
f 14/2/2 15/23/2 3/4/2
f 3/4/3 15/23/3 16/5/3
f 16/5/4 17/25/4 5/7/4
f 5/7/5 17/25/5 18/8/5
f 18/8/6 19/27/6 7/10/6
f 7/11/7 19/29/7 20/12/7
f 20/12/8 21/31/8 9/14/8
f 9/14/9 21/31/9 22/15/9
f 22/15/10 23/18/10 11/17/10
f 23/18/11 24/20/11 12/19/11
f 24/20/12 13/21/12 1/1/12
f 13/21/13 25/35/13 26/22/13
f 26/22/14 27/37/14 15/23/14
f 15/23/15 27/37/15 28/24/15
f 28/24/16 29/39/16 17/25/16
f 17/25/17 29/39/17 30/26/17
f 30/26/92 31/41/92 19/27/92
f 31/28/93 32/30/93 20/12/93
f 32/30/20 33/44/20 21/31/20
f 21/31/21 33/44/21 34/32/21
f 34/32/22 35/47/22 23/18/22
f 23/18/23 35/47/23 36/33/23
f 36/33/24 25/35/24 13/21/24
f 37/34/85 38/51/85 26/22/85
f 26/22/26 38/51/26 39/36/26
f 39/36/27 40/38/27 28/24/27
f 40/38/28 41/55/28 29/39/28
f 29/39/29 41/55/29 42/40/29
f 42/40/94 43/58/94 31/41/94
f 43/42/95 44/43/95 32/30/95
f 44/43/32 45/45/32 33/44/32
f 45/45/33 46/46/33 34/32/33
f 46/46/34 47/48/34 35/47/34
f 47/48/35 48/49/35 36/33/35
f 48/49/86 37/34/86 25/35/86
f 49/50/37 50/52/37 38/51/37
f 50/52/38 51/53/38 39/36/38
f 51/53/39 52/54/39 40/38/39
f 52/54/40 53/56/40 41/55/40
f 53/56/41 54/57/41 42/40/41
f 54/57/87 55/69/87 43/58/87
f 55/59/96 56/71/96 44/43/96
f 44/43/44 56/71/44 57/60/44
f 45/45/45 57/60/45 58/61/45
f 58/61/46 59/62/46 47/48/46
f 59/62/47 60/63/47 48/49/47
f 60/63/48 49/50/48 37/34/48
f 61/64/49 62/77/49 50/52/49
f 50/52/50 62/77/50 63/65/50
f 51/53/51 63/65/51 64/66/51
f 64/66/52 65/80/52 53/56/52
f 53/56/53 65/80/53 66/67/53
f 54/57/54 66/67/54 67/68/54
f 67/70/55 68/72/55 56/71/55
f 68/72/56 69/84/56 57/60/56
f 57/60/57 69/84/57 70/73/57
f 70/73/58 71/74/58 59/62/58
f 71/74/59 72/75/59 60/63/59
f 72/75/60 61/64/60 49/50/60
f 61/64/61 73/88/61 74/76/61
f 74/76/62 75/78/62 63/65/62
f 75/78/63 76/79/63 64/66/63
f 76/79/64 77/81/64 65/80/64
f 77/81/65 78/82/65 66/67/65
f 78/82/97 79/93/97 67/68/97
f 67/70/67 79/94/67 80/83/67
f 80/83/68 81/85/68 69/84/68
f 81/85/69 82/86/69 70/73/69
f 82/86/70 83/98/70 71/74/70
f 71/74/71 83/98/71 84/87/71
f 84/87/72 73/88/72 61/64/72
f 73/88/73 85/191/73 86/89/73
f 86/89/74 87/90/74 75/78/74
f 87/90/75 88/192/75 76/79/75
f 76/79/76 88/192/76 89/91/76
f 89/91/77 90/92/77 78/82/77
f 90/92/78 91/193/78 79/93/78
f 79/94/79 91/194/79 92/95/79
f 92/95/80 93/96/80 81/85/80
f 93/96/81 94/97/81 82/86/81
f 94/97/82 95/195/82 83/98/82
f 83/98/83 95/195/83 96/99/83
f 96/99/84 85/191/84 73/88/84
f 85/100/6 97/124/6 98/101/6
f 98/101/5 99/104/5 87/103/5
f 99/104/4 100/127/4 88/105/4
f 88/105/3 100/127/3 101/106/3
f 101/106/2 102/109/2 90/108/2
f 102/109/1 103/130/1 91/110/1
f 103/111/12 104/114/12 92/112/12
f 104/114/11 105/116/11 93/115/11
f 105/116/10 106/118/10 94/117/10
f 106/118/9 107/120/9 95/119/9
f 107/120/8 108/122/8 96/121/8
f 108/122/7 97/124/7 85/100/7
f 109/123/18 110/125/18 98/101/18
f 110/125/17 111/126/17 99/104/17
f 111/126/16 112/139/16 100/127/16
f 100/127/15 112/139/15 113/128/15
f 113/128/14 114/141/14 102/109/14
f 102/109/13 114/141/13 115/129/13
f 115/131/24 116/144/24 104/114/24
f 104/114/23 116/144/23 117/132/23
f 117/132/22 118/133/22 106/118/22
f 118/133/21 119/134/21 107/120/21
f 119/134/20 120/135/20 108/122/20
f 120/135/19 109/123/19 97/124/19
f 121/136/30 122/137/30 110/125/30
f 122/137/29 123/138/29 111/126/29
f 123/138/28 124/151/28 112/139/28
f 112/139/27 124/151/27 125/140/27
f 125/140/26 126/142/26 114/141/26
f 126/142/85 127/154/85 115/129/85
f 115/131/86 127/156/86 128/143/86
f 116/144/35 128/143/35 129/145/35
f 129/145/34 130/159/34 118/133/34
f 118/133/33 130/159/33 131/146/33
f 119/134/32 131/146/32 132/147/32
f 132/147/31 121/136/31 109/123/31
f 133/148/87 134/149/87 122/137/87
f 134/149/41 135/150/41 123/138/41
f 135/150/40 136/165/40 124/151/40
f 124/151/39 136/165/39 137/152/39
f 125/140/38 137/152/38 138/153/38
f 138/153/37 139/169/37 127/154/37
f 139/155/98 140/157/98 128/143/98
f 140/157/47 141/158/47 129/145/47
f 141/158/46 142/160/46 130/159/46
f 142/160/45 143/161/45 131/146/45
f 143/161/44 144/162/44 132/147/44
f 144/162/43 133/148/43 121/136/43
f 133/148/54 145/175/54 146/163/54
f 134/149/53 146/163/53 147/164/53
f 147/164/52 148/178/52 136/165/52
f 136/165/51 148/178/51 149/166/51
f 137/152/50 149/166/50 150/167/50
f 138/153/49 150/167/49 151/168/49
f 151/170/60 152/171/60 140/157/60
f 152/171/59 153/172/59 141/158/59
f 153/172/58 154/183/58 142/160/58
f 142/160/57 154/183/57 155/173/57
f 155/173/56 156/174/56 144/162/56
f 156/174/55 145/175/55 133/148/55
f 145/175/97 157/186/97 158/176/97
f 158/176/65 159/177/65 147/164/65
f 159/177/64 160/187/64 148/178/64
f 148/178/63 160/187/63 161/179/63
f 149/166/62 161/179/62 162/180/62
f 162/180/61 163/188/61 151/168/61
f 151/170/72 163/189/72 164/181/72
f 164/181/71 165/182/71 153/172/71
f 165/182/70 166/190/70 154/183/70
f 154/183/69 166/190/69 167/184/69
f 155/173/68 167/184/68 168/185/68
f 168/185/99 157/186/99 145/175/99
f 157/186/78 1/1/78 2/3/78
f 2/3/77 3/4/77 159/177/77
f 3/4/76 4/6/76 160/187/76
f 160/187/75 4/6/75 5/7/75
f 5/7/74 6/9/74 162/180/74
f 6/9/73 7/10/73 163/188/73
f 163/189/84 7/11/84 8/13/84
f 8/13/83 9/14/83 165/182/83
f 9/14/82 10/16/82 166/190/82
f 10/16/81 11/17/81 167/184/81
f 167/184/80 11/17/80 12/19/80
f 12/19/79 1/1/79 157/186/79
