# Blender 4.1.1
# www.blender.org
mtllib vignette.mtl
o 球
v 0.000000 0.347446 -1.146764
v 0.000000 0.193454 -1.240474
v 0.000000 0.039462 -1.146764
v -0.001429 -0.033634 -0.479703
v 0.180286 0.426930 -0.444653
v 0.333125 0.339701 -0.813639
v 0.435249 0.347446 -1.060188
v 0.471110 0.193454 -1.146764
v 0.435249 0.039462 -1.060188
v 0.333125 0.008370 -0.813639
v 0.178857 -0.033634 -0.443842
v 0.333125 0.426930 -0.342530
v 0.615534 0.339701 -0.624939
v 0.804235 0.347446 -0.813639
v 0.870497 0.193454 -0.879902
v 0.804235 0.039462 -0.813639
v 0.615534 0.008370 -0.624939
v 0.331696 -0.033634 -0.341718
v 0.435249 0.426930 -0.189691
v 0.804234 0.339701 -0.342530
v 1.050783 0.347446 -0.444653
v 1.137359 0.193454 -0.480514
v 1.050783 0.039462 -0.444653
v 0.804234 0.008370 -0.342530
v 0.433819 -0.033634 -0.188879
v 0.471110 0.426930 -0.009405
v 0.870497 0.339701 -0.009405
v 1.137359 0.347446 -0.009405
v 1.231069 0.193454 -0.009405
v 1.137359 0.039462 -0.009405
v 0.870497 0.008370 -0.009405
v 0.469681 -0.033634 -0.008593
v 0.435249 0.426930 0.170881
v 0.804234 0.339701 0.323720
v 1.050783 0.347446 0.425844
v 1.137359 0.193454 0.461705
v 1.050783 0.039462 0.425844
v 0.804234 0.008370 0.323720
v 0.433819 -0.033634 0.171693
v 0.333125 0.426930 0.323720
v 0.615534 0.339701 0.606130
v 0.804234 0.347446 0.794830
v 0.870497 0.193454 0.861093
v 0.804234 0.039462 0.794830
v 0.615534 0.008370 0.606130
v 0.331696 -0.033634 0.324532
v 0.180286 0.426930 0.425844
v 0.333125 0.339701 0.794830
v 0.435248 0.347446 1.041378
v 0.471109 0.193454 1.127954
v 0.435248 0.039462 1.041378
v 0.333125 0.008370 0.794830
v 0.178857 -0.033634 0.426656
v -0.000000 0.426930 0.461705
v -0.000000 0.339701 0.861092
v -0.000000 0.347446 1.127954
v -0.000000 0.193454 1.221664
v -0.000000 0.039462 1.127954
v -0.000000 0.008370 0.861092
v -0.001429 -0.033634 0.462517
v -0.001429 -0.035037 -0.008593
v 0.000000 0.421845 -0.009405
v -0.180286 0.426930 0.425844
v -0.333125 0.339701 0.794829
v -0.435249 0.347446 1.041378
v -0.471110 0.193454 1.127954
v -0.435249 0.039462 1.041378
v -0.333125 0.008370 0.794829
v -0.181715 -0.033634 0.426656
v -0.333125 0.426930 0.323720
v -0.615535 0.339701 0.606129
v -0.804235 0.347446 0.794829
v -0.870497 0.193454 0.861092
v -0.804235 0.039462 0.794829
v -0.615535 0.008370 0.606129
v -0.334554 -0.033634 0.324532
v -0.435249 0.426930 0.170881
v -0.804234 0.339701 0.323720
v -1.050783 0.347446 0.425843
v -1.137359 0.193454 0.461704
v -1.050783 0.039462 0.425843
v -0.804234 0.008370 0.323720
v -0.436678 -0.033634 0.171693
v -0.471110 0.426930 -0.009405
v -0.870497 0.339701 -0.009405
v -1.137359 0.347446 -0.009405
v -1.231069 0.193454 -0.009405
v -1.137359 0.039462 -0.009405
v -0.870497 0.008370 -0.009405
v -0.472539 -0.033634 -0.008593
v -0.435249 0.426930 -0.189691
v -0.804234 0.339701 -0.342530
v -1.050783 0.347446 -0.444654
v -1.137359 0.193454 -0.480515
v -1.050783 0.039462 -0.444654
v -0.804234 0.008370 -0.342530
v -0.436678 -0.033634 -0.188879
v -0.333125 0.426930 -0.342530
v -0.615534 0.339701 -0.624939
v -0.804234 0.347446 -0.813640
v -0.870497 0.193454 -0.879902
v -0.804234 0.039462 -0.813640
v -0.615534 0.008370 -0.624939
v -0.334554 -0.033634 -0.341718
v -0.180286 0.426930 -0.444654
v -0.333124 0.339701 -0.813639
v -0.435248 0.347446 -1.060188
v -0.471109 0.193454 -1.146765
v -0.435248 0.039462 -1.060188
v -0.333124 0.008370 -0.813639
v -0.181715 -0.033634 -0.443842
v 0.000000 0.426930 -0.480515
v 0.000001 0.339701 -0.879902
v 0.000001 0.008370 -0.879902
v 0.172293 0.556301 -0.181698
v 0.168139 0.418198 -0.177543
v 0.118892 0.414576 -0.128297
v 0.243660 0.556301 -0.009405
v 0.237784 0.418198 -0.009405
v 0.168139 0.414576 -0.009405
v 0.172293 0.556301 0.162889
v 0.168139 0.418198 0.158734
v 0.118892 0.414576 0.109487
v 0.000000 0.556301 0.234255
v -0.000000 0.418198 0.228379
v -0.000000 0.414576 0.158734
v -0.172293 0.556301 0.162889
v -0.168139 0.418198 0.158734
v -0.118892 0.414576 0.109487
v -0.000000 0.412051 -0.009405
v -0.243660 0.556301 -0.009405
v -0.237784 0.418198 -0.009405
v -0.168139 0.414576 -0.009405
v -0.172293 0.556301 -0.181698
v -0.168139 0.418198 -0.177543
v -0.118892 0.414576 -0.128297
v 0.000000 0.559815 -0.009405
v 0.000000 0.556301 -0.253065
v -0.000000 0.418198 -0.247189
v -0.000000 0.414576 -0.177543
vn 0.1675 0.5125 -0.8422
vn 0.0424 0.9761 -0.2132
vn 0.0207 -0.9943 -0.1043
vn 0.1675 -0.5125 -0.8422
vn -0.0058 0.9996 0.0290
vn -0.0021 0.9999 0.0108
vn 0.0006 -1.0000 -0.0030
vn 0.0230 -0.9930 -0.1157
vn 0.0590 -0.9943 -0.0883
vn 0.4771 -0.5125 -0.7140
vn -0.0164 0.9996 0.0246
vn -0.0061 0.9999 0.0092
vn 0.0017 -1.0000 -0.0025
vn 0.0655 -0.9930 -0.0981
vn 0.4771 0.5125 -0.7140
vn 0.1208 0.9761 -0.1807
vn -0.0092 0.9999 0.0061
vn 0.0025 -1.0000 -0.0017
vn 0.0981 -0.9930 -0.0655
vn 0.7140 0.5125 -0.4771
vn 0.1807 0.9761 -0.1208
vn 0.0883 -0.9943 -0.0590
vn 0.7140 -0.5125 -0.4771
vn -0.0246 0.9996 0.0164
vn 0.1157 -0.9930 -0.0230
vn 0.8422 0.5125 -0.1675
vn 0.2132 0.9761 -0.0424
vn 0.1042 -0.9943 -0.0207
vn 0.8422 -0.5125 -0.1675
vn -0.0290 0.9996 0.0058
vn -0.0108 0.9999 0.0021
vn 0.0030 -1.0000 -0.0006
vn 0.1042 -0.9943 0.0207
vn 0.8422 -0.5125 0.1675
vn -0.0290 0.9996 -0.0058
vn -0.0108 0.9999 -0.0021
vn 0.0030 -1.0000 0.0006
vn 0.1157 -0.9930 0.0230
vn 0.8422 0.5125 0.1675
vn 0.2132 0.9761 0.0424
vn 0.7140 -0.5125 0.4771
vn -0.0246 0.9996 -0.0164
vn -0.0092 0.9999 -0.0061
vn 0.0025 -1.0000 0.0017
vn 0.0981 -0.9930 0.0655
vn 0.7140 0.5125 0.4771
vn 0.1807 0.9761 0.1208
vn 0.0885 -0.9943 0.0591
vn 0.0017 -1.0000 0.0025
vn 0.0655 -0.9930 0.0981
vn 0.4771 0.5125 0.7140
vn 0.1208 0.9761 0.1807
vn 0.0592 -0.9943 0.0886
vn 0.4771 -0.5125 0.7140
vn -0.0164 0.9996 -0.0246
vn -0.0061 0.9999 -0.0092
vn 0.1675 0.5125 0.8422
vn 0.0424 0.9761 0.2132
vn 0.0208 -0.9943 0.1047
vn 0.1675 -0.5125 0.8422
vn -0.0058 0.9996 -0.0290
vn -0.0021 0.9999 -0.0108
vn 0.0006 -1.0000 0.0030
vn 0.0230 -0.9930 0.1157
vn -0.0209 -0.9943 0.1049
vn -0.1675 -0.5125 0.8422
vn 0.0058 0.9996 -0.0290
vn 0.0021 0.9999 -0.0108
vn -0.0006 -1.0000 0.0030
vn -0.0230 -0.9930 0.1157
vn -0.1675 0.5125 0.8422
vn -0.0424 0.9761 0.2132
vn 0.0164 0.9996 -0.0246
vn 0.0061 0.9999 -0.0092
vn -0.0017 -1.0000 0.0025
vn -0.0655 -0.9930 0.0981
vn -0.4771 0.5125 0.7140
vn -0.1208 0.9761 0.1807
vn -0.0595 -0.9943 0.0890
vn -0.4771 -0.5125 0.7140
vn -0.0025 -1.0000 0.0017
vn -0.0981 -0.9930 0.0655
vn -0.7140 0.5125 0.4771
vn -0.1807 0.9761 0.1208
vn -0.0890 -0.9943 0.0595
vn -0.7140 -0.5125 0.4771
vn 0.0246 0.9996 -0.0164
vn 0.0092 0.9999 -0.0061
vn -0.2132 0.9761 0.0424
vn -0.1050 -0.9943 0.0209
vn -0.8422 -0.5125 0.1675
vn 0.0290 0.9996 -0.0058
vn 0.0108 0.9999 -0.0021
vn -0.0030 -1.0000 0.0006
vn -0.1157 -0.9930 0.0230
vn -0.8422 0.5125 0.1675
vn -0.1049 -0.9943 -0.0209
vn -0.8422 -0.5125 -0.1675
vn 0.0290 0.9996 0.0058
vn 0.0108 0.9999 0.0021
vn -0.0030 -1.0000 -0.0006
vn -0.1157 -0.9930 -0.0230
vn -0.8422 0.5125 -0.1675
vn -0.2132 0.9761 -0.0424
vn 0.0092 0.9999 0.0061
vn -0.0025 -1.0000 -0.0017
vn -0.0981 -0.9930 -0.0655
vn -0.7140 0.5125 -0.4771
vn -0.1807 0.9761 -0.1208
vn -0.0888 -0.9943 -0.0593
vn -0.7140 -0.5125 -0.4771
vn 0.0246 0.9996 0.0164
vn -0.0655 -0.9930 -0.0981
vn -0.4771 0.5125 -0.7140
vn -0.1208 0.9761 -0.1807
vn -0.0593 -0.9943 -0.0887
vn -0.4771 -0.5125 -0.7140
vn 0.0164 0.9996 0.0246
vn 0.0061 0.9999 0.0092
vn -0.0017 -1.0000 -0.0025
vn -0.0208 -0.9943 -0.1044
vn -0.1675 -0.5125 -0.8422
vn 0.0058 0.9996 0.0290
vn 0.0021 0.9999 0.0108
vn -0.0006 -1.0000 -0.0030
vn -0.0230 -0.9930 -0.1157
vn -0.1675 0.5125 -0.8422
vn -0.0424 0.9761 -0.2132
vn 0.3824 -0.0393 -0.9232
vn 0.0215 -0.9984 -0.0519
vn 0.0060 0.9999 -0.0144
vn 0.0062 -0.9999 -0.0150
vn 0.0519 -0.9984 -0.0215
vn 0.0144 0.9999 -0.0060
vn 0.0150 -0.9999 -0.0062
vn 0.9232 -0.0393 -0.3824
vn 0.0519 -0.9984 0.0215
vn 0.0144 0.9999 0.0060
vn 0.0150 -0.9999 0.0062
vn 0.9232 -0.0393 0.3824
vn 0.3824 -0.0393 0.9232
vn 0.0215 -0.9984 0.0519
vn 0.0060 0.9999 0.0144
vn 0.0062 -0.9999 0.0150
vn -0.0062 -0.9999 0.0150
vn -0.3824 -0.0393 0.9232
vn -0.0215 -0.9984 0.0519
vn -0.0060 0.9999 0.0144
vn -0.0150 -0.9999 0.0062
vn -0.9232 -0.0393 0.3824
vn -0.0519 -0.9984 0.0215
vn -0.0144 0.9999 0.0060
vn -0.0150 -0.9999 -0.0062
vn -0.9232 -0.0393 -0.3824
vn -0.0519 -0.9984 -0.0215
vn -0.0144 0.9999 -0.0060
vn -0.0062 -0.9999 -0.0150
vn -0.3824 -0.0393 -0.9232
vn -0.0215 -0.9984 -0.0519
vn -0.0060 0.9999 -0.0144
vt 0.312475 0.125050
vt 0.250000 0.156288
vt 0.250000 0.125050
vt 0.374950 0.125050
vt 0.437425 0.156287
vt 0.374950 0.156287
vt 0.125050 0.125050
vt 0.062575 0.156288
vt 0.062575 0.125050
vt 0.187525 0.156288
vt 0.187525 0.125050
vt 0.312475 0.156288
vt 0.437425 0.125050
vt 0.499900 0.140669
vt 0.000100 0.140669
vt 0.125050 0.156288
vt 0.062575 0.187525
vt 0.187525 0.187525
vt 0.374950 0.187525
vt 0.312475 0.187525
vt 0.499900 0.171906
vt 0.437425 0.187525
vt 0.000100 0.171906
vt 0.125050 0.187525
vt 0.250000 0.187525
vt 0.499900 0.203144
vt 0.437425 0.218763
vt 0.000100 0.203144
vt 0.062575 0.218763
vt 0.187525 0.218763
vt 0.125050 0.218763
vt 0.312475 0.218763
vt 0.250000 0.218763
vt 0.374950 0.218763
vt 0.187525 0.250000
vt 0.125050 0.250000
vt 0.312475 0.250000
vt 0.250000 0.250000
vt 0.374950 0.250000
vt 0.062575 0.250000
vt 0.499900 0.234381
vt 0.437425 0.250000
vt 0.000100 0.234381
vt 0.125050 0.281238
vt 0.062575 0.281238
vt 0.187525 0.281238
vt 0.312475 0.281238
vt 0.499900 0.265619
vt 0.437425 0.281238
vt 0.000100 0.265619
vt 0.250000 0.281238
vt 0.374950 0.281238
vt 0.187525 0.312475
vt 0.312475 0.312475
vt 0.499900 0.296856
vt 0.437425 0.312475
vt 0.000100 0.296856
vt 0.062575 0.312475
vt 0.125050 0.312475
vt 0.250000 0.312475
vt 0.374950 0.312475
vt 0.000100 0.328094
vt 0.062575 0.343713
vt 0.187525 0.343713
vt 0.125050 0.343713
vt 0.312475 0.343713
vt 0.250000 0.343713
vt 0.374950 0.343713
vt 0.499900 0.328094
vt 0.437425 0.343713
vt 0.312475 0.374950
vt 0.250000 0.374950
vt 0.374950 0.374950
vt 0.125050 0.374950
vt 0.062575 0.374950
vt 0.187525 0.374950
vt 0.499900 0.359331
vt 0.437425 0.374950
vt 0.000100 0.359331
vt 0.125050 0.406188
vt 0.062575 0.406188
vt 0.187525 0.406188
vt 0.312475 0.406188
vt 0.499900 0.390569
vt 0.437425 0.406188
vt 0.000100 0.390569
vt 0.250000 0.406188
vt 0.374950 0.406188
vt 0.312475 0.437425
vt 0.499900 0.421806
vt 0.437425 0.437425
vt 0.000100 0.421806
vt 0.062575 0.437425
vt 0.187525 0.437425
vt 0.125050 0.437425
vt 0.250000 0.437425
vt 0.374950 0.437425
vt 0.000100 0.453044
vt 0.062575 0.468663
vt 0.187525 0.468663
vt 0.125050 0.468663
vt 0.312475 0.468663
vt 0.250000 0.468663
vt 0.374950 0.468663
vt 0.499900 0.453044
vt 0.437425 0.468663
vt 0.374950 0.499900
vt 0.062575 0.499900
vt 0.187525 0.499900
vt 0.312475 0.499900
vt 0.499900 0.484281
vt 0.437425 0.499900
vt 0.000100 0.484281
vt 0.125050 0.499900
vt 0.250000 0.499900
vt 0.125050 0.000100
vt 0.062575 0.031338
vt 0.062575 0.000100
vt 0.250000 0.000100
vt 0.187525 0.031338
vt 0.187525 0.000100
vt 0.374950 0.000100
vt 0.312475 0.031337
vt 0.312475 0.000100
vt 0.437425 0.000100
vt 0.499900 0.015719
vt 0.437425 0.031338
vt 0.000100 0.015719
vt 0.125050 0.031338
vt 0.250000 0.031338
vt 0.374950 0.031338
vt 0.499900 0.046956
vt 0.437425 0.062575
vt 0.000100 0.046956
vt 0.062575 0.062575
vt 0.187525 0.062575
vt 0.125050 0.062575
vt 0.312475 0.062575
vt 0.250000 0.062575
vt 0.374950 0.062575
vt 0.187525 0.093813
vt 0.125050 0.093813
vt 0.312475 0.093813
vt 0.250000 0.093813
vt 0.374950 0.093813
vt 0.062575 0.093813
vt 0.499900 0.078194
vt 0.437425 0.093813
vt 0.000100 0.078194
vt 0.499900 0.109431
vt 0.000100 0.109431
vt 0.374950 0.625050
vt 0.250000 0.687525
vt 0.250000 0.625050
vt 0.125050 0.687525
vt 0.125050 0.625050
vt 0.499900 0.656287
vt 0.374950 0.687525
vt 0.000100 0.656287
vt 0.250000 0.750000
vt 0.125050 0.750000
vt 0.499900 0.718762
vt 0.374950 0.750000
vt 0.000100 0.718762
vt 0.125050 0.812475
vt 0.499900 0.781237
vt 0.374950 0.812475
vt 0.000100 0.781237
vt 0.250000 0.812475
vt 0.250000 0.874950
vt 0.125050 0.874950
vt 0.499900 0.843713
vt 0.374950 0.874950
vt 0.000100 0.843713
vt 0.000100 0.906188
vt 0.125050 0.937425
vt 0.250000 0.937425
vt 0.499900 0.906187
vt 0.374950 0.937425
vt 0.000100 0.968663
vt 0.125050 0.999900
vt 0.250000 0.999900
vt 0.499900 0.968663
vt 0.374950 0.999900
vt 0.000100 0.531337
vt 0.125050 0.500100
vt 0.125050 0.562575
vt 0.374950 0.500100
vt 0.250000 0.562575
vt 0.250000 0.500100
vt 0.499900 0.531337
vt 0.374950 0.562575
vt 0.000100 0.593812
vt 0.499900 0.593812
s 0
usemtl マテリアル
f 1/1/1 8/2/1 2/3/1
f 113/4/2 5/5/2 6/6/2
f 114/7/3 11/8/3 4/9/3
f 2/3/4 9/10/4 3/11/4
f 113/4/5 7/12/5 1/1/5
f 112/13/6 62/14/6 5/5/6
f 61/15/7 4/9/7 11/8/7
f 114/7/8 9/10/8 10/16/8
f 10/16/9 18/17/9 11/8/9
f 8/2/10 16/18/10 9/10/10
f 7/12/11 13/19/11 14/20/11
f 5/5/12 62/21/12 12/22/12
f 61/23/13 11/8/13 18/17/13
f 9/10/14 17/24/14 10/16/14
f 8/2/15 14/20/15 15/25/15
f 5/5/16 13/19/16 6/6/16
f 12/22/17 62/26/17 19/27/17
f 61/28/18 18/17/18 25/29/18
f 17/24/19 23/30/19 24/31/19
f 15/25/20 21/32/20 22/33/20
f 12/22/21 20/34/21 13/19/21
f 17/24/22 25/29/22 18/17/22
f 15/25/23 23/30/23 16/18/23
f 13/19/24 21/32/24 14/20/24
f 24/31/25 30/35/25 31/36/25
f 22/33/26 28/37/26 29/38/26
f 19/27/27 27/39/27 20/34/27
f 25/29/28 31/36/28 32/40/28
f 22/33/29 30/35/29 23/30/29
f 20/34/30 28/37/30 21/32/30
f 19/27/31 62/41/31 26/42/31
f 61/43/32 25/29/32 32/40/32
f 32/40/33 38/44/33 39/45/33
f 29/38/34 37/46/34 30/35/34
f 27/39/35 35/47/35 28/37/35
f 26/42/36 62/48/36 33/49/36
f 61/50/37 32/40/37 39/45/37
f 31/36/38 37/46/38 38/44/38
f 29/38/39 35/47/39 36/51/39
f 26/42/40 34/52/40 27/39/40
f 36/51/41 44/53/41 37/46/41
f 34/52/42 42/54/42 35/47/42
f 33/49/43 62/55/43 40/56/43
f 61/57/44 39/45/44 46/58/44
f 38/44/45 44/53/45 45/59/45
f 36/51/46 42/54/46 43/60/46
f 34/52/47 40/56/47 41/61/47
f 39/45/48 45/59/48 46/58/48
f 61/62/49 46/58/49 53/63/49
f 45/59/50 51/64/50 52/65/50
f 43/60/51 49/66/51 50/67/51
f 40/56/52 48/68/52 41/61/52
f 46/58/53 52/65/53 53/63/53
f 43/60/54 51/64/54 44/53/54
f 41/61/55 49/66/55 42/54/55
f 40/56/56 62/69/56 47/70/56
f 50/67/57 56/71/57 57/72/57
f 47/70/58 55/73/58 48/68/58
f 53/63/59 59/74/59 60/75/59
f 50/67/60 58/76/60 51/64/60
f 48/68/61 56/71/61 49/66/61
f 47/70/62 62/77/62 54/78/62
f 61/79/63 53/63/63 60/75/63
f 52/65/64 58/76/64 59/74/64
f 60/75/65 68/80/65 69/81/65
f 57/72/66 67/82/66 58/76/66
f 55/73/67 65/83/67 56/71/67
f 54/78/68 62/84/68 63/85/68
f 61/86/69 60/75/69 69/81/69
f 59/74/70 67/82/70 68/80/70
f 57/72/71 65/83/71 66/87/71
f 55/73/72 63/85/72 64/88/72
f 64/88/73 72/89/73 65/83/73
f 63/85/74 62/90/74 70/91/74
f 61/92/75 69/81/75 76/93/75
f 68/80/76 74/94/76 75/95/76
f 66/87/77 72/89/77 73/96/77
f 64/88/78 70/91/78 71/97/78
f 69/81/79 75/95/79 76/93/79
f 66/87/80 74/94/80 67/82/80
f 61/98/81 76/93/81 83/99/81
f 75/95/82 81/100/82 82/101/82
f 73/96/83 79/102/83 80/103/83
f 70/91/84 78/104/84 71/97/84
f 76/93/85 82/101/85 83/99/85
f 73/96/86 81/100/86 74/94/86
f 71/97/87 79/102/87 72/89/87
f 70/91/88 62/105/88 77/106/88
f 77/106/89 85/107/89 78/104/89
f 82/101/90 90/108/90 83/99/90
f 80/103/91 88/109/91 81/100/91
f 78/104/92 86/110/92 79/102/92
f 77/106/93 62/111/93 84/112/93
f 61/113/94 83/99/94 90/108/94
f 82/101/95 88/109/95 89/114/95
f 80/103/96 86/110/96 87/115/96
f 89/116/97 97/117/97 90/118/97
f 87/119/98 95/120/98 88/121/98
f 85/122/99 93/123/99 86/124/99
f 84/125/100 62/126/100 91/127/100
f 61/128/101 90/118/101 97/117/101
f 89/116/102 95/120/102 96/129/102
f 87/119/103 93/123/103 94/130/103
f 84/125/104 92/131/104 85/122/104
f 91/127/105 62/132/105 98/133/105
f 61/134/106 97/117/106 104/135/106
f 96/129/107 102/136/107 103/137/107
f 94/130/108 100/138/108 101/139/108
f 91/127/109 99/140/109 92/131/109
f 96/129/110 104/135/110 97/117/110
f 94/130/111 102/136/111 95/120/111
f 92/131/112 100/138/112 93/123/112
f 103/137/113 109/141/113 110/142/113
f 101/139/114 107/143/114 108/144/114
f 98/133/115 106/145/115 99/140/115
f 103/137/116 111/146/116 104/135/116
f 101/139/117 109/141/117 102/136/117
f 99/140/118 107/143/118 100/138/118
f 98/133/119 62/147/119 105/148/119
f 61/149/120 104/135/120 111/146/120
f 110/142/121 4/9/121 111/146/121
f 108/144/122 3/11/122 109/141/122
f 106/145/123 1/1/123 107/143/123
f 105/148/124 62/150/124 112/13/124
f 61/151/125 111/146/125 4/9/125
f 110/142/126 3/11/126 114/7/126
f 108/144/127 1/1/127 2/3/127
f 105/148/128 113/4/128 106/145/128
f 138/152/129 116/153/129 139/154/129
f 139/154/130 117/155/130 140/156/130
f 138/152/131 137/157/131 115/158/131
f 130/159/132 140/156/132 117/155/132
f 117/155/133 119/160/133 120/161/133
f 115/158/134 137/162/134 118/163/134
f 130/164/135 117/155/135 120/161/135
f 115/158/136 119/160/136 116/153/136
f 119/160/137 123/165/137 120/161/137
f 118/163/138 137/166/138 121/167/138
f 130/168/139 120/161/139 123/165/139
f 118/163/140 122/169/140 119/160/140
f 121/167/141 125/170/141 122/169/141
f 123/165/142 125/170/142 126/171/142
f 121/167/143 137/172/143 124/173/143
f 130/174/144 123/165/144 126/171/144
f 130/175/145 126/171/145 129/176/145
f 124/173/146 128/177/146 125/170/146
f 125/170/147 129/176/147 126/171/147
f 124/173/148 137/178/148 127/179/148
f 130/180/149 129/176/149 133/181/149
f 127/179/150 132/182/150 128/177/150
f 129/176/151 132/182/151 133/181/151
f 127/179/152 137/183/152 131/184/152
f 130/185/153 133/186/153 136/187/153
f 131/188/154 135/189/154 132/190/154
f 132/190/155 136/187/155 133/186/155
f 131/188/156 137/191/156 134/192/156
f 130/193/157 136/187/157 140/156/157
f 134/192/158 139/154/158 135/189/158
f 136/187/159 139/154/159 140/156/159
f 134/192/160 137/194/160 138/152/160
f 1/1/1 7/12/1 8/2/1
f 113/4/2 112/13/2 5/5/2
f 114/7/3 10/16/3 11/8/3
f 2/3/4 8/2/4 9/10/4
f 113/4/5 6/6/5 7/12/5
f 114/7/8 3/11/8 9/10/8
f 10/16/9 17/24/9 18/17/9
f 8/2/10 15/25/10 16/18/10
f 7/12/11 6/6/11 13/19/11
f 9/10/14 16/18/14 17/24/14
f 8/2/15 7/12/15 14/20/15
f 5/5/16 12/22/16 13/19/16
f 17/24/19 16/18/19 23/30/19
f 15/25/20 14/20/20 21/32/20
f 12/22/21 19/27/21 20/34/21
f 17/24/22 24/31/22 25/29/22
f 15/25/23 22/33/23 23/30/23
f 13/19/24 20/34/24 21/32/24
f 24/31/25 23/30/25 30/35/25
f 22/33/26 21/32/26 28/37/26
f 19/27/27 26/42/27 27/39/27
f 25/29/28 24/31/28 31/36/28
f 22/33/29 29/38/29 30/35/29
f 20/34/30 27/39/30 28/37/30
f 32/40/33 31/36/33 38/44/33
f 29/38/34 36/51/34 37/46/34
f 27/39/35 34/52/35 35/47/35
f 31/36/38 30/35/38 37/46/38
f 29/38/39 28/37/39 35/47/39
f 26/42/40 33/49/40 34/52/40
f 36/51/41 43/60/41 44/53/41
f 34/52/42 41/61/42 42/54/42
f 38/44/45 37/46/45 44/53/45
f 36/51/46 35/47/46 42/54/46
f 34/52/47 33/49/47 40/56/47
f 39/45/48 38/44/48 45/59/48
f 45/59/50 44/53/50 51/64/50
f 43/60/51 42/54/51 49/66/51
f 40/56/52 47/70/52 48/68/52
f 46/58/53 45/59/53 52/65/53
f 43/60/54 50/67/54 51/64/54
f 41/61/55 48/68/55 49/66/55
f 50/67/57 49/66/57 56/71/57
f 47/70/58 54/78/58 55/73/58
f 53/63/59 52/65/59 59/74/59
f 50/67/60 57/72/60 58/76/60
f 48/68/61 55/73/61 56/71/61
f 52/65/64 51/64/64 58/76/64
f 60/75/65 59/74/65 68/80/65
f 57/72/66 66/87/66 67/82/66
f 55/73/67 64/88/67 65/83/67
f 59/74/70 58/76/70 67/82/70
f 57/72/71 56/71/71 65/83/71
f 55/73/72 54/78/72 63/85/72
f 64/88/73 71/97/73 72/89/73
f 68/80/76 67/82/76 74/94/76
f 66/87/77 65/83/77 72/89/77
f 64/88/78 63/85/78 70/91/78
f 69/81/79 68/80/79 75/95/79
f 66/87/80 73/96/80 74/94/80
f 75/95/82 74/94/82 81/100/82
f 73/96/83 72/89/83 79/102/83
f 70/91/84 77/106/84 78/104/84
f 76/93/85 75/95/85 82/101/85
f 73/96/86 80/103/86 81/100/86
f 71/97/87 78/104/87 79/102/87
f 77/106/89 84/112/89 85/107/89
f 82/101/90 89/114/90 90/108/90
f 80/103/91 87/115/91 88/109/91
f 78/104/92 85/107/92 86/110/92
f 82/101/95 81/100/95 88/109/95
f 80/103/96 79/102/96 86/110/96
f 89/116/97 96/129/97 97/117/97
f 87/119/98 94/130/98 95/120/98
f 85/122/99 92/131/99 93/123/99
f 89/116/102 88/121/102 95/120/102
f 87/119/103 86/124/103 93/123/103
f 84/125/104 91/127/104 92/131/104
f 96/129/107 95/120/107 102/136/107
f 94/130/108 93/123/108 100/138/108
f 91/127/109 98/133/109 99/140/109
f 96/129/110 103/137/110 104/135/110
f 94/130/111 101/139/111 102/136/111
f 92/131/112 99/140/112 100/138/112
f 103/137/113 102/136/113 109/141/113
f 101/139/114 100/138/114 107/143/114
f 98/133/115 105/148/115 106/145/115
f 103/137/116 110/142/116 111/146/116
f 101/139/117 108/144/117 109/141/117
f 99/140/118 106/145/118 107/143/118
f 110/142/121 114/7/121 4/9/121
f 108/144/122 2/3/122 3/11/122
f 106/145/123 113/4/123 1/1/123
f 110/142/126 109/141/126 3/11/126
f 108/144/127 107/143/127 1/1/127
f 105/148/128 112/13/128 113/4/128
f 138/152/129 115/158/129 116/153/129
f 139/154/130 116/153/130 117/155/130
f 117/155/133 116/153/133 119/160/133
f 115/158/136 118/163/136 119/160/136
f 119/160/137 122/169/137 123/165/137
f 118/163/140 121/167/140 122/169/140
f 121/167/141 124/173/141 125/170/141
f 123/165/142 122/169/142 125/170/142
f 124/173/146 127/179/146 128/177/146
f 125/170/147 128/177/147 129/176/147
f 127/179/150 131/184/150 132/182/150
f 129/176/151 128/177/151 132/182/151
f 131/188/154 134/192/154 135/189/154
f 132/190/155 135/189/155 136/187/155
f 134/192/158 138/152/158 139/154/158
f 136/187/159 135/189/159 139/154/159
