# Blender 4.1.1
# www.blender.org
mtllib normalEnemy.mtl
o 立方体
v -0.502401 1.286196 0.502401
v -0.502401 2.290998 0.502401
v -0.502401 1.286196 -0.502401
v -0.502401 2.290998 -0.502401
v 0.502401 1.286196 0.502401
v 0.502401 2.290998 0.502401
v 0.502401 1.286196 -0.502401
v 0.502401 2.290998 -0.502401
v -0.746956 1.788597 0.746956
v -0.746956 1.788597 -0.746956
v 0.746956 1.788597 -0.746956
v 0.746956 1.788597 0.746956
v 0.000000 1.035981 -0.752616
v 0.000000 2.541213 -0.752616
v 0.000000 1.035981 0.752616
v 0.000000 2.541213 0.752616
v 0.000000 1.788597 1.500725
v 0.000000 1.788597 -1.500725
v -0.752616 1.035981 0.000000
v -0.752616 2.541213 0.000000
v 0.752616 1.035981 0.000000
v 0.752616 2.541213 0.000000
v 1.515541 1.788597 0.000000
v -1.515541 1.788597 0.000000
v 0.000000 3.288160 0.000000
v 0.000000 0.289034 0.000000
v -0.624679 2.039797 0.624679
v -0.624679 2.039797 -0.624679
v 0.624679 2.039797 -0.624679
v 0.624679 2.039797 0.624679
v 0.000000 2.164905 1.126670
v 0.000000 2.164905 -1.126670
v 1.134079 2.164905 0.000000
v -1.134079 2.164905 0.000000
v -0.747339 1.621355 -0.755577
v 0.739101 1.629592 -0.747339
v 0.747339 1.621355 0.747339
v -0.747339 1.629592 0.747339
v 0.000000 1.624886 -1.493091
v 0.000000 1.633123 1.501329
v -1.525245 1.624430 0.000000
v 1.510876 1.633123 0.000000
v -0.735749 1.910042 -0.752225
v 0.743987 1.910042 -0.743987
v 0.743987 1.910042 0.743987
v 0.000000 1.906768 1.488241
v 0.000000 1.915005 -1.488241
v 1.509067 1.931481 0.000000
v -1.513192 1.923243 0.000000
v -0.752225 1.910042 0.743987
v -1.881187 1.910848 -0.200610
v -1.881187 1.679204 -0.200610
v -1.823276 1.995636 -0.100305
v -1.780882 1.910848 -0.173733
v -1.765365 1.795026 -0.200610
v -1.780882 1.679204 -0.173733
v -1.823276 1.594416 -0.100305
v -1.780882 1.995636 -0.057911
v -1.707453 1.910848 -0.100305
v -1.680577 1.795026 -0.115822
v -1.707453 1.679204 -0.100305
v -1.780882 1.594416 -0.057911
v -1.765365 1.995636 0.000000
v -1.680577 1.910848 0.000000
v -1.649542 1.795026 0.000000
v -1.680577 1.679204 0.000000
v -1.765365 1.594416 0.000000
v -1.780882 1.995636 0.057911
v -1.707453 1.910848 0.100305
v -1.680577 1.795026 0.115822
v -1.707453 1.679204 0.100305
v -1.780882 1.594416 0.057911
v -1.823276 1.995636 0.100305
v -1.780882 1.910848 0.173733
v -1.765365 1.795026 0.200610
v -1.780882 1.679204 0.173733
v -1.823276 1.594416 0.100305
v -1.881187 1.995636 0.115822
v -1.881187 1.910848 0.200610
v -1.881187 1.795026 0.231644
v -1.881187 1.679204 0.200610
v -1.881187 1.594416 0.115822
v -1.881187 2.026670 0.000000
v -1.939098 1.995636 0.100305
v -1.981492 1.910848 0.173733
v -1.997009 1.795026 0.200610
v -1.981492 1.679204 0.173733
v -1.939098 1.594416 0.100305
v -1.881187 1.563382 0.000000
v -1.981492 1.995636 0.057911
v -2.054920 1.910848 0.100305
v -2.081797 1.795026 0.115822
v -2.054920 1.679204 0.100305
v -1.981492 1.594416 0.057911
v -1.997009 1.995636 0.000000
v -2.081796 1.910848 -0.000000
v -2.112831 1.795026 0.000000
v -2.081796 1.679204 -0.000000
v -1.997009 1.594416 0.000000
v -1.981492 1.995636 -0.057911
v -2.054920 1.910848 -0.100305
v -2.081797 1.795026 -0.115822
v -2.054920 1.679204 -0.100305
v -1.981492 1.594416 -0.057911
v -1.939098 1.995636 -0.100305
v -1.981492 1.910848 -0.173733
v -1.997009 1.795026 -0.200610
v -1.981492 1.679204 -0.173733
v -1.939098 1.594416 -0.100305
v -1.881187 1.995636 -0.115822
v -1.881187 1.795026 -0.231644
v -1.881187 1.594416 -0.115822
v 1.891377 1.910848 -0.200610
v 1.891377 1.679204 -0.200610
v 1.949288 1.995636 -0.100305
v 1.991682 1.910848 -0.173733
v 2.007199 1.795026 -0.200610
v 1.991682 1.679204 -0.173733
v 1.949288 1.594416 -0.100305
v 1.991682 1.995636 -0.057911
v 2.065110 1.910848 -0.100305
v 2.091987 1.795026 -0.115822
v 2.065110 1.679204 -0.100305
v 1.991682 1.594416 -0.057911
v 2.007199 1.995636 0.000000
v 2.091987 1.910848 0.000000
v 2.123021 1.795026 0.000000
v 2.091987 1.679204 0.000000
v 2.007199 1.594416 0.000000
v 1.991682 1.995636 0.057911
v 2.065110 1.910848 0.100305
v 2.091987 1.795026 0.115822
v 2.065110 1.679204 0.100305
v 1.991682 1.594416 0.057911
v 1.949288 1.995636 0.100305
v 1.991682 1.910848 0.173733
v 2.007199 1.795026 0.200610
v 1.991682 1.679204 0.173733
v 1.949288 1.594416 0.100305
v 1.891377 1.995636 0.115822
v 1.891377 1.910848 0.200610
v 1.891377 1.795026 0.231644
v 1.891377 1.679204 0.200610
v 1.891377 1.594416 0.115822
v 1.891377 2.026670 0.000000
v 1.833466 1.995636 0.100305
v 1.791072 1.910848 0.173733
v 1.775555 1.795026 0.200610
v 1.791072 1.679204 0.173733
v 1.833466 1.594416 0.100305
v 1.891377 1.563382 0.000000
v 1.791072 1.995636 0.057911
v 1.717644 1.910848 0.100305
v 1.690767 1.795026 0.115822
v 1.717644 1.679204 0.100305
v 1.791072 1.594416 0.057911
v 1.775555 1.995636 0.000000
v 1.690767 1.910848 -0.000000
v 1.659732 1.795026 0.000000
v 1.690767 1.679204 -0.000000
v 1.775555 1.594416 0.000000
v 1.791072 1.995636 -0.057911
v 1.717644 1.910848 -0.100305
v 1.690767 1.795026 -0.115822
v 1.717644 1.679204 -0.100305
v 1.791072 1.594416 -0.057911
v 1.833466 1.995636 -0.100305
v 1.791072 1.910848 -0.173733
v 1.775555 1.795026 -0.200610
v 1.791072 1.679204 -0.173733
v 1.833466 1.594416 -0.100305
v 1.891377 1.995636 -0.115822
v 1.891377 1.795026 -0.231644
v 1.891377 1.594416 -0.115822
v 0.207489 1.910848 -1.897298
v 0.207489 1.679204 -1.897298
v 0.106996 1.995636 -1.839714
v 0.180286 1.910848 -1.797081
v 0.207112 1.795026 -1.781477
v 0.180286 1.679204 -1.797081
v 0.106996 1.594416 -1.839714
v 0.064464 1.995636 -1.797459
v 0.106619 1.910848 -1.723893
v 0.122048 1.795026 -1.696966
v 0.106619 1.679204 -1.723893
v 0.064464 1.594416 -1.797459
v 0.006503 1.995636 -1.782130
v 0.006227 1.910848 -1.697343
v 0.006126 1.795026 -1.666309
v 0.006227 1.679204 -1.697343
v 0.006503 1.594416 -1.782130
v -0.051357 1.995636 -1.797836
v -0.093990 1.910848 -1.724547
v -0.109595 1.795026 -1.697721
v -0.093990 1.679204 -1.724547
v -0.051357 1.594416 -1.797836
v -0.093613 1.995636 -1.840368
v -0.167179 1.910848 -1.798214
v -0.194106 1.795026 -1.782784
v -0.167179 1.679204 -1.798214
v -0.093613 1.594416 -1.840368
v -0.108941 1.995636 -1.898329
v -0.193728 1.910848 -1.898606
v -0.224763 1.795026 -1.898707
v -0.193728 1.679204 -1.898606
v -0.108941 1.594416 -1.898329
v 0.006880 2.026670 -1.897952
v -0.093235 1.995636 -1.956190
v -0.166525 1.910848 -1.998823
v -0.193351 1.795026 -2.014427
v -0.166525 1.679204 -1.998823
v -0.093235 1.594416 -1.956190
v 0.006880 1.563382 -1.897952
v -0.050704 1.995636 -1.998445
v -0.092858 1.910848 -2.072011
v -0.108288 1.795026 -2.098938
v -0.092858 1.679204 -2.072011
v -0.050704 1.594416 -1.998445
v 0.007258 1.995636 -2.013774
v 0.007534 1.910848 -2.098561
v 0.007635 1.795026 -2.129595
v 0.007534 1.679204 -2.098561
v 0.007258 1.594416 -2.013774
v 0.065118 1.995636 -1.998068
v 0.107751 1.910848 -2.071357
v 0.123356 1.795026 -2.098183
v 0.107751 1.679204 -2.071357
v 0.065118 1.594416 -1.998068
v 0.107373 1.995636 -1.955536
v 0.180939 1.910848 -1.997690
v 0.207867 1.795026 -2.013120
v 0.180939 1.679204 -1.997690
v 0.107373 1.594416 -1.955536
v 0.122702 1.995636 -1.897575
v 0.238523 1.795026 -1.897197
v 0.122702 1.594416 -1.897575
v 0.195197 1.910848 1.875245
v 0.195197 1.679204 1.875245
v 0.094704 1.995636 1.932829
v 0.167993 1.910848 1.975462
v 0.194819 1.795026 1.991067
v 0.167993 1.679204 1.975462
v 0.094704 1.594416 1.932829
v 0.052172 1.995636 1.975084
v 0.094326 1.910848 2.048651
v 0.109756 1.795026 2.075578
v 0.094326 1.679204 2.048651
v 0.052172 1.594416 1.975084
v -0.005790 1.995636 1.990413
v -0.006066 1.910848 2.075201
v -0.006167 1.795026 2.106234
v -0.006066 1.679204 2.075201
v -0.005790 1.594416 1.990413
v -0.063650 1.995636 1.974707
v -0.106283 1.910848 2.047997
v -0.121887 1.795026 2.074823
v -0.106283 1.679204 2.047997
v -0.063650 1.594416 1.974707
v -0.105905 1.995636 1.932175
v -0.179471 1.910848 1.974330
v -0.206398 1.795026 1.989760
v -0.179471 1.679204 1.974330
v -0.105905 1.594416 1.932175
v -0.121234 1.995636 1.874214
v -0.206021 1.910848 1.873938
v -0.237055 1.795026 1.873837
v -0.206021 1.679204 1.873938
v -0.121234 1.594416 1.874214
v -0.005412 2.026670 1.874591
v -0.105528 1.995636 1.816354
v -0.178818 1.910848 1.773721
v -0.205644 1.795026 1.758116
v -0.178818 1.679204 1.773721
v -0.105528 1.594416 1.816354
v -0.005412 1.563382 1.874591
v -0.062996 1.995636 1.774098
v -0.105150 1.910848 1.700532
v -0.120580 1.795026 1.673605
v -0.105150 1.679204 1.700532
v -0.062996 1.594416 1.774098
v -0.005035 1.995636 1.758770
v -0.004758 1.910848 1.673983
v -0.004657 1.795026 1.642948
v -0.004758 1.679204 1.673983
v -0.005035 1.594416 1.758770
v 0.052825 1.995636 1.774476
v 0.095458 1.910848 1.701186
v 0.111063 1.795026 1.674360
v 0.095458 1.679204 1.701186
v 0.052825 1.594416 1.774476
v 0.095081 1.995636 1.817008
v 0.168647 1.910848 1.774853
v 0.195574 1.795026 1.759423
v 0.168647 1.679204 1.774853
v 0.095081 1.594416 1.817008
v 0.110409 1.995636 1.874969
v 0.226231 1.795026 1.875346
v 0.110409 1.594416 1.874969
v -1.096613 1.910848 -1.385537
v -1.096613 1.679204 -1.385537
v -1.126590 1.995636 -1.273661
v -1.044691 1.910848 -1.295606
v -1.014714 1.795026 -1.303638
v -1.044691 1.679204 -1.295606
v -1.126590 1.594416 -1.273661
v -1.126590 1.995636 -1.213707
v -1.044691 1.910848 -1.191762
v -1.014714 1.795026 -1.183730
v -1.044691 1.679204 -1.191762
v -1.126590 1.594416 -1.213707
v -1.156567 1.995636 -1.161785
v -1.096613 1.910848 -1.101831
v -1.074668 1.795026 -1.079887
v -1.096613 1.679204 -1.101831
v -1.156567 1.594416 -1.161785
v -1.208488 1.995636 -1.131808
v -1.186544 1.910848 -1.049910
v -1.178511 1.795026 -1.019933
v -1.186544 1.679204 -1.049910
v -1.208488 1.594416 -1.131808
v -1.268442 1.995636 -1.131808
v -1.290387 1.910848 -1.049910
v -1.298419 1.795026 -1.019933
v -1.290387 1.679204 -1.049910
v -1.268442 1.594416 -1.131808
v -1.320364 1.995636 -1.161785
v -1.380318 1.910848 -1.101831
v -1.402263 1.795026 -1.079887
v -1.380318 1.679204 -1.101831
v -1.320364 1.594416 -1.161785
v -1.238465 2.026670 -1.243684
v -1.350341 1.995636 -1.213707
v -1.432240 1.910848 -1.191762
v -1.462216 1.795026 -1.183730
v -1.432240 1.679204 -1.191762
v -1.350341 1.594416 -1.213707
v -1.238465 1.563382 -1.243684
v -1.350341 1.995636 -1.273661
v -1.432240 1.910848 -1.295606
v -1.462216 1.795026 -1.303638
v -1.432240 1.679204 -1.295606
v -1.350341 1.594416 -1.273661
v -1.320364 1.995636 -1.325583
v -1.380318 1.910848 -1.385537
v -1.402263 1.795026 -1.407481
v -1.380318 1.679204 -1.385537
v -1.320364 1.594416 -1.325583
v -1.268442 1.995636 -1.355560
v -1.290387 1.910848 -1.437458
v -1.298419 1.795026 -1.467435
v -1.290387 1.679204 -1.437458
v -1.268442 1.594416 -1.355560
v -1.208488 1.995636 -1.355560
v -1.186544 1.910848 -1.437458
v -1.178511 1.795026 -1.467435
v -1.186544 1.679204 -1.437458
v -1.208488 1.594416 -1.355560
v -1.156567 1.995636 -1.325583
v -1.074668 1.795026 -1.407481
v -1.156567 1.594416 -1.325583
v 1.570993 1.910848 1.282069
v 1.570993 1.679204 1.282069
v 1.541016 1.995636 1.393944
v 1.622914 1.910848 1.372000
v 1.652891 1.795026 1.363967
v 1.622914 1.679204 1.372000
v 1.541016 1.594416 1.393944
v 1.541016 1.995636 1.453898
v 1.622914 1.910848 1.475843
v 1.652891 1.795026 1.483875
v 1.622914 1.679204 1.475843
v 1.541016 1.594416 1.453898
v 1.511039 1.995636 1.505820
v 1.570993 1.910848 1.565774
v 1.592937 1.795026 1.587719
v 1.570993 1.679204 1.565774
v 1.511039 1.594416 1.505820
v 1.459117 1.995636 1.535797
v 1.481062 1.910848 1.617695
v 1.489094 1.795026 1.647673
v 1.481062 1.679204 1.617695
v 1.459117 1.594416 1.535797
v 1.399163 1.995636 1.535797
v 1.377218 1.910848 1.617695
v 1.369186 1.795026 1.647673
v 1.377218 1.679204 1.617695
v 1.399163 1.594416 1.535797
v 1.347241 1.995636 1.505820
v 1.287287 1.910848 1.565774
v 1.265343 1.795026 1.587719
v 1.287287 1.679204 1.565774
v 1.347241 1.594416 1.505820
v 1.429140 2.026670 1.423921
v 1.317264 1.995636 1.453898
v 1.235366 1.910848 1.475843
v 1.205389 1.795026 1.483875
v 1.235366 1.679204 1.475843
v 1.317264 1.594416 1.453898
v 1.429140 1.563382 1.423921
v 1.317264 1.995636 1.393944
v 1.235366 1.910848 1.372000
v 1.205389 1.795026 1.363967
v 1.235366 1.679204 1.372000
v 1.317264 1.594416 1.393944
v 1.347241 1.995636 1.342023
v 1.287287 1.910848 1.282069
v 1.265343 1.795026 1.260124
v 1.287287 1.679204 1.282069
v 1.347241 1.594416 1.342023
v 1.399163 1.995636 1.312046
v 1.377219 1.910848 1.230147
v 1.369186 1.795026 1.200170
v 1.377219 1.679204 1.230147
v 1.399163 1.594416 1.312046
v 1.459117 1.995636 1.312046
v 1.481061 1.910848 1.230147
v 1.489094 1.795026 1.200170
v 1.481061 1.679204 1.230147
v 1.459117 1.594416 1.312046
v 1.511039 1.995636 1.342023
v 1.592937 1.795026 1.260124
v 1.511039 1.594416 1.342023
v 1.580044 1.910848 -1.108360
v 1.580044 1.679204 -1.108360
v 1.468267 1.995636 -1.138701
v 1.489944 1.910848 -1.056731
v 1.497879 1.795026 -1.026728
v 1.489944 1.679204 -1.056731
v 1.468267 1.594416 -1.138701
v 1.408313 1.995636 -1.138896
v 1.386102 1.910848 -1.057070
v 1.377972 1.795026 -1.027119
v 1.386102 1.679204 -1.057070
v 1.408313 1.594416 -1.138896
v 1.356490 1.995636 -1.169042
v 1.296340 1.910848 -1.109284
v 1.274324 1.795026 -1.087411
v 1.296340 1.679204 -1.109284
v 1.356490 1.594416 -1.169042
v 1.326682 1.995636 -1.221061
v 1.244712 1.910848 -1.199384
v 1.214709 1.795026 -1.191449
v 1.244712 1.679204 -1.199384
v 1.326682 1.594416 -1.221061
v 1.326877 1.995636 -1.281015
v 1.245050 1.910848 -1.303226
v 1.215100 1.795026 -1.311356
v 1.245050 1.679204 -1.303226
v 1.326877 1.594416 -1.281015
v 1.357023 1.995636 -1.332839
v 1.297265 1.910848 -1.392988
v 1.275392 1.795026 -1.415004
v 1.297265 1.679204 -1.392988
v 1.357023 1.594416 -1.332839
v 1.438654 2.026670 -1.250674
v 1.409042 1.995636 -1.362646
v 1.387364 1.910848 -1.444616
v 1.379430 1.795026 -1.474619
v 1.387364 1.679204 -1.444616
v 1.409042 1.594416 -1.362646
v 1.438654 1.563382 -1.250674
v 1.468996 1.995636 -1.362451
v 1.491207 1.910848 -1.444278
v 1.499337 1.795026 -1.474229
v 1.491207 1.679204 -1.444278
v 1.468996 1.594416 -1.362451
v 1.520819 1.995636 -1.332305
v 1.580968 1.910848 -1.392063
v 1.602985 1.795026 -1.413936
v 1.580968 1.679204 -1.392063
v 1.520819 1.594416 -1.332305
v 1.550627 1.995636 -1.280286
v 1.632597 1.910848 -1.301964
v 1.662600 1.795026 -1.309898
v 1.632597 1.679204 -1.301964
v 1.550627 1.594416 -1.280286
v 1.550432 1.995636 -1.220332
v 1.632258 1.910848 -1.198121
v 1.662209 1.795026 -1.189991
v 1.632258 1.679204 -1.198121
v 1.550432 1.594416 -1.220332
v 1.520286 1.995636 -1.168509
v 1.601917 1.795026 -1.086344
v 1.520286 1.594416 -1.168509
v -1.096239 1.910848 1.550539
v -1.096239 1.679204 1.550539
v -1.208016 1.995636 1.520198
v -1.186339 1.910848 1.602167
v -1.178404 1.795026 1.632171
v -1.186339 1.679204 1.602167
v -1.208016 1.594416 1.520198
v -1.267970 1.995636 1.520002
v -1.290181 1.910848 1.601830
v -1.298312 1.795026 1.631780
v -1.290181 1.679204 1.601830
v -1.267970 1.594416 1.520002
v -1.319794 1.995636 1.489857
v -1.379943 1.910848 1.549615
v -1.401959 1.795026 1.571488
v -1.379943 1.679204 1.549615
v -1.319794 1.594416 1.489857
v -1.349602 1.995636 1.437838
v -1.431571 1.910848 1.459515
v -1.461574 1.795026 1.467450
v -1.431571 1.679204 1.459515
v -1.349602 1.594416 1.437838
v -1.349406 1.995636 1.377883
v -1.431233 1.910848 1.355672
v -1.461184 1.795026 1.347543
v -1.431233 1.679204 1.355672
v -1.349406 1.594416 1.377883
v -1.319260 1.995636 1.326060
v -1.379018 1.910848 1.265911
v -1.400891 1.795026 1.243895
v -1.379018 1.679204 1.265911
v -1.319260 1.594416 1.326060
v -1.237629 2.026670 1.408225
v -1.267241 1.995636 1.296252
v -1.288919 1.910848 1.214283
v -1.296853 1.795026 1.184280
v -1.288919 1.679204 1.214283
v -1.267241 1.594416 1.296252
v -1.237629 1.563381 1.408225
v -1.207287 1.995636 1.296448
v -1.185076 1.910848 1.214621
v -1.176946 1.795026 1.184670
v -1.185076 1.679204 1.214621
v -1.207287 1.594416 1.296448
v -1.155464 1.995636 1.326594
v -1.095315 1.910848 1.266836
v -1.073298 1.795026 1.244963
v -1.095315 1.679204 1.266836
v -1.155464 1.594416 1.326594
v -1.125656 1.995636 1.378613
v -1.043686 1.910848 1.356935
v -1.013683 1.795026 1.349000
v -1.043686 1.679204 1.356935
v -1.125656 1.594416 1.378613
v -1.125851 1.995636 1.438567
v -1.044024 1.910848 1.460778
v -1.014074 1.795026 1.468908
v -1.044024 1.679204 1.460778
v -1.125851 1.594416 1.438567
v -1.155997 1.995636 1.490390
v -1.074366 1.795026 1.572555
v -1.155997 1.594416 1.490390
vn -0.5712 0.5790 -0.5818
vn 0.5795 0.5745 -0.5780
vn 0.5712 0.5790 0.5818
vn -0.5795 0.5745 0.5780
vn 0.5759 -0.5803 0.5759
vn -0.5759 0.5803 0.5759
vn -0.7102 0.0034 0.7040
vn 0.6995 0.0032 0.7147
vn 0.7100 -0.0328 -0.7034
vn -0.6961 0.0411 -0.7168
vn -0.7020 0.0383 -0.7112
vn 0.7103 0.0032 0.7039
vn 0.5758 0.5804 0.5758
vn -0.5758 -0.5804 0.5758
vn 0.5795 0.5745 0.5780
vn -0.5795 0.5745 -0.5780
vn -0.5758 -0.5804 -0.5758
vn 0.5758 0.5804 -0.5758
vn -0.6924 0.0409 0.7204
vn 0.6953 -0.0326 -0.7179
vn -0.5759 0.5803 -0.5759
vn 0.5759 -0.5803 -0.5759
vn 0.5712 0.5790 -0.5818
vn -0.5712 0.5790 0.5818
vn -0.4680 0.7342 0.4918
vn 0.4595 0.7382 -0.4938
vn -0.4980 0.7134 -0.4930
vn 0.5002 0.7047 0.5031
vn -0.4961 0.7067 0.5045
vn 0.4595 0.7382 0.4938
vn 0.4980 0.7134 -0.4931
vn -0.4669 0.7325 -0.4954
vn 0.4333 -0.7019 -0.5654
vn -0.4265 -0.7068 0.5644
vn 0.5628 -0.7147 0.4152
vn -0.5618 -0.7193 -0.4087
vn -0.4063 -0.7210 -0.5614
vn 0.5656 -0.7004 -0.4353
vn 0.4152 -0.7147 0.5628
vn -0.5644 -0.7068 0.4265
vn -0.6969 0.0122 -0.7171
vn 0.7086 0.0693 -0.7022
vn 0.6966 0.0316 0.7168
vn -0.7084 0.0742 0.7020
vn 0.7084 0.0742 0.7020
vn -0.7099 0.0350 -0.7035
vn 0.6966 0.0316 -0.7168
vn -0.6969 -0.0127 0.7171
vn 0.2506 -0.2506 -0.9351
vn 0.1862 0.6947 -0.6947
vn 0.1862 -0.6947 -0.6947
vn 0.2506 0.2506 -0.9351
vn 0.0692 0.9636 -0.2582
vn 0.0692 -0.9636 -0.2582
vn 0.5086 -0.6947 -0.5086
vn 0.6846 0.2506 -0.6845
vn 0.1890 0.9636 -0.1890
vn 0.1890 -0.9636 -0.1890
vn 0.6846 -0.2506 -0.6846
vn 0.5086 0.6947 -0.5086
vn 0.6947 -0.6947 -0.1862
vn 0.9351 0.2506 -0.2506
vn 0.2582 0.9636 -0.0692
vn 0.2582 -0.9636 -0.0692
vn 0.9351 -0.2506 -0.2506
vn 0.6947 0.6947 -0.1862
vn 0.6947 -0.6947 0.1862
vn 0.9351 0.2506 0.2506
vn 0.2582 0.9636 0.0692
vn 0.2582 -0.9636 0.0692
vn 0.9351 -0.2506 0.2506
vn 0.6947 0.6947 0.1862
vn 0.6846 0.2506 0.6845
vn 0.1890 0.9636 0.1890
vn 0.1890 -0.9636 0.1890
vn 0.6846 -0.2506 0.6846
vn 0.5086 0.6947 0.5086
vn 0.5086 -0.6947 0.5086
vn 0.0692 0.9636 0.2582
vn 0.0692 -0.9636 0.2582
vn 0.2506 -0.2506 0.9351
vn 0.1862 0.6947 0.6947
vn 0.1862 -0.6947 0.6947
vn 0.2506 0.2506 0.9351
vn -0.0692 -0.9636 0.2582
vn -0.2506 -0.2506 0.9351
vn -0.1862 0.6947 0.6947
vn -0.1862 -0.6947 0.6947
vn -0.2506 0.2506 0.9351
vn -0.0692 0.9636 0.2582
vn -0.1890 -0.9636 0.1890
vn -0.6846 -0.2506 0.6846
vn -0.5086 0.6947 0.5086
vn -0.5086 -0.6947 0.5086
vn -0.6845 0.2506 0.6846
vn -0.1890 0.9636 0.1890
vn -0.2582 -0.9636 0.0692
vn -0.9351 -0.2506 0.2506
vn -0.6947 0.6947 0.1862
vn -0.6947 -0.6947 0.1862
vn -0.9351 0.2506 0.2506
vn -0.2582 0.9636 0.0692
vn -0.9351 -0.2506 -0.2506
vn -0.6947 0.6947 -0.1862
vn -0.6947 -0.6947 -0.1862
vn -0.9351 0.2506 -0.2506
vn -0.2582 0.9636 -0.0692
vn -0.2582 -0.9636 -0.0692
vn -0.5086 0.6947 -0.5086
vn -0.5086 -0.6947 -0.5086
vn -0.6845 0.2506 -0.6846
vn -0.1890 0.9636 -0.1890
vn -0.1890 -0.9636 -0.1890
vn -0.6846 -0.2506 -0.6845
vn -0.1862 -0.6947 -0.6947
vn -0.2506 0.2506 -0.9351
vn -0.0692 0.9636 -0.2582
vn -0.0692 -0.9636 -0.2582
vn -0.2506 -0.2506 -0.9351
vn -0.1862 0.6947 -0.6947
vn 0.6845 -0.2506 -0.6846
vn 0.6845 -0.2506 0.6846
vn -0.6846 0.2506 0.6845
vn -0.6846 0.2506 -0.6845
vn -0.6846 -0.2506 -0.6846
vn 0.9343 -0.2506 0.2536
vn 0.6941 0.6947 0.1884
vn 0.6941 -0.6947 0.1884
vn 0.9343 0.2506 0.2536
vn 0.2580 0.9636 0.0700
vn 0.2580 -0.9636 0.0700
vn 0.5069 -0.6947 0.5102
vn 0.6823 0.2506 0.6868
vn 0.1884 0.9636 0.1896
vn 0.1884 -0.9636 0.1896
vn 0.6823 -0.2506 0.6868
vn 0.5069 0.6947 0.5102
vn 0.1839 -0.6947 0.6954
vn 0.2475 0.2506 0.9359
vn 0.0683 0.9636 0.2584
vn 0.0683 -0.9636 0.2584
vn 0.2475 -0.2506 0.9359
vn 0.1839 0.6947 0.6953
vn -0.1884 -0.6947 0.6941
vn -0.2536 0.2506 0.9343
vn -0.0700 0.9636 0.2580
vn -0.0700 -0.9636 0.2580
vn -0.2536 -0.2506 0.9343
vn -0.1884 0.6947 0.6941
vn -0.6868 0.2506 0.6823
vn -0.1896 0.9636 0.1884
vn -0.1896 -0.9636 0.1884
vn -0.6868 -0.2506 0.6823
vn -0.5102 0.6947 0.5069
vn -0.5102 -0.6947 0.5069
vn -0.2584 0.9636 0.0683
vn -0.2584 -0.9636 0.0683
vn -0.9359 -0.2506 0.2475
vn -0.6953 0.6947 0.1839
vn -0.6953 -0.6947 0.1839
vn -0.9359 0.2506 0.2475
vn -0.2580 -0.9636 -0.0700
vn -0.9343 -0.2506 -0.2536
vn -0.6941 0.6947 -0.1884
vn -0.6941 -0.6947 -0.1884
vn -0.9343 0.2506 -0.2536
vn -0.2580 0.9636 -0.0700
vn -0.1884 -0.9636 -0.1896
vn -0.6823 -0.2506 -0.6868
vn -0.5069 0.6947 -0.5102
vn -0.5069 -0.6947 -0.5102
vn -0.6823 0.2506 -0.6868
vn -0.1884 0.9636 -0.1896
vn -0.0683 -0.9636 -0.2584
vn -0.2475 -0.2506 -0.9359
vn -0.1839 0.6947 -0.6954
vn -0.1839 -0.6947 -0.6953
vn -0.2475 0.2506 -0.9359
vn -0.0683 0.9636 -0.2584
vn 0.2536 -0.2506 -0.9343
vn 0.1884 0.6947 -0.6941
vn 0.1884 -0.6947 -0.6941
vn 0.2536 0.2506 -0.9343
vn 0.0700 0.9636 -0.2580
vn 0.0700 -0.9636 -0.2580
vn 0.5102 0.6947 -0.5069
vn 0.5102 -0.6947 -0.5069
vn 0.6868 0.2506 -0.6823
vn 0.1896 0.9636 -0.1884
vn 0.1896 -0.9636 -0.1884
vn 0.6868 -0.2506 -0.6823
vn 0.6953 -0.6947 -0.1839
vn 0.9359 0.2506 -0.2475
vn 0.2584 0.9636 -0.0683
vn 0.2584 -0.9636 -0.0683
vn 0.9359 -0.2506 -0.2475
vn 0.6953 0.6947 -0.1839
vn 0.1839 -0.6948 0.6953
vn 0.8384 -0.2506 -0.4840
vn 0.6229 0.6947 -0.3596
vn 0.6229 -0.6947 -0.3596
vn 0.8384 0.2506 -0.4841
vn 0.2315 0.9636 -0.1337
vn 0.2315 -0.9636 -0.1337
vn 0.7193 -0.6947 -0.0000
vn 0.9681 0.2506 -0.0000
vn 0.2673 0.9636 -0.0000
vn 0.2673 -0.9636 -0.0000
vn 0.9681 -0.2506 -0.0000
vn 0.7193 0.6947 -0.0000
vn 0.6229 -0.6947 0.3596
vn 0.8384 0.2506 0.4841
vn 0.2315 0.9636 0.1337
vn 0.2315 -0.9636 0.1337
vn 0.8384 -0.2506 0.4840
vn 0.6229 0.6947 0.3596
vn 0.3596 -0.6947 0.6229
vn 0.4841 0.2506 0.8384
vn 0.1337 0.9636 0.2315
vn 0.1337 -0.9636 0.2315
vn 0.4840 -0.2506 0.8384
vn 0.3596 0.6947 0.6229
vn -0.0000 0.2506 0.9681
vn -0.0000 0.9636 0.2673
vn -0.0000 -0.9636 0.2673
vn -0.0000 -0.2506 0.9681
vn -0.0000 0.6947 0.7193
vn -0.0000 -0.6947 0.7193
vn -0.1337 0.9636 0.2315
vn -0.1337 -0.9636 0.2315
vn -0.4840 -0.2506 0.8384
vn -0.3596 0.6947 0.6229
vn -0.3596 -0.6947 0.6229
vn -0.4841 0.2506 0.8384
vn -0.2315 -0.9636 0.1337
vn -0.8384 -0.2506 0.4840
vn -0.6229 0.6947 0.3596
vn -0.6229 -0.6947 0.3596
vn -0.8384 0.2506 0.4841
vn -0.2315 0.9636 0.1337
vn -0.2673 -0.9636 -0.0000
vn -0.9681 -0.2506 -0.0000
vn -0.7193 0.6947 -0.0000
vn -0.7193 -0.6947 -0.0000
vn -0.9681 0.2506 -0.0000
vn -0.2673 0.9636 -0.0000
vn -0.2315 -0.9636 -0.1337
vn -0.8384 -0.2506 -0.4840
vn -0.6229 0.6947 -0.3596
vn -0.6229 -0.6947 -0.3596
vn -0.8384 0.2506 -0.4841
vn -0.2315 0.9636 -0.1337
vn -0.4840 -0.2506 -0.8384
vn -0.3596 0.6947 -0.6229
vn -0.3596 -0.6947 -0.6229
vn -0.4841 0.2506 -0.8384
vn -0.1337 0.9636 -0.2315
vn -0.1337 -0.9636 -0.2315
vn -0.0000 0.6947 -0.7193
vn -0.0000 -0.6947 -0.7193
vn -0.0000 0.2506 -0.9681
vn -0.0000 0.9636 -0.2673
vn -0.0000 -0.9636 -0.2673
vn -0.0000 -0.2506 -0.9681
vn 0.3596 -0.6947 -0.6229
vn 0.4841 0.2506 -0.8384
vn 0.1337 0.9636 -0.2315
vn 0.1337 -0.9636 -0.2315
vn 0.4840 -0.2506 -0.8384
vn 0.3596 0.6947 -0.6229
vn -0.8384 -0.2506 0.4841
vn 0.4813 -0.2506 0.8400
vn 0.3576 0.6947 0.6241
vn 0.3576 -0.6947 0.6241
vn 0.4813 0.2506 0.8400
vn 0.1329 0.9636 0.2319
vn 0.1329 -0.9636 0.2319
vn -0.0023 -0.6947 0.7193
vn -0.0032 0.2506 0.9681
vn -0.0009 0.9636 0.2673
vn -0.0009 -0.9636 0.2673
vn -0.0032 -0.2506 0.9681
vn -0.0023 0.6947 0.7193
vn -0.3617 -0.6947 0.6217
vn -0.4868 0.2506 0.8368
vn -0.1344 0.9636 0.2311
vn -0.1344 -0.9636 0.2311
vn -0.4868 -0.2506 0.8368
vn -0.3617 0.6947 0.6217
vn -0.6241 -0.6947 0.3576
vn -0.8400 0.2506 0.4813
vn -0.2319 0.9636 0.1329
vn -0.2319 -0.9636 0.1329
vn -0.8400 -0.2506 0.4813
vn -0.6241 0.6947 0.3576
vn -0.9681 0.2506 -0.0032
vn -0.2673 0.9636 -0.0009
vn -0.2673 -0.9636 -0.0009
vn -0.9681 -0.2506 -0.0032
vn -0.7193 0.6947 -0.0023
vn -0.7193 -0.6947 -0.0023
vn -0.2311 0.9636 -0.1344
vn -0.2311 -0.9636 -0.1344
vn -0.8368 -0.2506 -0.4868
vn -0.6217 0.6947 -0.3617
vn -0.6217 -0.6947 -0.3617
vn -0.8368 0.2506 -0.4868
vn -0.1329 -0.9636 -0.2319
vn -0.4813 -0.2506 -0.8400
vn -0.3576 0.6947 -0.6241
vn -0.3576 -0.6947 -0.6241
vn -0.4813 0.2506 -0.8400
vn -0.1329 0.9636 -0.2319
vn 0.0009 -0.9636 -0.2673
vn 0.0032 -0.2506 -0.9681
vn 0.0023 0.6947 -0.7193
vn 0.0023 -0.6947 -0.7192
vn 0.0032 0.2506 -0.9681
vn 0.0009 0.9636 -0.2673
vn 0.1344 -0.9636 -0.2311
vn 0.4868 -0.2506 -0.8368
vn 0.3617 0.6947 -0.6217
vn 0.3617 -0.6947 -0.6217
vn 0.4868 0.2506 -0.8368
vn 0.1344 0.9636 -0.2311
vn 0.8400 -0.2506 -0.4813
vn 0.6241 0.6947 -0.3576
vn 0.6241 -0.6947 -0.3576
vn 0.8400 0.2506 -0.4813
vn 0.2319 0.9636 -0.1329
vn 0.2319 -0.9636 -0.1329
vn 0.7193 0.6947 0.0023
vn 0.7193 -0.6947 0.0023
vn 0.9681 0.2506 0.0032
vn 0.2673 0.9636 0.0009
vn 0.2673 -0.9636 0.0009
vn 0.9681 -0.2506 0.0032
vn 0.6217 -0.6947 0.3617
vn 0.8368 0.2506 0.4868
vn 0.2311 0.9636 0.1344
vn 0.2311 -0.9636 0.1344
vn 0.8368 -0.2506 0.4868
vn 0.6217 0.6947 0.3617
vn -0.0023 0.6947 0.7192
vn -0.3616 -0.6947 0.6217
vn -0.7192 -0.6947 -0.0023
vn 0.0023 -0.6947 -0.7193
vn 0.7192 0.6947 0.0023
vn -0.5891 0.5670 -0.5758
vn 0.5758 0.5670 -0.5891
vn 0.5891 0.5670 0.5758
vn -0.5758 0.5670 0.5891
vn 0.5758 -0.5804 0.5758
vn -0.5758 0.5804 0.5758
vn -0.7103 0.0027 0.7039
vn 0.6968 -0.0209 0.7170
vn 0.7099 -0.0334 -0.7035
vn -0.6964 0.0385 -0.7166
vn -0.7099 -0.0328 -0.7035
vn 0.7103 0.0027 0.7039
vn 0.5759 0.5803 0.5759
vn -0.5759 -0.5803 0.5759
vn 0.5758 0.5670 0.5891
vn -0.5758 0.5670 -0.5891
vn -0.5759 -0.5803 -0.5759
vn 0.5759 0.5803 -0.5759
vn -0.6969 0.0034 0.7171
vn 0.6968 -0.0209 -0.7170
vn -0.5758 0.5804 -0.5758
vn 0.5758 -0.5804 -0.5758
vn 0.5891 0.5670 -0.5758
vn -0.5891 0.5670 0.5758
vn -0.3766 0.7999 0.4673
vn 0.3867 0.7912 -0.4738
vn -0.4727 0.7895 -0.3915
vn 0.4713 0.7914 0.3893
vn -0.4634 0.8020 0.3768
vn 0.3867 0.7912 0.4738
vn 0.4713 0.7914 -0.3893
vn -0.3843 0.7932 -0.4723
vn 0.5222 -0.6632 -0.5362
vn -0.5112 -0.6712 0.5368
vn 0.5250 -0.6654 0.5307
vn -0.5211 -0.6680 -0.5313
vn -0.5148 -0.6760 -0.5273
vn 0.5349 -0.6613 -0.5259
vn 0.5259 -0.6678 0.5268
vn -0.5302 -0.6628 0.5287
vn -0.6947 0.0329 -0.7186
vn 0.7069 0.0346 -0.7064
vn 0.6962 0.0345 0.7170
vn -0.7033 -0.0131 0.7108
vn 0.7067 0.0346 0.7066
vn -0.7058 0.0696 -0.7050
vn 0.6962 0.0345 -0.7170
vn -0.6989 0.0122 0.7151
vn 0.6846 0.2506 -0.6846
vn 0.6846 0.2506 0.6846
vn 0.6846 -0.2506 0.6845
vn -0.6845 -0.2506 0.6846
vn -0.6846 0.2506 0.6846
vn -0.6845 -0.2506 -0.6846
vn 0.6845 0.2506 -0.6846
vn 0.6846 -0.2506 -0.6845
vn 0.6845 0.2506 0.6846
vn -0.6846 -0.2506 0.6845
vn -0.6846 0.2506 -0.6846
vn 0.1839 -0.6947 0.6953
vn 0.1839 0.6947 0.6954
vn -0.1839 0.6947 -0.6953
vn -0.1839 -0.6947 -0.6954
vn 0.1839 0.6948 0.6953
vn 0.8384 -0.2506 -0.4841
vn 0.8384 0.2506 -0.4840
vn 0.8384 0.2506 0.4840
vn 0.8384 -0.2506 0.4841
vn 0.4840 0.2506 0.8384
vn 0.4841 -0.2506 0.8384
vn -0.4841 -0.2506 0.8384
vn -0.4840 0.2506 0.8384
vn -0.8384 0.2506 0.4840
vn -0.8384 -0.2506 -0.4841
vn -0.8384 0.2506 -0.4840
vn -0.4841 -0.2506 -0.8384
vn -0.4840 0.2506 -0.8384
vn 0.4840 0.2506 -0.8384
vn 0.4841 -0.2506 -0.8384
vn 0.0023 0.6947 -0.7192
vn -0.0023 -0.6947 0.7192
vn -0.3616 0.6947 0.6217
vn -0.7192 0.6947 -0.0023
vn 0.7192 -0.6947 0.0023
vt 0.708555 0.750148
vt 0.750148 0.770944
vt 0.708555 0.770944
vt 0.791741 0.750148
vt 0.833333 0.770944
vt 0.791741 0.770944
vt 0.874926 0.750148
vt 0.916519 0.770944
vt 0.874926 0.770944
vt 0.958112 0.750148
vt 0.999705 0.770944
vt 0.958112 0.770944
vt 0.874926 0.833333
vt 0.916519 0.874926
vt 0.874926 0.874926
vt 0.874926 0.666962
vt 0.916519 0.708555
vt 0.874926 0.708555
vt 0.958112 0.812537
vt 0.999705 0.791740
vt 0.999705 0.812537
vt 0.874926 0.812537
vt 0.916519 0.791740
vt 0.916519 0.812537
vt 0.791741 0.791740
vt 0.833333 0.812537
vt 0.791741 0.812537
vt 0.708555 0.791740
vt 0.750148 0.812537
vt 0.708555 0.812537
vt 0.750148 0.791740
vt 0.916519 0.750148
vt 0.874926 0.916519
vt 0.916519 0.916519
vt 0.833333 0.874926
vt 0.833333 0.916519
vt 0.833333 0.708555
vt 0.833333 0.750148
vt 0.666962 0.812537
vt 0.833333 0.791740
vt 0.666962 0.770944
vt 0.666962 0.781342
vt 0.708555 0.781342
vt 0.833333 0.781342
vt 0.874926 0.781342
vt 0.750148 0.781342
vt 0.791741 0.781342
vt 0.916519 0.781342
vt 0.958112 0.781342
vt 0.999705 0.781342
vt 0.833333 0.833333
vt 0.708555 0.833333
vt 0.666962 0.833333
vt 0.958112 0.833333
vt 0.916519 0.833333
vt 0.791741 0.833333
vt 0.750148 0.833333
vt 0.999705 0.833333
vt 0.874926 0.791740
vt 0.958112 0.791740
vt 0.666962 0.791740
vt 0.111209 0.083481
vt 0.166667 0.111209
vt 0.111209 0.111209
vt 0.222124 0.083481
vt 0.277581 0.111209
vt 0.222124 0.111209
vt 0.055752 0.111209
vt 0.055752 0.083481
vt 0.166667 0.083481
vt 0.277581 0.083481
vt 0.333038 0.097345
vt 0.000295 0.097345
vt 0.111209 0.138938
vt 0.055752 0.138938
vt 0.166667 0.138938
vt 0.333038 0.125074
vt 0.277581 0.138938
vt 0.000295 0.125074
vt 0.222124 0.138938
vt 0.111209 0.166667
vt 0.055752 0.166667
vt 0.166667 0.166667
vt 0.333038 0.152802
vt 0.277581 0.166667
vt 0.000295 0.152802
vt 0.222124 0.166667
vt 0.055752 0.194395
vt 0.166667 0.194395
vt 0.333038 0.180531
vt 0.277581 0.194395
vt 0.000295 0.180531
vt 0.111209 0.194395
vt 0.222124 0.194395
vt 0.166667 0.222124
vt 0.333038 0.208260
vt 0.277581 0.222124
vt 0.000295 0.208260
vt 0.055752 0.222124
vt 0.111209 0.222124
vt 0.222124 0.222124
vt 0.333038 0.235988
vt 0.277581 0.249853
vt 0.000295 0.235988
vt 0.055752 0.249853
vt 0.111209 0.249853
vt 0.222124 0.249853
vt 0.166667 0.249853
vt 0.000295 0.263717
vt 0.055752 0.277581
vt 0.166667 0.277581
vt 0.111209 0.277581
vt 0.277581 0.277581
vt 0.222124 0.277581
vt 0.333038 0.263717
vt 0.000295 0.291445
vt 0.055752 0.305310
vt 0.166667 0.305310
vt 0.111209 0.305310
vt 0.277581 0.305310
vt 0.222124 0.305310
vt 0.333038 0.291445
vt 0.000295 0.319174
vt 0.055752 0.333038
vt 0.166667 0.333038
vt 0.111209 0.333038
vt 0.222124 0.333038
vt 0.333038 0.319174
vt 0.277581 0.333038
vt 0.111209 0.000295
vt 0.166667 0.028024
vt 0.111209 0.028024
vt 0.222124 0.000295
vt 0.277581 0.028024
vt 0.222124 0.028024
vt 0.055752 0.028024
vt 0.055752 0.000295
vt 0.166667 0.000295
vt 0.277581 0.000295
vt 0.333038 0.014159
vt 0.000295 0.014159
vt 0.277581 0.055752
vt 0.222124 0.055752
vt 0.055752 0.055752
vt 0.166667 0.055752
vt 0.333038 0.041888
vt 0.000295 0.041888
vt 0.111209 0.055752
vt 0.333038 0.069617
vt 0.000295 0.069617
vt 0.166667 0.416814
vt 0.111209 0.444543
vt 0.111209 0.416814
vt 0.277581 0.416814
vt 0.222124 0.444543
vt 0.222124 0.416814
vt 0.055752 0.416814
vt 0.055752 0.444543
vt 0.166667 0.444543
vt 0.333038 0.430678
vt 0.277581 0.444543
vt 0.000295 0.430678
vt 0.111209 0.472271
vt 0.055752 0.472271
vt 0.222124 0.472271
vt 0.166667 0.472271
vt 0.333038 0.458407
vt 0.277581 0.472271
vt 0.000295 0.458407
vt 0.055752 0.500000
vt 0.166667 0.500000
vt 0.333038 0.486136
vt 0.277581 0.500000
vt 0.000295 0.486136
vt 0.111209 0.500000
vt 0.222124 0.500000
vt 0.111209 0.527729
vt 0.055752 0.527729
vt 0.166667 0.527729
vt 0.333038 0.513864
vt 0.277581 0.527729
vt 0.000295 0.513864
vt 0.222124 0.527729
vt 0.166667 0.555457
vt 0.333038 0.541593
vt 0.277581 0.555457
vt 0.000295 0.541593
vt 0.055752 0.555457
vt 0.111209 0.555457
vt 0.222124 0.555457
vt 0.333038 0.569322
vt 0.277581 0.583186
vt 0.000295 0.569322
vt 0.055752 0.583186
vt 0.166667 0.583186
vt 0.111209 0.583186
vt 0.222124 0.583186
vt 0.000295 0.597050
vt 0.055752 0.610914
vt 0.111209 0.610914
vt 0.277581 0.610914
vt 0.222124 0.610914
vt 0.166667 0.610914
vt 0.333038 0.597050
vt 0.000295 0.624779
vt 0.055752 0.638643
vt 0.166667 0.638643
vt 0.111209 0.638643
vt 0.277581 0.638643
vt 0.222124 0.638643
vt 0.333038 0.624779
vt 0.000295 0.652507
vt 0.055752 0.666372
vt 0.166667 0.666372
vt 0.111209 0.666372
vt 0.222124 0.666372
vt 0.333038 0.652507
vt 0.277581 0.666372
vt 0.111209 0.333628
vt 0.166667 0.361357
vt 0.111209 0.361357
vt 0.222124 0.333628
vt 0.277581 0.361357
vt 0.222124 0.361357
vt 0.055752 0.361357
vt 0.055752 0.333628
vt 0.166667 0.333628
vt 0.277581 0.333628
vt 0.333038 0.347493
vt 0.000295 0.347493
vt 0.222124 0.389086
vt 0.111209 0.389086
vt 0.055752 0.389086
vt 0.166667 0.389086
vt 0.333038 0.375221
vt 0.277581 0.389086
vt 0.000295 0.375221
vt 0.333038 0.402950
vt 0.000295 0.402950
vt 0.416814 0.222124
vt 0.444543 0.166667
vt 0.444543 0.222124
vt 0.416814 0.055752
vt 0.444543 0.111209
vt 0.416814 0.111209
vt 0.416814 0.277581
vt 0.444543 0.277581
vt 0.416814 0.166667
vt 0.430678 0.000295
vt 0.444543 0.055752
vt 0.430679 0.333038
vt 0.472271 0.277581
vt 0.472271 0.166667
vt 0.458407 0.000295
vt 0.472271 0.055752
vt 0.458407 0.333038
vt 0.472271 0.222124
vt 0.472271 0.111209
vt 0.500000 0.277581
vt 0.500000 0.111209
vt 0.500000 0.166667
vt 0.486136 0.000295
vt 0.500000 0.055752
vt 0.486136 0.333038
vt 0.500000 0.222124
vt 0.527729 0.277581
vt 0.527729 0.166667
vt 0.513864 0.000295
vt 0.527729 0.055752
vt 0.513864 0.333038
vt 0.527729 0.222124
vt 0.527729 0.111209
vt 0.555457 0.166667
vt 0.541593 0.000295
vt 0.555457 0.055752
vt 0.541593 0.333038
vt 0.555457 0.277581
vt 0.555457 0.222124
vt 0.555457 0.111209
vt 0.569322 0.000295
vt 0.583186 0.055752
vt 0.569322 0.333038
vt 0.583186 0.277581
vt 0.583186 0.166667
vt 0.583186 0.222124
vt 0.583186 0.111209
vt 0.597050 0.333038
vt 0.610914 0.277581
vt 0.610914 0.166667
vt 0.610914 0.222124
vt 0.610914 0.055752
vt 0.610914 0.111209
vt 0.597050 0.000295
vt 0.624779 0.333038
vt 0.638643 0.277581
vt 0.638643 0.166667
vt 0.638643 0.222124
vt 0.638643 0.055752
vt 0.638643 0.111209
vt 0.624779 0.000295
vt 0.652507 0.333038
vt 0.666372 0.277581
vt 0.666372 0.166667
vt 0.666372 0.222124
vt 0.666372 0.055752
vt 0.666372 0.111209
vt 0.652507 0.000295
vt 0.333628 0.166667
vt 0.361357 0.222124
vt 0.333628 0.222124
vt 0.333628 0.055752
vt 0.361357 0.111209
vt 0.333628 0.111209
vt 0.361357 0.277581
vt 0.333628 0.277581
vt 0.361357 0.166667
vt 0.347493 0.000295
vt 0.361357 0.055752
vt 0.347493 0.333038
vt 0.389086 0.111209
vt 0.389086 0.277581
vt 0.389086 0.166667
vt 0.375221 0.000295
vt 0.389086 0.055752
vt 0.375221 0.333038
vt 0.389086 0.222124
vt 0.402950 0.000295
vt 0.402950 0.333038
vt 0.416814 0.500000
vt 0.444543 0.555457
vt 0.416814 0.555457
vt 0.416814 0.389086
vt 0.444543 0.444543
vt 0.416814 0.444543
vt 0.416814 0.610914
vt 0.444543 0.610914
vt 0.444543 0.500000
vt 0.430679 0.333628
vt 0.444543 0.389086
vt 0.430679 0.666372
vt 0.472271 0.610914
vt 0.472271 0.444543
vt 0.472271 0.500000
vt 0.458407 0.333628
vt 0.472271 0.389086
vt 0.458407 0.666372
vt 0.472271 0.555457
vt 0.500000 0.610914
vt 0.500000 0.500000
vt 0.486136 0.333628
vt 0.500000 0.389086
vt 0.486136 0.666372
vt 0.500000 0.555457
vt 0.500000 0.444543
vt 0.527729 0.555457
vt 0.527729 0.610914
vt 0.527729 0.444543
vt 0.527729 0.500000
vt 0.513864 0.333628
vt 0.527729 0.389086
vt 0.513864 0.666372
vt 0.555457 0.500000
vt 0.541593 0.333628
vt 0.555457 0.389086
vt 0.541593 0.666372
vt 0.555457 0.610914
vt 0.555457 0.555457
vt 0.555457 0.444543
vt 0.569322 0.333628
vt 0.583186 0.389086
vt 0.569322 0.666372
vt 0.583186 0.610914
vt 0.583186 0.500000
vt 0.583186 0.555457
vt 0.583186 0.444543
vt 0.597050 0.666372
vt 0.610915 0.610914
vt 0.610914 0.555457
vt 0.610914 0.444543
vt 0.610914 0.500000
vt 0.597050 0.333628
vt 0.610914 0.389086
vt 0.624779 0.666372
vt 0.638643 0.610914
vt 0.638643 0.555457
vt 0.638643 0.444543
vt 0.638643 0.500000
vt 0.624779 0.333628
vt 0.638643 0.389086
vt 0.652507 0.666372
vt 0.666372 0.610914
vt 0.666372 0.555457
vt 0.666372 0.389086
vt 0.666372 0.444543
vt 0.666372 0.500000
vt 0.652507 0.333628
vt 0.333628 0.500000
vt 0.361357 0.555457
vt 0.333628 0.555457
vt 0.333628 0.444543
vt 0.361357 0.389086
vt 0.361357 0.444543
vt 0.361357 0.610914
vt 0.333628 0.610914
vt 0.361357 0.500000
vt 0.333628 0.389086
vt 0.347493 0.333628
vt 0.347493 0.666372
vt 0.389086 0.444543
vt 0.389086 0.555457
vt 0.389086 0.610914
vt 0.389086 0.500000
vt 0.375221 0.333628
vt 0.389086 0.389086
vt 0.375221 0.666372
vt 0.402950 0.333628
vt 0.402950 0.666372
vt 0.166667 0.750148
vt 0.111209 0.777876
vt 0.111209 0.750148
vt 0.277581 0.750148
vt 0.222124 0.777876
vt 0.222124 0.750148
vt 0.055752 0.777876
vt 0.055752 0.750148
vt 0.166667 0.777876
vt 0.333038 0.764012
vt 0.277581 0.777876
vt 0.000295 0.764012
vt 0.055752 0.805605
vt 0.166667 0.805605
vt 0.333038 0.791740
vt 0.277581 0.805605
vt 0.000295 0.791740
vt 0.111209 0.805605
vt 0.222124 0.805605
vt 0.055752 0.833333
vt 0.166667 0.833333
vt 0.333038 0.819469
vt 0.277581 0.833333
vt 0.000295 0.819469
vt 0.111209 0.833333
vt 0.222124 0.833333
vt 0.055752 0.861062
vt 0.222124 0.861062
vt 0.166667 0.861062
vt 0.333038 0.847198
vt 0.277581 0.861062
vt 0.000295 0.847198
vt 0.111209 0.861062
vt 0.166667 0.888791
vt 0.333038 0.874926
vt 0.277581 0.888791
vt 0.000295 0.874926
vt 0.055752 0.888791
vt 0.111209 0.888791
vt 0.222124 0.888791
vt 0.333038 0.902655
vt 0.277581 0.916519
vt 0.000295 0.902655
vt 0.055752 0.916519
vt 0.111209 0.916519
vt 0.222124 0.916519
vt 0.166667 0.916519
vt 0.000295 0.930384
vt 0.055752 0.944248
vt 0.111209 0.944248
vt 0.222124 0.944248
vt 0.166667 0.944248
vt 0.333038 0.930384
vt 0.277581 0.944248
vt 0.000295 0.958112
vt 0.055752 0.971976
vt 0.111209 0.971976
vt 0.222124 0.971976
vt 0.166667 0.971976
vt 0.333038 0.958112
vt 0.277581 0.971976
vt 0.000295 0.985841
vt 0.055752 0.999705
vt 0.166667 0.999705
vt 0.111209 0.999705
vt 0.222124 0.999705
vt 0.333038 0.985841
vt 0.277581 0.999705
vt 0.111209 0.666962
vt 0.166667 0.694690
vt 0.111209 0.694690
vt 0.222124 0.666962
vt 0.277581 0.694690
vt 0.222124 0.694690
vt 0.055752 0.694690
vt 0.055752 0.666962
vt 0.166667 0.666962
vt 0.277581 0.666962
vt 0.333038 0.680826
vt 0.000295 0.680826
vt 0.277581 0.722419
vt 0.222124 0.722419
vt 0.055752 0.722419
vt 0.166667 0.722419
vt 0.333038 0.708555
vt 0.000295 0.708555
vt 0.111209 0.722419
vt 0.333038 0.736283
vt 0.000295 0.736283
vt 0.500000 0.750148
vt 0.444543 0.777876
vt 0.444543 0.750148
vt 0.610914 0.750148
vt 0.555457 0.777876
vt 0.555457 0.750148
vt 0.389086 0.750148
vt 0.389086 0.777876
vt 0.500000 0.777876
vt 0.666372 0.764012
vt 0.610914 0.777876
vt 0.333628 0.764012
vt 0.389086 0.805605
vt 0.500000 0.805605
vt 0.666372 0.791740
vt 0.610914 0.805605
vt 0.333628 0.791740
vt 0.444543 0.805605
vt 0.555457 0.805605
vt 0.389086 0.833333
vt 0.500000 0.833333
vt 0.666372 0.819469
vt 0.610914 0.833333
vt 0.333628 0.819469
vt 0.444543 0.833333
vt 0.555457 0.833333
vt 0.444543 0.861062
vt 0.389086 0.861062
vt 0.555457 0.861062
vt 0.500000 0.861062
vt 0.666372 0.847198
vt 0.610914 0.861062
vt 0.333628 0.847198
vt 0.555457 0.888791
vt 0.500000 0.888791
vt 0.666372 0.874926
vt 0.610914 0.888791
vt 0.333628 0.874926
vt 0.389086 0.888791
vt 0.444543 0.888791
vt 0.666372 0.902655
vt 0.610914 0.916519
vt 0.333628 0.902655
vt 0.389086 0.916519
vt 0.500000 0.916519
vt 0.444543 0.916519
vt 0.555457 0.916519
vt 0.333628 0.930384
vt 0.389086 0.944248
vt 0.444543 0.944248
vt 0.610914 0.944248
vt 0.555457 0.944248
vt 0.500000 0.944248
vt 0.666372 0.930384
vt 0.333628 0.958112
vt 0.389086 0.971976
vt 0.500000 0.971976
vt 0.444543 0.971976
vt 0.555457 0.971976
vt 0.666372 0.958112
vt 0.610914 0.971976
vt 0.333628 0.985841
vt 0.389086 0.999705
vt 0.500000 0.999705
vt 0.444543 0.999705
vt 0.610914 0.999705
vt 0.555457 0.999705
vt 0.666372 0.985841
vt 0.444543 0.666962
vt 0.500000 0.694690
vt 0.444543 0.694690
vt 0.555457 0.666962
vt 0.610914 0.694690
vt 0.555457 0.694690
vt 0.389086 0.694690
vt 0.389086 0.666962
vt 0.500000 0.666962
vt 0.610914 0.666962
vt 0.666372 0.680826
vt 0.333628 0.680826
vt 0.610914 0.722419
vt 0.555457 0.722419
vt 0.389086 0.722419
vt 0.500000 0.722419
vt 0.666372 0.708555
vt 0.333628 0.708555
vt 0.444543 0.722419
vt 0.666372 0.736283
vt 0.333628 0.736283
vt 0.750148 0.166667
vt 0.777876 0.222124
vt 0.750148 0.222124
vt 0.750148 0.111209
vt 0.777876 0.055752
vt 0.777876 0.111209
vt 0.777876 0.277581
vt 0.750148 0.277581
vt 0.777876 0.166667
vt 0.750148 0.055752
vt 0.764012 0.000295
vt 0.764012 0.333038
vt 0.805605 0.277581
vt 0.805605 0.111209
vt 0.805605 0.166667
vt 0.791740 0.000295
vt 0.805605 0.055752
vt 0.791741 0.333038
vt 0.805605 0.222124
vt 0.833333 0.222124
vt 0.833333 0.277581
vt 0.833333 0.111209
vt 0.833333 0.166667
vt 0.819469 0.000295
vt 0.833333 0.055752
vt 0.819469 0.333038
vt 0.861062 0.277581
vt 0.861062 0.111209
vt 0.861062 0.166667
vt 0.847198 0.000295
vt 0.861062 0.055752
vt 0.847198 0.333038
vt 0.861062 0.222124
vt 0.888791 0.111209
vt 0.888791 0.166667
vt 0.874926 0.000295
vt 0.888791 0.055752
vt 0.874926 0.333038
vt 0.888791 0.277581
vt 0.888791 0.222124
vt 0.902655 0.000295
vt 0.916519 0.055752
vt 0.902655 0.333038
vt 0.916519 0.277581
vt 0.916519 0.222124
vt 0.916519 0.111209
vt 0.916519 0.166667
vt 0.930384 0.333038
vt 0.944248 0.277581
vt 0.944248 0.222124
vt 0.944248 0.111209
vt 0.944248 0.166667
vt 0.930384 0.000295
vt 0.944248 0.055752
vt 0.958112 0.333038
vt 0.971976 0.277581
vt 0.971976 0.166667
vt 0.971976 0.222124
vt 0.971976 0.111209
vt 0.958112 0.000295
vt 0.971976 0.055752
vt 0.985841 0.333038
vt 0.999705 0.277581
vt 0.999705 0.222124
vt 0.999705 0.111209
vt 0.999705 0.166667
vt 0.985841 0.000295
vt 0.999705 0.055752
vt 0.666962 0.166667
vt 0.694690 0.222124
vt 0.666962 0.222124
vt 0.666962 0.055752
vt 0.694690 0.111209
vt 0.666962 0.111209
vt 0.666962 0.277581
vt 0.694690 0.277581
vt 0.694690 0.166667
vt 0.680826 0.000295
vt 0.694690 0.055752
vt 0.680826 0.333038
vt 0.722419 0.111209
vt 0.722419 0.222124
vt 0.722419 0.277581
vt 0.722419 0.166667
vt 0.708555 0.000295
vt 0.722419 0.055752
vt 0.708555 0.333038
vt 0.736283 0.000295
vt 0.736283 0.333038
vt 0.750148 0.500000
vt 0.777876 0.555457
vt 0.750148 0.555457
vt 0.750148 0.389086
vt 0.777876 0.444543
vt 0.750148 0.444543
vt 0.750148 0.610914
vt 0.777876 0.610914
vt 0.777876 0.500000
vt 0.764012 0.333628
vt 0.777876 0.389086
vt 0.764012 0.666372
vt 0.805605 0.610914
vt 0.805605 0.444543
vt 0.805605 0.500000
vt 0.791741 0.333628
vt 0.805605 0.389086
vt 0.791741 0.666372
vt 0.805605 0.555457
vt 0.833333 0.610914
vt 0.833333 0.444543
vt 0.833333 0.500000
vt 0.819469 0.333628
vt 0.833333 0.389086
vt 0.819469 0.666372
vt 0.833333 0.555457
vt 0.861062 0.555457
vt 0.861062 0.610914
vt 0.861062 0.444543
vt 0.861062 0.500000
vt 0.847198 0.333628
vt 0.861062 0.389086
vt 0.847198 0.666372
vt 0.888791 0.500000
vt 0.874926 0.333628
vt 0.888791 0.389086
vt 0.874926 0.666372
vt 0.888791 0.610914
vt 0.888791 0.555457
vt 0.888791 0.444543
vt 0.902655 0.333628
vt 0.916519 0.389086
vt 0.902655 0.666372
vt 0.916519 0.610914
vt 0.916519 0.500000
vt 0.916519 0.555457
vt 0.916519 0.444543
vt 0.930384 0.666372
vt 0.944248 0.610914
vt 0.944248 0.555457
vt 0.944248 0.444543
vt 0.944248 0.500000
vt 0.930384 0.333628
vt 0.944248 0.389086
vt 0.958112 0.666372
vt 0.971977 0.610914
vt 0.971977 0.555457
vt 0.971977 0.444543
vt 0.971976 0.500000
vt 0.958112 0.333628
vt 0.971976 0.389086
vt 0.985841 0.666372
vt 0.999705 0.610914
vt 0.999705 0.555457
vt 0.999705 0.389086
vt 0.999705 0.444543
vt 0.999705 0.500000
vt 0.985841 0.333628
vt 0.666962 0.500000
vt 0.694690 0.555457
vt 0.666962 0.555457
vt 0.666962 0.444543
vt 0.694690 0.389086
vt 0.694690 0.444543
vt 0.694690 0.610914
vt 0.666962 0.610914
vt 0.694690 0.500000
vt 0.666962 0.389086
vt 0.680826 0.333628
vt 0.680826 0.666372
vt 0.722419 0.444543
vt 0.722419 0.555457
vt 0.722419 0.610914
vt 0.722419 0.500000
vt 0.708555 0.333628
vt 0.722419 0.389086
vt 0.708555 0.666372
vt 0.736283 0.333628
vt 0.736283 0.666372
vt 0.750148 0.750148
vt 0.999705 0.750148
vt 0.916519 0.666962
vt 0.833333 0.666962
vt 0.666962 0.750148
s 0
usemtl マテリアル
f 20/1/1 28/2/1 34/3/1
f 14/4/2 29/5/2 32/6/2
f 22/7/3 30/8/3 33/9/3
f 16/10/4 27/11/4 31/12/4
f 21/13/5 15/14/5 26/15/5
f 20/16/6 16/17/6 25/18/6
f 40/19/7 9/20/7 38/21/7
f 42/22/8 12/23/8 37/24/8
f 18/25/9 36/26/9 39/27/9
f 24/28/10 35/29/10 41/30/10
f 10/31/11 39/27/11 35/29/11
f 12/23/12 40/19/12 37/24/12
f 22/7/13 16/17/13 6/32/13
f 19/33/14 15/14/14 1/34/14
f 30/8/15 16/10/15 31/12/15
f 28/2/16 14/4/16 32/6/16
f 13/35/17 19/33/17 3/36/17
f 14/37/18 22/7/18 8/38/18
f 38/39/19 24/28/19 41/30/19
f 11/40/20 42/22/20 36/26/20
f 14/37/21 20/16/21 25/18/21
f 13/35/22 21/13/22 26/15/22
f 29/5/23 22/7/23 33/9/23
f 27/41/24 20/1/24 34/3/24
f 50/42/25 34/3/25 49/43/25
f 44/44/26 33/9/26 48/45/26
f 43/46/27 32/6/27 47/47/27
f 45/48/28 31/12/28 46/49/28
f 31/12/29 50/50/29 46/49/29
f 33/9/30 45/48/30 48/45/30
f 32/6/31 44/44/31 47/47/31
f 34/3/32 43/46/32 49/43/32
f 36/26/33 21/13/33 7/51/33
f 38/39/34 19/52/34 1/53/34
f 37/24/35 15/54/35 5/55/35
f 35/29/36 13/56/36 3/57/36
f 19/52/37 35/29/37 3/57/37
f 13/56/38 36/26/38 7/51/38
f 21/13/39 37/24/39 5/55/39
f 15/54/40 38/21/40 1/58/40
f 49/43/41 10/31/41 24/28/41
f 47/47/42 11/40/42 18/25/42
f 48/45/43 12/23/43 23/59/43
f 46/49/44 9/20/44 17/60/44
f 12/23/45 46/49/45 17/60/45
f 43/46/46 18/25/46 10/31/46
f 11/40/47 48/45/47 23/59/47
f 50/42/48 24/28/48 9/61/48
f 52/62/49 55/63/49 56/64/49
f 51/65/50 53/66/50 54/67/50
f 52/62/51 57/68/51 112/69/51
f 51/65/52 55/63/52 111/70/52
f 110/71/53 83/72/53 53/66/53
f 89/73/54 112/69/54 57/68/54
f 57/68/55 61/74/55 62/75/55
f 54/67/56 60/76/56 55/63/56
f 53/66/57 83/77/57 58/78/57
f 89/79/58 57/68/58 62/75/58
f 56/64/59 60/76/59 61/74/59
f 53/66/60 59/80/60 54/67/60
f 62/75/61 66/81/61 67/82/61
f 59/80/62 65/83/62 60/76/62
f 58/78/63 83/84/63 63/85/63
f 89/86/64 62/75/64 67/82/64
f 60/76/65 66/81/65 61/74/65
f 58/78/66 64/87/66 59/80/66
f 66/81/67 72/88/67 67/82/67
f 64/87/68 70/89/68 65/83/68
f 63/85/69 83/90/69 68/91/69
f 89/92/70 67/82/70 72/88/70
f 66/81/71 70/89/71 71/93/71
f 64/87/72 68/91/72 69/94/72
f 69/94/73 75/95/73 70/89/73
f 68/91/74 83/96/74 73/97/74
f 89/98/75 72/88/75 77/99/75
f 71/93/76 75/95/76 76/100/76
f 69/94/77 73/97/77 74/101/77
f 71/93/78 77/99/78 72/88/78
f 73/97/79 83/102/79 78/103/79
f 89/104/80 77/99/80 82/105/80
f 75/95/81 81/106/81 76/100/81
f 74/101/82 78/103/82 79/107/82
f 76/100/83 82/105/83 77/99/83
f 74/101/84 80/108/84 75/95/84
f 89/109/85 82/105/85 88/110/85
f 81/106/86 86/111/86 87/112/86
f 79/107/87 84/113/87 85/114/87
f 81/106/88 88/110/88 82/105/88
f 79/107/89 86/111/89 80/108/89
f 78/103/90 83/115/90 84/113/90
f 89/116/91 88/110/91 94/117/91
f 87/112/92 92/118/92 93/119/92
f 85/114/93 90/120/93 91/121/93
f 87/112/94 94/117/94 88/110/94
f 85/114/95 92/118/95 86/111/95
f 84/113/96 83/122/96 90/120/96
f 89/123/97 94/117/97 99/124/97
f 93/119/98 97/125/98 98/126/98
f 90/120/99 96/127/99 91/121/99
f 94/117/100 98/126/100 99/124/100
f 91/121/101 97/125/101 92/118/101
f 90/120/102 83/128/102 95/129/102
f 98/130/103 102/131/103 103/132/103
f 96/133/104 100/134/104 101/135/104
f 98/130/105 104/136/105 99/137/105
f 96/133/106 102/131/106 97/138/106
f 95/139/107 83/140/107 100/134/107
f 89/141/108 99/137/108 104/136/108
f 101/135/109 105/142/109 106/143/109
f 103/132/110 109/144/110 104/136/110
f 101/135/111 107/145/111 102/131/111
f 100/134/112 83/146/112 105/142/112
f 89/147/113 104/136/113 109/144/113
f 103/132/114 107/145/114 108/148/114
f 108/148/115 112/69/115 109/144/115
f 106/143/116 111/70/116 107/145/116
f 105/142/117 83/149/117 110/71/117
f 89/150/118 109/144/118 112/69/118
f 107/145/119 52/62/119 108/148/119
f 106/143/120 110/71/120 51/65/120
f 173/151/49 118/152/49 114/153/49
f 172/154/50 116/155/50 113/156/50
f 174/157/51 118/152/51 119/158/51
f 173/151/52 116/155/52 117/159/52
f 172/154/53 145/160/53 115/161/53
f 151/162/54 174/157/54 119/158/54
f 119/158/55 123/163/55 124/164/55
f 117/159/56 121/165/56 122/166/56
f 115/161/57 145/167/57 120/168/57
f 151/169/58 119/158/58 124/164/58
f 117/159/121 123/163/121 118/152/121
f 115/161/60 121/165/60 116/155/60
f 123/163/61 129/170/61 124/164/61
f 121/165/62 127/171/62 122/166/62
f 120/168/63 145/172/63 125/173/63
f 151/174/64 124/164/64 129/170/64
f 122/166/65 128/175/65 123/163/65
f 121/165/66 125/173/66 126/176/66
f 129/170/67 133/177/67 134/178/67
f 126/176/68 132/179/68 127/171/68
f 125/173/69 145/180/69 130/181/69
f 151/182/70 129/170/70 134/178/70
f 128/175/71 132/179/71 133/177/71
f 125/173/72 131/183/72 126/176/72
f 131/183/73 137/184/73 132/179/73
f 130/181/74 145/185/74 135/186/74
f 151/187/75 134/178/75 139/188/75
f 133/177/122 137/184/122 138/189/122
f 131/183/77 135/186/77 136/190/77
f 133/177/78 139/188/78 134/178/78
f 135/186/79 145/191/79 140/192/79
f 151/193/80 139/188/80 144/194/80
f 138/189/81 142/195/81 143/196/81
f 136/190/82 140/192/82 141/197/82
f 138/189/83 144/194/83 139/188/83
f 136/190/84 142/195/84 137/184/84
f 151/198/85 144/194/85 150/199/85
f 142/195/86 149/200/86 143/196/86
f 141/197/87 146/201/87 147/202/87
f 143/196/88 150/199/88 144/194/88
f 142/195/89 147/202/89 148/203/89
f 140/192/90 145/204/90 146/201/90
f 151/205/91 150/199/91 156/206/91
f 149/200/92 154/207/92 155/208/92
f 147/202/93 152/209/93 153/210/93
f 149/200/94 156/206/94 150/199/94
f 147/202/123 154/207/123 148/203/123
f 146/201/96 145/211/96 152/209/96
f 151/212/97 156/206/97 161/213/97
f 155/208/98 159/214/98 160/215/98
f 152/209/99 158/216/99 153/210/99
f 156/206/100 160/215/100 161/213/100
f 153/210/101 159/214/101 154/207/101
f 152/209/102 145/217/102 157/218/102
f 160/219/103 164/220/103 165/221/103
f 158/222/104 162/223/104 163/224/104
f 160/219/105 166/225/105 161/226/105
f 158/222/106 164/220/106 159/227/106
f 157/228/107 145/229/107 162/223/107
f 151/230/108 161/226/108 166/225/108
f 162/223/109 168/231/109 163/224/109
f 166/225/110 170/232/110 171/233/110
f 164/220/124 168/231/124 169/234/124
f 162/223/112 145/235/112 167/236/112
f 151/237/113 166/225/113 171/233/113
f 164/220/125 170/232/125 165/221/125
f 171/233/115 114/153/115 174/157/115
f 168/231/116 173/151/116 169/234/116
f 167/236/117 145/238/117 172/154/117
f 151/239/118 171/233/118 174/157/118
f 170/232/119 173/151/119 114/153/119
f 167/236/120 113/156/120 168/231/120
f 176/240/126 179/241/126 180/242/126
f 234/243/127 178/244/127 175/245/127
f 236/246/128 180/242/128 181/247/128
f 175/245/129 179/241/129 235/248/129
f 234/243/130 207/249/130 177/250/130
f 213/251/131 236/246/131 181/247/131
f 180/242/132 186/252/132 181/247/132
f 178/244/133 184/253/133 179/241/133
f 177/250/134 207/254/134 182/255/134
f 213/256/135 181/247/135 186/252/135
f 180/242/136 184/253/136 185/257/136
f 178/244/137 182/255/137 183/258/137
f 185/257/138 191/259/138 186/252/138
f 184/253/139 188/260/139 189/261/139
f 182/255/140 207/262/140 187/263/140
f 213/264/141 186/252/141 191/259/141
f 184/253/142 190/265/142 185/257/142
f 182/255/143 188/260/143 183/258/143
f 190/265/144 196/266/144 191/259/144
f 188/260/145 194/267/145 189/261/145
f 187/263/146 207/268/146 192/269/146
f 213/270/147 191/259/147 196/266/147
f 190/265/148 194/267/148 195/271/148
f 188/260/149 192/269/149 193/272/149
f 193/272/150 199/273/150 194/267/150
f 192/269/151 207/274/151 197/275/151
f 213/276/152 196/266/152 201/277/152
f 195/271/153 199/273/153 200/278/153
f 192/269/154 198/279/154 193/272/154
f 195/271/155 201/277/155 196/266/155
f 197/275/156 207/280/156 202/281/156
f 213/282/157 201/277/157 206/283/157
f 200/278/158 204/284/158 205/285/158
f 197/275/159 203/286/159 198/279/159
f 200/278/160 206/283/160 201/277/160
f 198/279/161 204/284/161 199/273/161
f 213/287/162 206/283/162 212/288/162
f 205/285/163 210/289/163 211/290/163
f 203/286/164 208/291/164 209/292/164
f 205/285/165 212/288/165 206/283/165
f 203/286/166 210/289/166 204/284/166
f 202/281/167 207/293/167 208/291/167
f 213/294/168 212/288/168 218/295/168
f 211/290/169 216/296/169 217/297/169
f 209/292/170 214/298/170 215/299/170
f 211/290/171 218/295/171 212/288/171
f 209/292/172 216/296/172 210/289/172
f 208/291/173 207/300/173 214/298/173
f 213/301/174 218/295/174 223/302/174
f 217/297/175 221/303/175 222/304/175
f 215/299/176 219/305/176 220/306/176
f 217/297/177 223/302/177 218/295/177
f 215/299/178 221/303/178 216/296/178
f 214/298/179 207/307/179 219/305/179
f 221/308/180 227/309/180 222/310/180
f 219/311/181 225/312/181 220/313/181
f 222/310/182 228/314/182 223/315/182
f 221/308/183 225/312/183 226/316/183
f 219/311/184 207/317/184 224/318/184
f 213/319/185 223/315/185 228/314/185
f 224/318/186 230/320/186 225/312/186
f 227/309/187 233/321/187 228/314/187
f 226/316/188 230/320/188 231/322/188
f 224/318/189 207/323/189 229/324/189
f 213/325/190 228/314/190 233/321/190
f 226/316/191 232/326/191 227/309/191
f 232/326/192 236/246/192 233/321/192
f 231/322/193 175/245/193 235/248/193
f 229/324/194 207/327/194 234/243/194
f 213/328/195 233/321/195 236/246/195
f 231/322/196 176/240/196 232/326/196
f 230/320/197 234/243/197 175/245/197
f 297/329/126 242/330/126 238/331/126
f 296/332/127 240/333/127 237/334/127
f 298/335/128 242/330/128 243/336/128
f 297/329/129 240/333/129 241/337/129
f 296/332/130 269/338/130 239/339/130
f 275/340/131 298/335/131 243/336/131
f 242/330/132 248/341/132 243/336/132
f 241/337/133 245/342/133 246/343/133
f 239/339/134 269/344/134 244/345/134
f 275/346/135 243/336/135 248/341/135
f 241/337/136 247/347/136 242/330/136
f 240/333/137 244/345/137 245/342/137
f 247/347/198 253/348/198 248/341/198
f 245/342/139 251/349/139 246/343/139
f 244/345/140 269/350/140 249/351/140
f 275/352/141 248/341/141 253/348/141
f 247/347/142 251/349/142 252/353/142
f 245/342/143 249/351/143 250/354/143
f 253/348/144 257/355/144 258/356/144
f 251/349/145 255/357/145 256/358/145
f 249/351/146 269/359/146 254/360/146
f 275/361/147 253/348/147 258/356/147
f 251/349/148 257/355/148 252/353/148
f 249/351/149 255/357/149 250/354/149
f 255/357/150 261/362/150 256/358/150
f 254/360/151 269/363/151 259/364/151
f 275/365/152 258/356/152 263/366/152
f 257/355/153 261/362/153 262/367/153
f 254/360/154 260/368/154 255/357/154
f 258/356/155 262/367/155 263/366/155
f 259/364/156 269/369/156 264/370/156
f 275/371/157 263/366/157 268/372/157
f 262/367/158 266/373/158 267/374/158
f 259/364/159 265/375/159 260/368/159
f 263/366/160 267/374/160 268/372/160
f 260/368/161 266/373/161 261/362/161
f 275/376/162 268/372/162 274/377/162
f 266/373/163 273/378/163 267/374/163
f 264/370/164 271/379/164 265/375/164
f 268/372/165 273/378/165 274/377/165
f 266/373/166 271/379/166 272/380/166
f 264/370/167 269/381/167 270/382/167
f 275/383/168 274/377/168 280/384/168
f 272/380/169 279/385/169 273/378/169
f 270/382/170 277/386/170 271/379/170
f 274/377/171 279/385/171 280/384/171
f 272/380/172 277/386/172 278/387/172
f 270/382/173 269/388/173 276/389/173
f 275/390/174 280/384/174 285/391/174
f 278/387/175 284/392/175 279/385/175
f 277/386/176 281/393/176 282/394/176
f 279/385/177 285/391/177 280/384/177
f 278/387/178 282/394/178 283/395/178
f 276/389/179 269/396/179 281/393/179
f 283/397/180 289/398/180 284/399/180
f 282/400/181 286/401/181 287/402/181
f 284/399/182 290/403/182 285/404/182
f 283/397/183 287/402/183 288/405/183
f 281/406/184 269/407/184 286/401/184
f 275/408/185 285/404/185 290/403/185
f 286/401/186 292/409/186 287/402/186
f 290/403/187 294/410/187 295/411/187
f 288/405/188 292/409/188 293/412/188
f 286/401/189 269/413/189 291/414/189
f 275/415/190 290/403/190 295/411/190
f 288/405/191 294/410/191 289/398/191
f 295/411/192 238/331/192 298/335/192
f 293/412/193 237/334/193 297/329/193
f 291/414/194 269/416/194 296/332/194
f 275/417/195 295/411/195 298/335/195
f 293/412/196 238/331/196 294/410/196
f 291/414/197 237/334/197 292/409/197
f 359/418/199 304/419/199 300/420/199
f 358/421/200 302/422/200 299/423/200
f 300/420/201 305/424/201 360/425/201
f 359/418/202 302/422/202 303/426/202
f 358/421/203 331/427/203 301/428/203
f 337/429/204 360/425/204 305/424/204
f 304/419/205 310/430/205 305/424/205
f 302/422/206 308/431/206 303/426/206
f 301/428/207 331/432/207 306/433/207
f 337/434/208 305/424/208 310/430/208
f 303/426/209 309/435/209 304/419/209
f 301/428/210 307/436/210 302/422/210
f 309/435/211 315/437/211 310/430/211
f 307/436/212 313/438/212 308/431/212
f 306/433/213 331/439/213 311/440/213
f 337/441/214 310/430/214 315/437/214
f 309/435/215 313/438/215 314/442/215
f 306/433/216 312/443/216 307/436/216
f 314/442/217 320/444/217 315/437/217
f 313/438/218 317/445/218 318/446/218
f 311/440/219 331/447/219 316/448/219
f 337/449/220 315/437/220 320/444/220
f 313/438/221 319/450/221 314/442/221
f 312/443/222 316/448/222 317/445/222
f 317/445/223 323/451/223 318/446/223
f 316/448/224 331/452/224 321/453/224
f 337/454/225 320/444/225 325/455/225
f 318/446/226 324/456/226 319/450/226
f 316/448/227 322/457/227 317/445/227
f 319/450/228 325/455/228 320/444/228
f 321/453/229 331/458/229 326/459/229
f 337/460/230 325/455/230 330/461/230
f 323/451/231 329/462/231 324/456/231
f 321/453/232 327/463/232 322/457/232
f 325/455/233 329/462/233 330/461/233
f 323/451/234 327/463/234 328/464/234
f 337/465/235 330/461/235 336/466/235
f 328/464/236 335/467/236 329/462/236
f 326/459/237 333/468/237 327/463/237
f 329/462/238 336/466/238 330/461/238
f 328/464/239 333/468/239 334/469/239
f 326/459/240 331/470/240 332/471/240
f 337/472/241 336/466/241 342/473/241
f 334/469/242 341/474/242 335/467/242
f 332/471/243 339/475/243 333/468/243
f 335/467/244 342/473/244 336/466/244
f 333/468/245 340/476/245 334/469/245
f 332/471/246 331/477/246 338/478/246
f 337/479/247 342/473/247 347/480/247
f 341/474/248 345/481/248 346/482/248
f 338/478/249 344/483/249 339/475/249
f 341/474/250 347/480/250 342/473/250
f 339/475/251 345/481/251 340/476/251
f 338/478/252 331/484/252 343/485/252
f 346/486/253 350/487/253 351/488/253
f 344/489/254 348/490/254 349/491/254
f 346/486/255 352/492/255 347/493/255
f 344/489/256 350/487/256 345/494/256
f 343/495/257 331/496/257 348/490/257
f 337/497/258 347/493/258 352/492/258
f 349/491/259 353/498/259 354/499/259
f 351/488/260 357/500/260 352/492/260
f 349/491/261 355/501/261 350/487/261
f 348/490/262 331/502/262 353/498/262
f 337/503/263 352/492/263 357/500/263
f 351/488/264 355/501/264 356/504/264
f 357/500/265 300/420/265 360/425/265
f 354/499/266 359/418/266 355/501/266
f 353/498/267 331/505/267 358/421/267
f 337/506/268 357/500/268 360/425/268
f 356/504/269 359/418/269 300/420/269
f 353/498/270 299/423/270 354/499/270
f 421/507/199 366/508/199 362/509/199
f 420/510/200 364/511/200 361/512/200
f 422/513/201 366/508/201 367/514/201
f 421/507/202 364/511/202 365/515/202
f 420/510/203 393/516/203 363/517/203
f 399/518/204 422/513/204 367/514/204
f 366/508/205 372/519/205 367/514/205
f 364/511/206 370/520/206 365/515/206
f 363/517/207 393/521/207 368/522/207
f 399/523/208 367/514/208 372/519/208
f 365/515/209 371/524/209 366/508/209
f 363/517/210 369/525/210 364/511/210
f 371/524/211 377/526/211 372/519/211
f 369/525/212 375/527/212 370/520/212
f 368/522/213 393/528/213 373/529/213
f 399/530/214 372/519/214 377/526/214
f 371/524/215 375/527/215 376/531/215
f 369/525/216 373/529/216 374/532/216
f 377/526/217 381/533/217 382/534/217
f 375/527/218 379/535/218 380/536/218
f 373/529/219 393/537/219 378/538/219
f 399/539/220 377/526/220 382/534/220
f 375/527/221 381/533/221 376/531/221
f 373/529/222 379/535/222 374/532/222
f 380/536/223 384/540/223 385/541/223
f 378/538/224 393/542/224 383/543/224
f 399/544/225 382/534/225 387/545/225
f 380/536/226 386/546/226 381/533/226
f 378/538/227 384/540/227 379/535/227
f 382/534/228 386/546/228 387/545/228
f 383/543/229 393/547/229 388/548/229
f 399/549/230 387/545/230 392/550/230
f 386/546/231 390/551/231 391/552/231
f 384/540/232 388/548/232 389/553/232
f 386/546/233 392/550/233 387/545/233
f 384/540/234 390/551/234 385/541/234
f 399/554/235 392/550/235 398/555/235
f 390/551/271 397/556/271 391/552/271
f 389/553/237 394/557/237 395/558/237
f 391/552/238 398/555/238 392/550/238
f 390/551/239 395/558/239 396/559/239
f 388/548/240 393/560/240 394/557/240
f 399/561/241 398/555/241 404/562/241
f 397/556/242 402/563/242 403/564/242
f 394/557/243 401/565/243 395/558/243
f 397/556/244 404/562/244 398/555/244
f 395/558/245 402/563/245 396/559/245
f 394/557/246 393/566/246 400/567/246
f 399/568/247 404/562/247 409/569/247
f 403/564/248 407/570/248 408/571/248
f 401/565/249 405/572/249 406/573/249
f 403/564/250 409/569/250 404/562/250
f 401/565/251 407/570/251 402/563/251
f 400/567/252 393/574/252 405/572/252
f 408/575/253 412/576/253 413/577/253
f 406/578/254 410/579/254 411/580/254
f 408/575/255 414/581/255 409/582/255
f 406/578/256 412/576/256 407/583/256
f 405/584/257 393/585/257 410/579/257
f 399/586/258 409/582/258 414/581/258
f 411/580/259 415/587/259 416/588/259
f 413/577/260 419/589/260 414/581/260
f 411/580/261 417/590/261 412/576/261
f 410/579/262 393/591/262 415/587/262
f 399/592/263 414/581/263 419/589/263
f 413/577/264 417/590/264 418/593/264
f 419/589/265 362/509/265 422/513/265
f 416/588/266 421/507/266 417/590/266
f 415/587/267 393/594/267 420/510/267
f 399/595/268 419/589/268 422/513/268
f 418/593/269 421/507/269 362/509/269
f 415/587/270 361/512/270 416/588/270
f 483/596/272 428/597/272 424/598/272
f 423/599/273 425/600/273 426/601/273
f 424/598/274 429/602/274 484/603/274
f 483/596/275 426/601/275 427/604/275
f 482/605/276 455/606/276 425/600/276
f 461/607/277 484/603/277 429/602/277
f 428/597/278 434/608/278 429/602/278
f 427/604/279 431/609/279 432/610/279
f 425/600/280 455/611/280 430/612/280
f 461/613/281 429/602/281 434/608/281
f 427/604/282 433/614/282 428/597/282
f 426/601/283 430/612/283 431/609/283
f 434/608/284 438/615/284 439/616/284
f 432/610/285 436/617/285 437/618/285
f 430/612/286 455/619/286 435/620/286
f 461/621/287 434/608/287 439/616/287
f 432/610/288 438/615/288 433/614/288
f 430/612/289 436/617/289 431/609/289
f 438/615/290 444/622/290 439/616/290
f 437/618/291 441/623/291 442/624/291
f 435/620/292 455/625/292 440/626/292
f 461/627/293 439/616/293 444/622/293
f 437/618/294 443/628/294 438/615/294
f 436/617/295 440/626/295 441/623/295
f 442/624/296 446/629/296 447/630/296
f 440/626/297 455/631/297 445/632/297
f 461/633/298 444/622/298 449/634/298
f 442/624/299 448/635/299 443/628/299
f 441/623/300 445/632/300 446/629/300
f 443/628/301 449/634/301 444/622/301
f 445/632/302 455/636/302 450/637/302
f 461/638/303 449/634/303 454/639/303
f 447/630/304 453/640/304 448/635/304
f 445/632/305 451/641/305 446/629/305
f 448/635/306 454/639/306 449/634/306
f 447/630/307 451/641/307 452/642/307
f 461/643/308 454/639/308 460/644/308
f 452/642/309 459/645/309 453/640/309
f 450/637/310 457/646/310 451/641/310
f 454/639/311 459/645/311 460/644/311
f 452/642/312 457/646/312 458/647/312
f 450/637/313 455/648/313 456/649/313
f 461/650/314 460/644/314 466/651/314
f 459/645/315 464/652/315 465/653/315
f 456/649/316 463/654/316 457/646/316
f 460/644/317 465/653/317 466/651/317
f 457/646/318 464/652/318 458/647/318
f 456/649/319 455/655/319 462/656/319
f 461/657/320 466/651/320 471/658/320
f 464/652/321 470/659/321 465/653/321
f 462/656/322 468/660/322 463/654/322
f 466/651/323 470/659/323 471/658/323
f 464/652/324 468/660/324 469/661/324
f 462/656/325 455/662/325 467/663/325
f 469/664/326 475/665/326 470/666/326
f 467/667/327 473/668/327 468/669/327
f 471/670/328 475/665/328 476/671/328
f 469/664/329 473/668/329 474/672/329
f 467/667/330 455/673/330 472/674/330
f 461/675/331 471/670/331 476/671/331
f 472/674/332 478/676/332 473/668/332
f 476/671/333 480/677/333 481/678/333
f 474/672/334 478/676/334 479/679/334
f 472/674/335 455/680/335 477/681/335
f 461/682/336 476/671/336 481/678/336
f 474/672/337 480/677/337 475/665/337
f 480/677/338 484/603/338 481/678/338
f 479/679/339 423/599/339 483/596/339
f 477/681/340 455/683/340 482/605/340
f 461/684/341 481/678/341 484/603/341
f 479/679/342 424/598/342 480/677/342
f 478/676/343 482/605/343 423/599/343
f 545/685/272 490/686/272 486/687/272
f 544/688/273 488/689/273 485/690/273
f 546/691/274 490/686/274 491/692/274
f 545/685/275 488/689/275 489/693/275
f 544/688/276 517/694/276 487/695/276
f 523/696/277 546/691/277 491/692/277
f 490/686/278 496/697/278 491/692/278
f 489/693/279 493/698/279 494/699/279
f 487/695/280 517/700/280 492/701/280
f 523/702/281 491/692/281 496/697/281
f 489/693/282 495/703/282 490/686/282
f 488/689/344 492/701/344 493/698/344
f 495/703/345 501/704/345 496/697/345
f 494/699/285 498/705/285 499/706/285
f 492/701/286 517/707/286 497/708/286
f 523/709/287 496/697/287 501/704/287
f 494/699/288 500/710/288 495/703/288
f 493/698/289 497/708/289 498/705/289
f 501/704/290 505/711/290 506/712/290
f 499/706/291 503/713/291 504/714/291
f 497/708/292 517/715/292 502/716/292
f 523/717/293 501/704/293 506/712/293
f 499/706/294 505/711/294 500/710/294
f 497/708/295 503/713/295 498/705/295
f 503/713/296 509/718/296 504/714/296
f 502/716/297 517/719/297 507/720/297
f 523/721/298 506/712/298 511/722/298
f 505/711/299 509/718/299 510/723/299
f 502/716/300 508/724/300 503/713/300
f 506/712/346 510/723/346 511/722/346
f 507/720/302 517/725/302 512/726/302
f 523/727/303 511/722/303 516/728/303
f 510/723/304 514/729/304 515/730/304
f 507/720/305 513/731/305 508/724/305
f 511/722/306 515/730/306 516/728/306
f 508/724/307 514/729/307 509/718/307
f 523/732/308 516/728/308 522/733/308
f 514/729/309 521/734/309 515/730/309
f 512/726/310 519/735/310 513/731/310
f 516/728/311 521/734/311 522/733/311
f 514/729/312 519/735/312 520/736/312
f 512/726/313 517/737/313 518/738/313
f 523/739/314 522/733/314 528/740/314
f 520/736/315 527/741/315 521/734/315
f 518/738/316 525/742/316 519/735/316
f 522/733/347 527/741/347 528/740/347
f 520/736/318 525/742/318 526/743/318
f 518/738/319 517/744/319 524/745/319
f 523/746/320 528/740/320 533/747/320
f 526/743/321 532/748/321 527/741/321
f 525/742/322 529/749/322 530/750/322
f 527/741/323 533/747/323 528/740/323
f 526/743/324 530/750/324 531/751/324
f 524/745/325 517/752/325 529/749/325
f 531/753/326 537/754/326 532/755/326
f 530/756/327 534/757/327 535/758/327
f 532/755/328 538/759/328 533/760/328
f 531/753/329 535/758/329 536/761/329
f 529/762/330 517/763/330 534/757/330
f 523/764/331 533/760/331 538/759/331
f 534/757/348 540/765/348 535/758/348
f 538/759/333 542/766/333 543/767/333
f 536/761/334 540/765/334 541/768/334
f 534/757/335 517/769/335 539/770/335
f 523/771/336 538/759/336 543/767/336
f 536/761/337 542/766/337 537/754/337
f 543/767/338 486/687/338 546/691/338
f 541/768/339 485/690/339 545/685/339
f 539/770/340 517/772/340 544/688/340
f 523/773/341 543/767/341 546/691/341
f 541/768/342 486/687/342 542/766/342
f 539/770/343 485/690/343 540/765/343
f 20/1/349 4/774/349 28/2/349
f 14/4/350 8/38/350 29/5/350
f 22/7/351 6/32/351 30/8/351
f 16/10/352 2/775/352 27/11/352
f 21/13/353 5/55/353 15/14/353
f 20/16/354 2/776/354 16/17/354
f 40/19/355 17/60/355 9/20/355
f 42/22/356 23/59/356 12/23/356
f 18/25/357 11/40/357 36/26/357
f 24/28/358 10/31/358 35/29/358
f 10/31/359 18/25/359 39/27/359
f 12/23/360 17/60/360 40/19/360
f 22/7/361 25/18/361 16/17/361
f 19/33/362 26/15/362 15/14/362
f 30/8/363 6/32/363 16/10/363
f 28/2/364 4/774/364 14/4/364
f 13/35/365 26/15/365 19/33/365
f 14/37/366 25/18/366 22/7/366
f 38/39/367 9/61/367 24/28/367
f 11/40/368 23/59/368 42/22/368
f 14/37/369 4/777/369 20/16/369
f 13/35/370 7/51/370 21/13/370
f 29/5/371 8/38/371 22/7/371
f 27/41/372 2/778/372 20/1/372
f 50/42/373 27/41/373 34/3/373
f 44/44/374 29/5/374 33/9/374
f 43/46/375 28/2/375 32/6/375
f 45/48/376 30/8/376 31/12/376
f 31/12/377 27/11/377 50/50/377
f 33/9/378 30/8/378 45/48/378
f 32/6/379 29/5/379 44/44/379
f 34/3/380 28/2/380 43/46/380
f 36/26/381 42/22/381 21/13/381
f 38/39/382 41/30/382 19/52/382
f 37/24/383 40/19/383 15/54/383
f 35/29/384 39/27/384 13/56/384
f 19/52/385 41/30/385 35/29/385
f 13/56/386 39/27/386 36/26/386
f 21/13/387 42/22/387 37/24/387
f 15/54/388 40/19/388 38/21/388
f 49/43/389 43/46/389 10/31/389
f 47/47/390 44/44/390 11/40/390
f 48/45/391 45/48/391 12/23/391
f 46/49/392 50/50/392 9/20/392
f 12/23/393 45/48/393 46/49/393
f 43/46/394 47/47/394 18/25/394
f 11/40/395 44/44/395 48/45/395
f 50/42/396 49/43/396 24/28/396
f 52/62/49 111/70/49 55/63/49
f 51/65/50 110/71/50 53/66/50
f 52/62/51 56/64/51 57/68/51
f 51/65/52 54/67/52 55/63/52
f 57/68/55 56/64/55 61/74/55
f 54/67/397 59/80/397 60/76/397
f 56/64/59 55/63/59 60/76/59
f 53/66/60 58/78/60 59/80/60
f 62/75/61 61/74/61 66/81/61
f 59/80/62 64/87/62 65/83/62
f 60/76/65 65/83/65 66/81/65
f 58/78/66 63/85/66 64/87/66
f 66/81/67 71/93/67 72/88/67
f 64/87/68 69/94/68 70/89/68
f 66/81/71 65/83/71 70/89/71
f 64/87/72 63/85/72 68/91/72
f 69/94/398 74/101/398 75/95/398
f 71/93/399 70/89/399 75/95/399
f 69/94/77 68/91/77 73/97/77
f 71/93/78 76/100/78 77/99/78
f 75/95/81 80/108/81 81/106/81
f 74/101/82 73/97/82 78/103/82
f 76/100/83 81/106/83 82/105/83
f 74/101/84 79/107/84 80/108/84
f 81/106/86 80/108/86 86/111/86
f 79/107/87 78/103/87 84/113/87
f 81/106/88 87/112/88 88/110/88
f 79/107/89 85/114/89 86/111/89
f 87/112/400 86/111/400 92/118/400
f 85/114/93 84/113/93 90/120/93
f 87/112/94 93/119/94 94/117/94
f 85/114/401 91/121/401 92/118/401
f 93/119/98 92/118/98 97/125/98
f 90/120/99 95/129/99 96/127/99
f 94/117/100 93/119/100 98/126/100
f 91/121/101 96/127/101 97/125/101
f 98/130/103 97/138/103 102/131/103
f 96/133/104 95/139/104 100/134/104
f 98/130/105 103/132/105 104/136/105
f 96/133/106 101/135/106 102/131/106
f 101/135/109 100/134/109 105/142/109
f 103/132/110 108/148/110 109/144/110
f 101/135/124 106/143/124 107/145/124
f 103/132/402 102/131/402 107/145/402
f 108/148/115 52/62/115 112/69/115
f 106/143/116 51/65/116 111/70/116
f 107/145/119 111/70/119 52/62/119
f 106/143/120 105/142/120 110/71/120
f 173/151/49 117/159/49 118/152/49
f 172/154/50 115/161/50 116/155/50
f 174/157/51 114/153/51 118/152/51
f 173/151/52 113/156/52 116/155/52
f 119/158/55 118/152/55 123/163/55
f 117/159/403 116/155/403 121/165/403
f 117/159/404 122/166/404 123/163/404
f 115/161/60 120/168/60 121/165/60
f 123/163/61 128/175/61 129/170/61
f 121/165/62 126/176/62 127/171/62
f 122/166/65 127/171/65 128/175/65
f 121/165/66 120/168/66 125/173/66
f 129/170/67 128/175/67 133/177/67
f 126/176/68 131/183/68 132/179/68
f 128/175/71 127/171/71 132/179/71
f 125/173/72 130/181/72 131/183/72
f 131/183/405 136/190/405 137/184/405
f 133/177/399 132/179/399 137/184/399
f 131/183/77 130/181/77 135/186/77
f 133/177/78 138/189/78 139/188/78
f 138/189/81 137/184/81 142/195/81
f 136/190/82 135/186/82 140/192/82
f 138/189/83 143/196/83 144/194/83
f 136/190/84 141/197/84 142/195/84
f 142/195/86 148/203/86 149/200/86
f 141/197/87 140/192/87 146/201/87
f 143/196/88 149/200/88 150/199/88
f 142/195/89 141/197/89 147/202/89
f 149/200/406 148/203/406 154/207/406
f 147/202/93 146/201/93 152/209/93
f 149/200/94 155/208/94 156/206/94
f 147/202/401 153/210/401 154/207/401
f 155/208/98 154/207/98 159/214/98
f 152/209/99 157/218/99 158/216/99
f 156/206/100 155/208/100 160/215/100
f 153/210/101 158/216/101 159/214/101
f 160/219/103 159/227/103 164/220/103
f 158/222/104 157/228/104 162/223/104
f 160/219/105 165/221/105 166/225/105
f 158/222/106 163/224/106 164/220/106
f 162/223/109 167/236/109 168/231/109
f 166/225/110 165/221/110 170/232/110
f 164/220/407 163/224/407 168/231/407
f 164/220/114 169/234/114 170/232/114
f 171/233/115 170/232/115 114/153/115
f 168/231/116 113/156/116 173/151/116
f 170/232/119 169/234/119 173/151/119
f 167/236/120 172/154/120 113/156/120
f 176/240/126 235/248/126 179/241/126
f 234/243/127 177/250/127 178/244/127
f 236/246/128 176/240/128 180/242/128
f 175/245/129 178/244/129 179/241/129
f 180/242/132 185/257/132 186/252/132
f 178/244/133 183/258/133 184/253/133
f 180/242/136 179/241/136 184/253/136
f 178/244/137 177/250/137 182/255/137
f 185/257/408 190/265/408 191/259/408
f 184/253/139 183/258/139 188/260/139
f 184/253/142 189/261/142 190/265/142
f 182/255/409 187/263/409 188/260/409
f 190/265/144 195/271/144 196/266/144
f 188/260/145 193/272/145 194/267/145
f 190/265/148 189/261/148 194/267/148
f 188/260/149 187/263/149 192/269/149
f 193/272/150 198/279/150 199/273/150
f 195/271/153 194/267/153 199/273/153
f 192/269/154 197/275/154 198/279/154
f 195/271/155 200/278/155 201/277/155
f 200/278/158 199/273/158 204/284/158
f 197/275/159 202/281/159 203/286/159
f 200/278/160 205/285/160 206/283/160
f 198/279/161 203/286/161 204/284/161
f 205/285/163 204/284/163 210/289/163
f 203/286/164 202/281/164 208/291/164
f 205/285/165 211/290/165 212/288/165
f 203/286/166 209/292/166 210/289/166
f 211/290/169 210/289/169 216/296/169
f 209/292/170 208/291/170 214/298/170
f 211/290/171 217/297/171 218/295/171
f 209/292/172 215/299/172 216/296/172
f 217/297/175 216/296/175 221/303/175
f 215/299/410 214/298/410 219/305/410
f 217/297/411 222/304/411 223/302/411
f 215/299/178 220/306/178 221/303/178
f 221/308/180 226/316/180 227/309/180
f 219/311/181 224/318/181 225/312/181
f 222/310/182 227/309/182 228/314/182
f 221/308/183 220/313/183 225/312/183
f 224/318/186 229/324/186 230/320/186
f 227/309/187 232/326/187 233/321/187
f 226/316/188 225/312/188 230/320/188
f 226/316/191 231/322/191 232/326/191
f 232/326/192 176/240/192 236/246/192
f 231/322/193 230/320/193 175/245/193
f 231/322/196 235/248/196 176/240/196
f 230/320/197 229/324/197 234/243/197
f 297/329/126 241/337/126 242/330/126
f 296/332/127 239/339/127 240/333/127
f 298/335/128 238/331/128 242/330/128
f 297/329/129 237/334/129 240/333/129
f 242/330/132 247/347/132 248/341/132
f 241/337/133 240/333/133 245/342/133
f 241/337/136 246/343/136 247/347/136
f 240/333/137 239/339/137 244/345/137
f 247/347/408 252/353/408 253/348/408
f 245/342/139 250/354/139 251/349/139
f 247/347/142 246/343/142 251/349/142
f 245/342/412 244/345/412 249/351/412
f 253/348/144 252/353/144 257/355/144
f 251/349/145 250/354/145 255/357/145
f 251/349/148 256/358/148 257/355/148
f 249/351/149 254/360/149 255/357/149
f 255/357/150 260/368/150 261/362/150
f 257/355/153 256/358/153 261/362/153
f 254/360/154 259/364/154 260/368/154
f 258/356/155 257/355/155 262/367/155
f 262/367/158 261/362/158 266/373/158
f 259/364/159 264/370/159 265/375/159
f 263/366/160 262/367/160 267/374/160
f 260/368/161 265/375/161 266/373/161
f 266/373/163 272/380/163 273/378/163
f 264/370/164 270/382/164 271/379/164
f 268/372/165 267/374/165 273/378/165
f 266/373/166 265/375/166 271/379/166
f 272/380/169 278/387/169 279/385/169
f 270/382/170 276/389/170 277/386/170
f 274/377/171 273/378/171 279/385/171
f 272/380/172 271/379/172 277/386/172
f 278/387/175 283/395/175 284/392/175
f 277/386/410 276/389/410 281/393/410
f 279/385/411 284/392/411 285/391/411
f 278/387/178 277/386/178 282/394/178
f 283/397/180 288/405/180 289/398/180
f 282/400/181 281/406/181 286/401/181
f 284/399/182 289/398/182 290/403/182
f 283/397/183 282/400/183 287/402/183
f 286/401/186 291/414/186 292/409/186
f 290/403/187 289/398/187 294/410/187
f 288/405/188 287/402/188 292/409/188
f 288/405/191 293/412/191 294/410/191
f 295/411/192 294/410/192 238/331/192
f 293/412/193 292/409/193 237/334/193
f 293/412/196 297/329/196 238/331/196
f 291/414/197 296/332/197 237/334/197
f 359/418/413 303/426/413 304/419/413
f 358/421/200 301/428/200 302/422/200
f 300/420/201 304/419/201 305/424/201
f 359/418/414 299/423/414 302/422/414
f 304/419/205 309/435/205 310/430/205
f 302/422/206 307/436/206 308/431/206
f 303/426/209 308/431/209 309/435/209
f 301/428/210 306/433/210 307/436/210
f 309/435/211 314/442/211 315/437/211
f 307/436/415 312/443/415 313/438/415
f 309/435/416 308/431/416 313/438/416
f 306/433/216 311/440/216 312/443/216
f 314/442/217 319/450/217 320/444/217
f 313/438/417 312/443/417 317/445/417
f 313/438/418 318/446/418 319/450/418
f 312/443/222 311/440/222 316/448/222
f 317/445/223 322/457/223 323/451/223
f 318/446/226 323/451/226 324/456/226
f 316/448/227 321/453/227 322/457/227
f 319/450/228 324/456/228 325/455/228
f 323/451/419 328/464/419 329/462/419
f 321/453/232 326/459/232 327/463/232
f 325/455/233 324/456/233 329/462/233
f 323/451/420 322/457/420 327/463/420
f 328/464/271 334/469/271 335/467/271
f 326/459/237 332/471/237 333/468/237
f 329/462/238 335/467/238 336/466/238
f 328/464/421 327/463/421 333/468/421
f 334/469/242 340/476/242 341/474/242
f 332/471/243 338/478/243 339/475/243
f 335/467/244 341/474/244 342/473/244
f 333/468/245 339/475/245 340/476/245
f 341/474/422 340/476/422 345/481/422
f 338/478/249 343/485/249 344/483/249
f 341/474/250 346/482/250 347/480/250
f 339/475/423 344/483/423 345/481/423
f 346/486/424 345/494/424 350/487/424
f 344/489/254 343/495/254 348/490/254
f 346/486/255 351/488/255 352/492/255
f 344/489/425 349/491/425 350/487/425
f 349/491/259 348/490/259 353/498/259
f 351/488/260 356/504/260 357/500/260
f 349/491/261 354/499/261 355/501/261
f 351/488/264 350/487/264 355/501/264
f 357/500/265 356/504/265 300/420/265
f 354/499/426 299/423/426 359/418/426
f 356/504/427 355/501/427 359/418/427
f 353/498/270 358/421/270 299/423/270
f 421/507/199 365/515/199 366/508/199
f 420/510/200 363/517/200 364/511/200
f 422/513/201 362/509/201 366/508/201
f 421/507/414 361/512/414 364/511/414
f 366/508/205 371/524/205 372/519/205
f 364/511/206 369/525/206 370/520/206
f 365/515/209 370/520/209 371/524/209
f 363/517/210 368/522/210 369/525/210
f 371/524/211 376/531/211 377/526/211
f 369/525/415 374/532/415 375/527/415
f 371/524/215 370/520/215 375/527/215
f 369/525/216 368/522/216 373/529/216
f 377/526/217 376/531/217 381/533/217
f 375/527/417 374/532/417 379/535/417
f 375/527/418 380/536/418 381/533/418
f 373/529/222 378/538/222 379/535/222
f 380/536/223 379/535/223 384/540/223
f 380/536/226 385/541/226 386/546/226
f 378/538/227 383/543/227 384/540/227
f 382/534/228 381/533/228 386/546/228
f 386/546/231 385/541/231 390/551/231
f 384/540/232 383/543/232 388/548/232
f 386/546/233 391/552/233 392/550/233
f 384/540/420 389/553/420 390/551/420
f 390/551/236 396/559/236 397/556/236
f 389/553/237 388/548/237 394/557/237
f 391/552/238 397/556/238 398/555/238
f 390/551/239 389/553/239 395/558/239
f 397/556/242 396/559/242 402/563/242
f 394/557/243 400/567/243 401/565/243
f 397/556/244 403/564/244 404/562/244
f 395/558/245 401/565/245 402/563/245
f 403/564/422 402/563/422 407/570/422
f 401/565/249 400/567/249 405/572/249
f 403/564/250 408/571/250 409/569/250
f 401/565/423 406/573/423 407/570/423
f 408/575/424 407/583/424 412/576/424
f 406/578/254 405/584/254 410/579/254
f 408/575/255 413/577/255 414/581/255
f 406/578/425 411/580/425 412/576/425
f 411/580/259 410/579/259 415/587/259
f 413/577/260 418/593/260 419/589/260
f 411/580/261 416/588/261 417/590/261
f 413/577/264 412/576/264 417/590/264
f 419/589/265 418/593/265 362/509/265
f 416/588/426 361/512/426 421/507/426
f 418/593/427 417/590/427 421/507/427
f 415/587/270 420/510/270 361/512/270
f 483/596/272 427/604/272 428/597/272
f 423/599/273 482/605/273 425/600/273
f 424/598/274 428/597/274 429/602/274
f 483/596/275 423/599/275 426/601/275
f 428/597/278 433/614/278 434/608/278
f 427/604/279 426/601/279 431/609/279
f 427/604/282 432/610/282 433/614/282
f 426/601/283 425/600/283 430/612/283
f 434/608/284 433/614/284 438/615/284
f 432/610/285 431/609/285 436/617/285
f 432/610/288 437/618/288 438/615/288
f 430/612/289 435/620/289 436/617/289
f 438/615/290 443/628/290 444/622/290
f 437/618/291 436/617/291 441/623/291
f 437/618/294 442/624/294 443/628/294
f 436/617/295 435/620/295 440/626/295
f 442/624/296 441/623/296 446/629/296
f 442/624/299 447/630/299 448/635/299
f 441/623/300 440/626/300 445/632/300
f 443/628/301 448/635/301 449/634/301
f 447/630/304 452/642/304 453/640/304
f 445/632/305 450/637/305 451/641/305
f 448/635/306 453/640/306 454/639/306
f 447/630/307 446/629/307 451/641/307
f 452/642/309 458/647/309 459/645/309
f 450/637/310 456/649/310 457/646/310
f 454/639/311 453/640/311 459/645/311
f 452/642/312 451/641/312 457/646/312
f 459/645/315 458/647/315 464/652/315
f 456/649/428 462/656/428 463/654/428
f 460/644/347 459/645/347 465/653/347
f 457/646/318 463/654/318 464/652/318
f 464/652/321 469/661/321 470/659/321
f 462/656/322 467/663/322 468/660/322
f 466/651/323 465/653/323 470/659/323
f 464/652/324 463/654/324 468/660/324
f 469/664/326 474/672/326 475/665/326
f 467/667/327 472/674/327 473/668/327
f 471/670/328 470/666/328 475/665/328
f 469/664/329 468/669/329 473/668/329
f 472/674/332 477/681/332 478/676/332
f 476/671/333 475/665/333 480/677/333
f 474/672/334 473/668/334 478/676/334
f 474/672/337 479/679/337 480/677/337
f 480/677/338 424/598/338 484/603/338
f 479/679/339 478/676/339 423/599/339
f 479/679/342 483/596/342 424/598/342
f 478/676/343 477/681/343 482/605/343
f 545/685/272 489/693/272 490/686/272
f 544/688/273 487/695/273 488/689/273
f 546/691/274 486/687/274 490/686/274
f 545/685/275 485/690/275 488/689/275
f 490/686/429 495/703/429 496/697/429
f 489/693/279 488/689/279 493/698/279
f 489/693/282 494/699/282 495/703/282
f 488/689/283 487/695/283 492/701/283
f 495/703/284 500/710/284 501/704/284
f 494/699/285 493/698/285 498/705/285
f 494/699/288 499/706/288 500/710/288
f 493/698/430 492/701/430 497/708/430
f 501/704/290 500/710/290 505/711/290
f 499/706/291 498/705/291 503/713/291
f 499/706/294 504/714/294 505/711/294
f 497/708/295 502/716/295 503/713/295
f 503/713/296 508/724/296 509/718/296
f 505/711/299 504/714/299 509/718/299
f 502/716/431 507/720/431 508/724/431
f 506/712/301 505/711/301 510/723/301
f 510/723/304 509/718/304 514/729/304
f 507/720/305 512/726/305 513/731/305
f 511/722/306 510/723/306 515/730/306
f 508/724/307 513/731/307 514/729/307
f 514/729/309 520/736/309 521/734/309
f 512/726/310 518/738/310 519/735/310
f 516/728/311 515/730/311 521/734/311
f 514/729/312 513/731/312 519/735/312
f 520/736/315 526/743/315 527/741/315
f 518/738/316 524/745/316 525/742/316
f 522/733/347 521/734/347 527/741/347
f 520/736/318 519/735/318 525/742/318
f 526/743/321 531/751/321 532/748/321
f 525/742/322 524/745/322 529/749/322
f 527/741/323 532/748/323 533/747/323
f 526/743/324 525/742/324 530/750/324
f 531/753/326 536/761/326 537/754/326
f 530/756/327 529/762/327 534/757/327
f 532/755/328 537/754/328 538/759/328
f 531/753/329 530/756/329 535/758/329
f 534/757/332 539/770/332 540/765/332
f 538/759/432 537/754/432 542/766/432
f 536/761/334 535/758/334 540/765/334
f 536/761/337 541/768/337 542/766/337
f 543/767/338 542/766/338 486/687/338
f 541/768/339 540/765/339 485/690/339
f 541/768/342 545/685/342 486/687/342
f 539/770/343 544/688/343 485/690/343
