# Blender 4.1.1
# www.blender.org
mtllib player.mtl
o Cube
v -1.179589 1.752465 -1.198553
v -1.179589 0.101115 -1.198553
v 1.040096 1.752465 -1.198553
v 1.040096 0.101115 -1.198553
v -0.069746 1.752465 1.198553
v -0.069746 0.101114 1.198553
v -1.179589 0.926790 -1.198553
v 1.040096 0.926790 -1.198553
v -0.069746 0.926790 1.198553
v -1.179589 1.339627 -1.198553
v 1.040096 1.339627 -1.198553
v -0.069746 1.339627 1.198553
v -1.179589 0.513952 -1.198553
v 1.040096 0.513952 -1.198553
v -0.069746 0.513952 1.198553
v -0.069747 1.752465 -1.198553
v -0.069747 0.101114 -1.198553
v -0.069747 0.926790 -1.630025
v -0.069747 1.546798 -1.525060
v -0.069747 0.306782 -1.525060
v -0.615791 0.101115 0.018435
v 0.493823 1.752465 -1.198553
v -0.615791 1.752465 0.018435
v -0.659806 0.926790 0.018435
v 0.775091 0.926790 -1.427811
v -0.659806 1.339627 0.018435
v 0.642731 1.546798 -1.427811
v 0.642731 0.306782 -1.427811
v -0.659806 0.513952 0.018435
v 0.493823 0.101115 -1.198553
v 0.485289 0.101115 -0.000000
v -0.624325 0.101115 -1.198553
v 0.485289 1.752465 -0.000000
v 0.529530 0.926790 -0.000000
v 0.529530 1.339627 -0.000000
v 0.529530 0.513952 -0.000000
v -0.624325 1.752465 -1.198553
v -0.904166 0.926790 -1.427811
v -0.771806 1.546798 -1.427811
v -0.771806 0.306782 -1.427811
v -0.060529 0.101114 -0.590059
v -0.060529 1.752465 -0.590059
vn -0.0000 1.0000 -0.0000
vn 0.8903 0.0954 0.4452
vn -0.0000 -1.0000 -0.0000
vn 0.4997 -0.0000 -0.8662
vn -0.9196 -0.0000 0.3928
vn 0.5409 -0.1155 -0.8331
vn 0.8944 -0.0000 0.4472
vn 0.6543 -0.0000 -0.7563
vn 0.9074 -0.0000 0.4202
vn -0.0000 -0.7444 -0.6678
vn -0.9031 -0.0963 0.4184
vn -0.0000 -0.8461 -0.5330
vn -0.2352 0.0502 -0.9706
vn -0.1353 -0.1654 -0.9769
vn -0.0877 0.7689 -0.6333
vn -0.9076 -0.0000 0.4199
vn 0.2325 0.0496 -0.9713
vn -0.8944 -0.0000 0.4472
vn 0.1334 -0.1654 -0.9772
vn -0.8904 0.0949 0.4452
vn 0.0865 0.7688 -0.6336
vn -0.4901 -0.0000 -0.8717
vn -0.5300 -0.1131 -0.8404
vn -0.6398 -0.0000 -0.7686
vn 0.9032 -0.0968 0.4181
vn 0.9200 -0.0000 0.3919
vn -0.0000 0.7444 -0.6678
vn -0.9031 0.0963 0.4184
vn 0.5409 0.1155 -0.8331
vn 0.8903 -0.0954 0.4452
vn -0.0877 -0.7689 -0.6333
vn -0.1353 0.1654 -0.9769
vn -0.2352 -0.0502 -0.9706
vn -0.0000 0.8461 -0.5330
vn -0.8904 -0.0949 0.4452
vn 0.0865 -0.7688 -0.6336
vn 0.1334 0.1654 -0.9772
vn 0.2325 -0.0496 -0.9713
vn -0.5300 0.1131 -0.8404
vn 0.9032 0.0968 0.4181
vt 0.571417 0.785666
vt 0.463743 0.643932
vt 0.553837 0.645030
vt 0.357167 0.857083
vt 0.214334 0.964207
vt 0.285751 0.821374
vt 0.159399 0.357167
vt 0.214334 0.428584
vt 0.178077 0.501099
vt 0.392326 0.608223
vt 0.428584 0.714250
vt 0.357167 0.678541
vt 0.572515 0.247845
vt 0.571417 0.428584
vt 0.500000 0.392875
vt 0.501099 0.212137
vt 0.357167 0.321459
vt 0.429682 0.176429
vt 0.320910 0.572515
vt 0.214334 0.607125
vt 0.249493 0.536807
vt 0.214334 0.785666
vt 0.071501 0.892791
vt 0.142917 0.749958
vt 0.428584 0.357167
vt 0.285751 0.642833
vt 0.142917 0.928499
vt 0.071501 0.714250
vt 0.000084 0.857083
vt 0.142917 0.571417
vt 0.285751 0.285751
vt 0.358265 0.140721
vt 0.250042 0.357167
vt 0.285751 0.464292
vt 0.464292 0.464292
vt 0.357167 0.500000
vt 0.392875 0.428584
vt 0.321459 0.392875
vt 0.535708 0.500000
vt 0.428584 0.535708
vt 0.500000 0.035793
vt 0.428584 0.000085
vt 0.642833 0.107209
vt 0.571417 0.071501
vt 0.643932 0.283554
vt 0.071501 0.357167
vt 0.500000 0.571417
vt 0.643932 0.646128
vt 0.140721 0.213236
vt 0.000084 0.142918
vt 0.285751 0.999916
vt 0.714250 0.142918
vt 0.714250 0.857083
s 0
usemtl Material
f 33/1/1 22/2/1 42/3/1
f 33/4/2 12/5/2 35/6/2
f 41/7/3 17/8/3 30/9/3
f 27/10/4 3/11/4 11/12/4
f 26/13/5 1/14/5 10/15/5
f 24/16/5 13/17/5 29/18/5
f 25/19/6 14/20/6 28/21/6
f 34/22/7 15/23/7 36/24/7
f 24/16/5 10/15/5 7/25/5
f 25/19/8 11/12/8 8/26/8
f 35/6/7 9/27/7 34/22/7
f 31/28/9 15/23/9 6/29/9
f 28/21/10 4/30/10 30/9/10
f 29/18/11 2/31/11 21/32/11
f 32/33/12 20/34/12 17/8/12
f 39/35/13 18/36/13 38/37/13
f 40/38/14 18/36/14 20/34/14
f 37/39/15 19/40/15 39/35/15
f 15/41/16 21/32/16 6/42/16
f 20/34/12 30/9/12 17/8/12
f 18/36/17 27/10/17 25/19/17
f 12/43/18 24/16/18 9/44/18
f 18/36/19 28/21/19 20/34/19
f 9/44/18 29/18/18 15/41/18
f 12/43/20 23/45/20 26/13/20
f 19/40/21 22/2/21 27/10/21
f 31/46/3 30/9/3 4/30/3
f 42/3/1 16/47/1 37/39/1
f 23/48/1 37/39/1 1/14/1
f 21/49/3 31/46/3 6/50/3
f 1/14/22 39/35/22 10/15/22
f 13/17/23 38/37/23 40/38/23
f 10/15/24 38/37/24 7/25/24
f 2/31/10 40/38/10 32/33/10
f 4/30/25 36/24/25 31/28/25
f 11/12/26 34/22/26 8/26/26
f 14/20/26 34/22/26 36/24/26
f 21/49/3 32/33/3 41/7/3
f 3/11/26 35/6/26 11/12/26
f 23/48/1 33/1/1 42/3/1
f 33/1/1 3/11/1 22/2/1
f 33/4/9 5/51/9 12/5/9
f 41/7/3 32/33/3 17/8/3
f 27/10/27 22/2/27 3/11/27
f 26/13/28 23/45/28 1/14/28
f 24/16/5 7/25/5 13/17/5
f 25/19/8 8/26/8 14/20/8
f 34/22/7 9/27/7 15/23/7
f 24/16/5 26/13/5 10/15/5
f 25/19/29 27/10/29 11/12/29
f 35/6/7 12/5/7 9/27/7
f 31/28/30 36/24/30 15/23/30
f 28/21/4 14/20/4 4/30/4
f 29/18/5 13/17/5 2/31/5
f 32/33/31 40/38/31 20/34/31
f 39/35/32 19/40/32 18/36/32
f 40/38/33 38/37/33 18/36/33
f 37/39/34 16/47/34 19/40/34
f 15/41/35 29/18/35 21/32/35
f 20/34/36 28/21/36 30/9/36
f 18/36/37 19/40/37 27/10/37
f 12/43/18 26/13/18 24/16/18
f 18/36/38 25/19/38 28/21/38
f 9/44/18 24/16/18 29/18/18
f 12/43/16 5/52/16 23/45/16
f 19/40/34 16/47/34 22/2/34
f 31/46/3 41/7/3 30/9/3
f 42/3/1 22/2/1 16/47/1
f 23/48/1 42/3/1 37/39/1
f 21/49/3 41/7/3 31/46/3
f 1/14/27 37/39/27 39/35/27
f 13/17/24 7/25/24 38/37/24
f 10/15/39 39/35/39 38/37/39
f 2/31/22 13/17/22 40/38/22
f 4/30/26 14/20/26 36/24/26
f 11/12/26 35/6/26 34/22/26
f 14/20/26 8/26/26 34/22/26
f 21/49/3 2/31/3 32/33/3
f 3/11/40 33/4/40 35/6/40
f 23/48/1 5/53/1 33/1/1
